<?xml version="1.0" encoding="utf-8"?>
<svg version="1.1" xmlns:xlink="http://www.w3.org/1999/xlink" width="15px" height="17px" xmlns="http://www.w3.org/2000/svg">
  <g transform="matrix(1 0 0 1 -8 -13 )">
    <path d="M 11.2446022680664 5.23685  C 11.2446022680664 7.29616817578125  9.52642044677734 8.96603182421875  7.40573864257813 8.96603182421875  C 5.2858522680664 8.96603182421875  3.566875 7.29616817578125  3.566875 5.23685  C 3.566875 3.17675908789062  5.2858522680664 1.50689545605469  7.40573864257813 1.50689545605469  C 9.52642044677734 1.50689545605469  11.2446022680664 3.17675908789062  11.2446022680664 5.23685  Z M 14.6594886425781 16.1547136318359  C 14.6594886425781 13.1797136318359  12.7360795532227 10.6405318242187  10.0315340893555 9.64757728027344  C 11.5969886425781 8.76589545605469  12.6501704467773 7.12075908789063  12.6501704467773 5.23685  C 12.6501704467773 2.42335  10.3019886425781 0.142259087890625  7.40573864257813 0.142259087890625  C 4.50948864257812 0.142259087890625  2.16130682128906 2.42335  2.16130682128906 5.23685  C 2.16130682128906 7.15166817578125  3.24869317871094 8.81921363183594  4.85710226806641 9.68930454394531  C 2.21142044677734 10.71085  0.340511357421875 13.2206681757812  0.340511357421875 16.1547136318359  C 0.340511357421875 16.5364409121094  0.659488642578125 16.8463045439453  1.05323864257813 16.8463045439453  C 1.44619317871094 16.8463045439453  1.76517044677734 16.5364409121094  1.76517044677734 16.1547136318359  C 1.76914773193359 13.0784863681641  4.336875 10.5864409121094  7.50517044677734 10.5864409121094  C 10.636875 10.5864409121094  13.183125 13.0236227197266  13.2427840893555 16.0519409121094  C 13.2380113574219 16.0851681757813  13.2348295532227 16.1199409121094  13.2348295532227 16.1547136318359  C 13.2348295532227 16.5364409121094  13.5538068212891 16.8463045439453  13.9475568212891 16.8463045439453  C 14.3405113574219 16.8463045439453  14.6594886425781 16.5364409121094  14.6594886425781 16.1547136318359  Z " fill-rule="nonzero" fill="#aaaaaa" stroke="none" fill-opacity="0.8" transform="matrix(1 0 0 1 8 13 )" />
  </g>
</svg>