<?xml version="1.0" encoding="utf-8"?>
<svg version="1.1" xmlns:xlink="http://www.w3.org/1999/xlink" width="21px" height="20px" xmlns="http://www.w3.org/2000/svg">
  <g transform="matrix(1 0 0 1 -232 -4 )">
    <path d="M 20.4418308423913 10.0573199728261  C 20.4418308423913 15.2916949728261  15.9544093919837 19.574558423913  10.4699070142663 19.574558423913  C 4.98518172554348 19.574558423913  0.497983186141304 15.2916949728261  0.497983186141304 10.0573199728261  C 0.497983186141304 4.82294497282609  4.98518172554348 0.540293817934783  10.4699070142663 0.540293817934783  C 15.9546323029891 0.540293817934783  20.4418308423913 4.82294497282609  20.4418308423913 10.0573199728261  Z M 13.6876273777174 17.3583984375  C 15.680612519768 16.5455828405312  17.2670102724503 15.0311531999137  18.1157545006793 13.1311565896739  C 18.9880679653849 11.166133138252  18.9880679653849 8.94850680740018  18.1157545006793 6.98348335597826  C 17.2672052781517 5.0833615329849  15.680744453624 3.56887168182314  13.6876273777174 2.75624150815217  C 11.6318107229266 1.9245985133192  9.30934077163862 1.9245985133192  7.25352411684783 2.75624150815217  C 5.25978409177989 3.56843494726745  3.67275137085972 5.08301328895047  2.82405952785326 6.98348335597826  C 1.95174606314774 8.94850680740018  1.95174606314774 11.166133138252  2.82405952785326 13.1311565896739  C 3.67269808470607 15.0313912916279  5.25944831719467 16.5458526355013  7.25285538383152 17.3581861413043  C 9.30870342230761 18.1896823031899  11.631110606225 18.1896823031899  13.6869586447011 17.3581861413043  Z " fill-rule="nonzero" fill="#949da6" stroke="none" transform="matrix(1 0 0 1 232 4 )" />
  </g>
</svg>