<?xml version="1.0" encoding="utf-8"?>
<svg version="1.1" xmlns:xlink="http://www.w3.org/1999/xlink" width="593px" height="308px" xmlns="http://www.w3.org/2000/svg">
  <g transform="matrix(1 0 0 1 -355 -210 )">
    <path d="M 356 220  A 9 9 0 0 1 365 211 L 938 211  A 9 9 0 0 1 947 220 L 947 508  A 9 9 0 0 1 938 517 L 365 517  A 9 9 0 0 1 356 508 L 356 220  Z " fill-rule="nonzero" fill="#ffffff" stroke="none" />
    <path d="M 355.5 220  A 9.5 9.5 0 0 1 365 210.5 L 938 210.5  A 9.5 9.5 0 0 1 947.5 220 L 947.5 508  A 9.5 9.5 0 0 1 938 517.5 L 365 517.5  A 9.5 9.5 0 0 1 355.5 508 L 355.5 220  Z " stroke-width="1" stroke="#f2f2f2" fill="none" stroke-opacity="0.2" />
  </g>
</svg>