<?xml version="1.0" encoding="utf-8"?>
<svg version="1.1" xmlns:xlink="http://www.w3.org/1999/xlink" width="467px" height="82px" xmlns="http://www.w3.org/2000/svg">
  <g transform="matrix(1 0 0 1 -752 -771 )">
    <path d="M 753 776  A 4 4 0 0 1 757 772 L 1214 772  A 4 4 0 0 1 1218 776 L 1218 848  A 4 4 0 0 1 1214 852 L 757 852  A 4 4 0 0 1 753 848 L 753 776  Z " fill-rule="nonzero" fill="#ffffff" stroke="none" />
    <path d="M 752.5 776  A 4.5 4.5 0 0 1 757 771.5 L 1214 771.5  A 4.5 4.5 0 0 1 1218.5 776 L 1218.5 848  A 4.5 4.5 0 0 1 1214 852.5 L 757 852.5  A 4.5 4.5 0 0 1 752.5 848 L 752.5 776  Z " stroke-width="1" stroke="#797979" fill="none" stroke-opacity="0.2" />
  </g>
</svg>