<?xml version="1.0" encoding="utf-8"?>
<svg version="1.1" xmlns:xlink="http://www.w3.org/1999/xlink" width="23px" height="23px" xmlns="http://www.w3.org/2000/svg">
  <g transform="matrix(1 0 0 1 -237 -239 )">
    <path d="M 22.999865234375 11.5  C 22.999865234375 5.148810546875  17.8512119140625 0.000134765625  11.5 0.000134765625  C 5.148810546875 0.000134765625  0.000134765625 5.148810546875  0.000134765625 11.5  C 0.000134765625 17.8512119140625  5.148810546875 22.999865234375  11.5 22.999865234375  C 17.8512119140625 22.999865234375  22.999865234375 17.851189453125  22.999865234375 11.5  Z M 20.7440234375 15.404384765625  C 20.23883203125 16.5987900390625  19.5153203125 17.671771484375  18.5935458984375 18.5935458984375  C 17.671771484375 19.5153203125  16.598767578125 20.23883203125  15.404384765625 20.7440234375  C 14.168583984375 21.2667568359375  12.85493359375 21.5317958984375  11.5 21.5317958984375  C 10.14506640625 21.5317958984375  8.8314384765625 21.2667568359375  7.595615234375 20.7440458984375  C 6.4012099609375 20.2388544921875  5.328228515625 19.5153427734375  4.4064541015625 18.593568359375  C 3.4846572265625 17.6717939453125  2.7611455078125 16.5987900390625  2.2559541015625 15.4044072265625  C 1.7332431640625 14.1685615234375  1.4682041015625 12.85493359375  1.4682041015625 11.5  C 1.4682041015625 10.14506640625  1.7332431640625 8.8314384765625  2.2559541015625 7.595615234375  C 2.7611455078125 6.4012099609375  3.4846796875 5.328228515625  4.4064541015625 4.4064541015625  C 5.328228515625 3.4846572265625  6.401232421875 2.7611455078125  7.595615234375 2.2559541015625  C 8.8314384765625 1.7332431640625  10.14506640625 1.4682041015625  11.5 1.4682041015625  C 12.85493359375 1.4682041015625  14.168583984375 1.7332431640625  15.404384765625 2.2559541015625  C 16.5987900390625 2.7611455078125  17.671771484375 3.4846796875  18.5935458984375 4.4064541015625  C 19.5153203125 5.328228515625  20.23883203125 6.401232421875  20.7440234375 7.595615234375  C 21.266734375 8.8314384765625  21.5317734375 10.14506640625  21.5317734375 11.5  C 21.5317734375 12.85493359375  21.266734375 14.1685615234375  20.7440234375 15.404384765625  Z " fill-rule="nonzero" fill="#d81e06" stroke="none" transform="matrix(1 0 0 1 237 239 )" />
  </g>
</svg>