<?xml version="1.0" encoding="utf-8"?>
<svg version="1.1" xmlns:xlink="http://www.w3.org/1999/xlink" width="15px" height="15px" xmlns="http://www.w3.org/2000/svg">
  <g transform="matrix(1 0 0 1 -241 -243 )">
    <path d="M 2.120470703125 11.3940302734375  C 1.7578388671875 12.522625  1.27427734375 13.3480419921875  0.669853515625 13.872212890625  C 1.2336904296875 13.9119013671875  1.697396484375 14.0327412109375  2.06005078125 14.2348671875  C 2.341486328125 13.790994140625  2.6644970703125 13.12709375  3.0271513671875 12.2402236328125  C 3.0668173828125 12.0796953125  3.167869140625 11.93801171875  3.32936328125 11.817126953125  C 3.409638671875 11.817126953125  3.450248046875 11.7972939453125  3.450248046875 11.756662109375  C 3.32936328125 11.63577734375  2.8854677734375 11.5149150390625  2.120470703125 11.3940302734375  Z M 14.3301689453125 13.267744140625  C 13.8862734375 12.8248369140625  13.141109375 12.058896484375  12.0937333984375 10.9709111328125  L 10.9453056640625 11.5753349609375  C 11.8311650390625 12.341275390625  12.5366630859375 13.186525390625  13.060833984375 14.1140048828125  L 14.3301689453125 13.267744140625  Z M 10.763978515625 10.124740234375  C 11.1677014083225 10.1248134827212  11.5711734272286 10.104618142174  11.97287109375 10.06423046875  C 12.37519140625 10.4675390625  12.637759765625 10.769728515625  12.7586220703125 10.9709111328125  L 13.72572265625 10.1851376953125  C 12.798310546875 9.4201630859375  12.0729794921875 8.815716796875  11.5497744140625 8.37184375  C 11.6300048828125 8.412453125  11.7915439453125 8.4322861328125  12.033291015625 8.4322861328125  C 12.27510546875 8.4728955078125  12.45641015625 8.49268359375  12.5772724609375 8.49268359375  C 12.4960986328125 8.21129296875  12.476265625 7.6068466796875  12.5168525390625 6.6793896484375  L 12.5168525390625 5.1683076171875  C 12.476265625 4.4835859375  12.5168525390625 3.9802138671875  12.637759765625 3.657203125  C 12.3147265625 3.738421875  11.6904921875 3.75827734375  10.7640009765625 3.7176455078125  L 8.04400390625 3.7176455078125  L 8.04400390625 2.8714296875  L 11.7310791015625 2.8714296875  C 12.5366630859375 2.8714296875  13.2620166015625 2.9120390625  13.907072265625 2.9923369140625  L 13.907072265625 1.723001953125  C 13.2214072265625 1.8439091796875  12.476265625 1.9043515625  11.6706591796875 1.9043515625  L 8.04400390625 1.9043515625  C 8.04400390625 1.4613994140625  8.124279296875 1.0987451171875  8.2857958984375 0.816343749999996  C 8.366048828125 0.776677734374997  8.406703125 0.736068359374996  8.406703125 0.695458984374996  C 8.366048828125 0.655792968749997  8.2045771484375 0.615183593749996  7.9231416015625 0.574551757812496  C 7.640740234375 0.574551757812496  7.2780859375 0.554741210937496  6.8351337890625 0.514131835937496  C 6.915431640625 0.876786132812496  6.9352646484375 1.3405146484375  6.8955986328125 1.9043515625  L 3.4502705078125 1.9043515625  C 2.401951171875 1.9043515625  1.6766201171875 1.8439091796875  1.2742998046875 1.723001953125  L 1.2742998046875 2.93189453125  C 1.475482421875 2.892228515625  2.2206240234375 2.8714521484375  3.5107353515625 2.8714521484375  L 6.8955986328125 2.8714521484375  L 6.8955986328125 3.71766796875  L 4.1756015625 3.71766796875  C 3.24814453125 3.71766796875  2.7041630859375 3.6978349609375  2.5436123046875 3.6572255859375  L 2.5436123046875 3.7781103515625  C 2.6238876953125 4.261671875  2.6644970703125 4.7055673828125  2.6644970703125 5.107865234375  L 2.6644970703125 6.800296875  C 2.6238876953125 7.3650771484375  2.5832783203125 7.808029296875  2.5436123046875 8.1300966796875  L 2.5436123046875 8.492728515625  L 3.0876162109375 8.492728515625  C 3.4096611328125 8.4530849609375  3.812947265625 8.4124755859375  4.296486328125 8.3718662109375  L 6.895576171875 8.3718662109375  L 6.895576171875 9.2785244140625  C 5.7677419312437 9.31895984397561  4.63927174051457 9.33911056251079  3.510712890625 9.338966796875  C 2.46237109375 9.338966796875  1.67659765625 9.2992783203125  1.153392578125 9.2180595703125  C 1.354552734375 9.7015986328125  1.49529296875 10.1653046875  1.57651171875 10.608279296875  C 1.777671875 10.4873720703125  4.8404677734375 10.32684375  10.763978515625 10.124740234375  Z M 6.895576171875 6.4980625  L 6.895576171875 7.465185546875  L 3.812947265625 7.465185546875  L 3.812947265625 6.4980625  L 6.895576171875 6.4980625  Z M 6.895576171875 4.6243037109375  L 6.895576171875 5.6518466796875  L 3.812947265625 5.6518466796875  L 3.812947265625 4.6243037109375  L 6.895576171875 4.6243037109375  Z M 8.04400390625 5.6518466796875  L 8.04400390625 4.6243037109375  L 11.368447265625 4.6243037109375  L 11.368447265625 5.6518466796875  L 8.04400390625 5.6518466796875  Z M 8.04400390625 7.465185546875  L 8.04400390625 6.4980625  L 11.368447265625 6.4980625  L 11.368447265625 7.465185546875  L 8.04400390625 7.465185546875  Z M 8.04400390625 9.2180146484375  L 8.04400390625 8.3718212890625  L 11.2475400390625 8.3718212890625  L 10.522208984375 8.8553603515625  L 11.18709765625 9.2180146484375  L 8.04400390625 9.2180146484375  Z M 11.489287109375 12.6633203125  C 10.965138671875 12.6633203125  10.501455078125 12.4215732421875  10.09908984375 11.93801171875  C 10.1387783203125 13.06662890625  9.57494140625 13.5492021484375  8.4066806640625 13.388673828125  L 6.593341796875 13.388673828125  C 5.747103515625 13.42833984375  5.3844716796875 13.2272021484375  5.5053564453125 12.7842275390625  L 5.5053564453125 12.058896484375  C 5.5053564453125 11.656576171875  5.60546484375 11.374197265625  5.807568359375 11.2126806640625  L 5.8680107421875 11.15223828125  C 5.5856318359375 11.0719853515625  5.0416279296875 11.01154296875  4.236021484375 10.97093359375  L 4.236021484375 11.3336103515625  C 4.236021484375 11.53569140625  4.2558544921875 11.756662109375  4.2964638671875 11.9984990234375  L 4.2964638671875 13.146904296875  C 4.1349697265625 14.1140498046875  4.940576171875 14.5569345703125  6.7142265625 14.4766591796875  L 8.648427734375 14.4766591796875  C 9.5749189453125 14.4766591796875  10.1991982421875 14.3557744140625  10.5221865234375 14.11402734375  C 10.88486328125 13.9119013671875  11.206908203125 13.42833984375  11.489287109375 12.6633203125  Z " fill-rule="nonzero" fill="#d81e06" stroke="none" transform="matrix(1 0 0 1 241 243 )" />
  </g>
</svg>