<?xml version="1.0" encoding="utf-8"?>
<svg version="1.1" xmlns:xlink="http://www.w3.org/1999/xlink" width="25px" height="25px" xmlns="http://www.w3.org/2000/svg">
  <g transform="matrix(1 0 0 1 -535 -220 )">
    <path d="M 24.259765625 12.57119140625  C 24.259765625 19.07228515625  18.951787109375 24.3916015625  12.464404296875 24.3916015625  C 5.9767578125 24.3916015625  0.66904296875 19.07228515625  0.66904296875 12.57119140625  C 0.66904296875 6.07009765625  5.9767578125 0.751044921875  12.464404296875 0.751044921875  C 18.95205078125 0.751044921875  24.259765625 6.07009765625  24.259765625 12.57119140625  Z M 16.269716796875 21.6388671875  L 16.2705078125 21.639130859375  C 18.6279245233827 20.6296138879398  20.5044064365555 18.7486922742929  21.508349609375 16.388896484375  C 22.5401718219124 13.948337357709  22.5401718219124 11.194045454791  21.508349609375 8.753486328125  C 20.5046371004423 6.39353502396725  18.6280805822867 4.51253862882434  16.2705078125 3.503251953125  C 13.838770397976 2.47035135354244  11.091620227024 2.47035135354244  8.6598828125 3.503251953125  C 6.30157318284822 4.51199620450617  4.42434019295978 6.39310250487649  3.420458984375 8.753486328125  C 2.38863677183761 11.194045454791  2.38863677183761 13.948337357709  3.420458984375 16.388896484375  C 4.42427716305233 18.7489879842019  6.30117600948169 20.6299489732926  8.659091796875 21.6388671875  C 11.0908663338153 22.6715854205619  13.8379422599347 22.6715854205619  16.269716796875 21.6388671875  Z " fill-rule="nonzero" fill="#949da6" stroke="none" transform="matrix(1 0 0 1 535 220 )" />
  </g>
</svg>