<?xml version="1.0" encoding="utf-8"?>
<svg version="1.1" xmlns:xlink="http://www.w3.org/1999/xlink" width="139px" height="30px" xmlns="http://www.w3.org/2000/svg">
  <g transform="matrix(1 0 0 1 -369 -94 )">
    <path d="M 370 96  A 1 1 0 0 1 371 95 L 506 95  A 1 1 0 0 1 507 96 L 507 122  A 1 1 0 0 1 506 123 L 371 123  A 1 1 0 0 1 370 122 L 370 96  Z " fill-rule="nonzero" fill="#ffffff" stroke="none" />
    <path d="M 369.5 96  A 1.5 1.5 0 0 1 371 94.5 L 506 94.5  A 1.5 1.5 0 0 1 507.5 96 L 507.5 122  A 1.5 1.5 0 0 1 506 123.5 L 371 123.5  A 1.5 1.5 0 0 1 369.5 122 L 369.5 96  Z " stroke-width="1" stroke="#797979" fill="none" stroke-opacity="0.0980392156862745" />
  </g>
</svg>