<?xml version="1.0" encoding="utf-8"?>
<svg version="1.1" xmlns:xlink="http://www.w3.org/1999/xlink" width="273px" height="155px" xmlns="http://www.w3.org/2000/svg">
  <g transform="matrix(1 0 0 1 -275 -78 )">
    <path d="M 0 152.686567164179  L 0 6.94029850746269  C 0 5.64477611940298  0.879999999999995 4.62686567164179  2 5  L 192.333333333333 5  L 200.40350877193 4.62686567164179  L 210.228070175438 5  L 226.719298245614 5  L 238.428571428571 4.62686567164179  L 247.019801980198 0.0916211024087731  L 250.648351648352 4.62686567164179  L 259.43956043956 5  L 271 5  C 272.12 4.62686567164179  273 5.64477611940298  273 6.94029850746269  L 273 152.686567164179  C 273 153.982089552239  272.12 155  271 155  L 2 155  C 0.879999999999995 155  0 153.982089552239  0 152.686567164179  Z " fill-rule="nonzero" fill="#ffffff" stroke="none" transform="matrix(1 0 0 1 275 78 )" />
  </g>
</svg>