<?xml version="1.0" encoding="utf-8"?>
<svg version="1.1" xmlns:xlink="http://www.w3.org/1999/xlink" width="146px" height="48px" xmlns="http://www.w3.org/2000/svg">
  <g transform="matrix(1 0 0 1 -369 -134 )">
    <path d="M 370 136  A 1 1 0 0 1 371 135 L 513 135  A 1 1 0 0 1 514 136 L 514 180  A 1 1 0 0 1 513 181 L 371 181  A 1 1 0 0 1 370 180 L 370 136  Z " fill-rule="nonzero" fill="#ffffff" stroke="none" />
    <path d="M 369.5 136  A 1.5 1.5 0 0 1 371 134.5 L 513 134.5  A 1.5 1.5 0 0 1 514.5 136 L 514.5 180  A 1.5 1.5 0 0 1 513 181.5 L 371 181.5  A 1.5 1.5 0 0 1 369.5 180 L 369.5 136  Z " stroke-width="1" stroke="#797979" fill="none" stroke-opacity="0.0980392156862745" />
  </g>
</svg>