<?xml version="1.0" encoding="utf-8"?>
<svg version="1.1" xmlns:xlink="http://www.w3.org/1999/xlink" width="97px" height="41px" xmlns="http://www.w3.org/2000/svg">
  <g transform="matrix(1 0 0 1 -300 -84 )">
    <path d="M 301 86  A 1 1 0 0 1 302 85 L 395 85  A 1 1 0 0 1 396 86 L 396 123  A 1 1 0 0 1 395 124 L 302 124  A 1 1 0 0 1 301 123 L 301 86  Z " fill-rule="nonzero" fill="#ffffff" stroke="none" />
    <path d="M 300.5 86  A 1.5 1.5 0 0 1 302 84.5 L 395 84.5  A 1.5 1.5 0 0 1 396.5 86 L 396.5 123  A 1.5 1.5 0 0 1 395 124.5 L 302 124.5  A 1.5 1.5 0 0 1 300.5 123 L 300.5 86  Z " stroke-width="1" stroke="#797979" fill="none" stroke-opacity="0.0980392156862745" />
  </g>
</svg>