<?xml version="1.0" encoding="utf-8"?>
<svg version="1.1" xmlns:xlink="http://www.w3.org/1999/xlink" width="19px" height="19px" xmlns="http://www.w3.org/2000/svg">
  <g transform="matrix(1 0 0 1 -759 -872 )">
    <path d="M 9.46675 0.390255681818182  L 9.46675 0.389014204545454  C 4.57269371204475 0.389699788551602  0.605624956064854 4.53764565302368  0.605625 9.65415909090909  C 0.605625 14.7711573166205  4.57341745801519 18.9193039772727  9.4679375 18.9193039772727  C 14.3624575419848 18.9193039772727  18.33025 14.7711573166205  18.33025 9.65415909090909  C 18.3295942679351 4.53764569894537  14.361993911443 0.390255598631554  9.4679375795485 0.390255598631554  C 9.46754171970005 0.390255598631554  9.4671458598449 0.39025562636043  9.46675 0.390255681818182  Z M 17.0147972012367 9.65415909090909  C 17.0147972012367 14.0352559883424  13.6567167243391 17.6082510599155  9.46675 17.6852755681818  C 5.27678327566086 17.6082510599155  1.91870279876327 14.0352559883424  1.91870279876327 9.65415909090909  C 1.91870279876327 5.27306219347583  5.27678327566086 1.70006712190271  9.46675 1.62304261363636  C 13.6567167243391 1.70006712190271  17.0147972012367 5.27306219347583  17.0147972012367 9.65415909090909  Z M 13.307125 10.2711732954545  L 13.3083125 10.2711732954545  L 9.46675 10.2711732954545  L 9.46675 6.25623579545455  C 9.46610489380457 6.08627277076751  9.33481941564131 5.94846633135384  9.17225 5.94710795454546  L 8.580875 5.94710795454546  C 8.4183055843587 5.94846633135384  8.28702010619543 6.08627277076751  8.286375 6.25623579545455  L 8.286375 11.1973153409091  C 8.28702010619543 11.3672783655961  8.4183055843587 11.5050848050098  8.580875 11.5064431818182  L 13.307125 11.5064431818182  C 13.4706219048616 11.5064445492523  13.6033460123858 11.3682425558358  13.604 11.1973153409091  L 13.604 10.5803011363636  C 13.6040016220082 10.5798839685596  13.6040024330148 10.579466797741  13.6040024330148 10.5790496264905  C 13.6040024330148 10.4090086831733  13.47215029184 10.2711632628541  13.3095024330148 10.2711632628541  C 13.3087099456595 10.2711632628541  13.3079174615318 10.2711666070815  13.307125 10.2711732954545  Z " fill-rule="nonzero" fill="#8a8a8a" stroke="none" transform="matrix(1 0 0 1 759 872 )" />
  </g>
</svg>