<?xml version="1.0" encoding="utf-8"?>
<svg version="1.1" xmlns:xlink="http://www.w3.org/1999/xlink" width="320px" height="32px" xmlns="http://www.w3.org/2000/svg">
  <defs>
    <mask fill="white" id="clip13">
      <path d="M 0 28  L 0 4  C 0 1.76000000000001  1.75999999999999 0  4 0  L 316 0  C 318.24 0  320 1.76000000000001  320 4  L 320 28  C 320 30.24  318.24 32  316 32  L 41.8219178082192 32  L 4 32  C 1.75999999999999 32  0 30.24  0 28  Z " fill-rule="evenodd" />
    </mask>
  </defs>
  <g transform="matrix(1 0 0 1 -216 -85 )">
    <path d="M 0 28  L 0 4  C 0 1.76000000000001  1.75999999999999 0  4 0  L 316 0  C 318.24 0  320 1.76000000000001  320 4  L 320 28  C 320 30.24  318.24 32  316 32  L 41.8219178082192 32  L 4 32  C 1.75999999999999 32  0 30.24  0 28  Z " fill-rule="nonzero" fill="#ffffff" stroke="none" transform="matrix(1 0 0 1 216 85 )" />
    <path d="M 0 28  L 0 4  C 0 1.76000000000001  1.75999999999999 0  4 0  L 316 0  C 318.24 0  320 1.76000000000001  320 4  L 320 28  C 320 30.24  318.24 32  316 32  L 41.8219178082192 32  L 4 32  C 1.75999999999999 32  0 30.24  0 28  Z " stroke-width="2" stroke="#d9d9d9" fill="none" transform="matrix(1 0 0 1 216 85 )" mask="url(#clip13)" />
  </g>
</svg>