<?xml version="1.0" encoding="utf-8"?>
<svg version="1.1" xmlns:xlink="http://www.w3.org/1999/xlink" width="319px" height="32px" xmlns="http://www.w3.org/2000/svg">
  <defs>
    <mask fill="white" id="clip14">
      <path d="M 0 28  L 0 4  C 0 1.76000000000001  1.75449999999999 0  3.9875 0  L 315.0125 0  C 317.2455 0  319 1.76000000000001  319 4  L 319 28  C 319 30.24  317.2455 32  315.0125 32  L 41.6912243150685 32  L 3.9875 32  C 1.75449999999999 32  0 30.24  0 28  Z " fill-rule="evenodd" />
    </mask>
  </defs>
  <g transform="matrix(1 0 0 1 -216 -385 )">
    <path d="M 0 28  L 0 4  C 0 1.76000000000001  1.75449999999999 0  3.9875 0  L 315.0125 0  C 317.2455 0  319 1.76000000000001  319 4  L 319 28  C 319 30.24  317.2455 32  315.0125 32  L 41.6912243150685 32  L 3.9875 32  C 1.75449999999999 32  0 30.24  0 28  Z " fill-rule="nonzero" fill="#ffffff" stroke="none" transform="matrix(1 0 0 1 216 385 )" />
    <path d="M 0 28  L 0 4  C 0 1.76000000000001  1.75449999999999 0  3.9875 0  L 315.0125 0  C 317.2455 0  319 1.76000000000001  319 4  L 319 28  C 319 30.24  317.2455 32  315.0125 32  L 41.6912243150685 32  L 3.9875 32  C 1.75449999999999 32  0 30.24  0 28  Z " stroke-width="2" stroke="#d9d9d9" fill="none" transform="matrix(1 0 0 1 216 385 )" mask="url(#clip14)" />
  </g>
</svg>