<?xml version="1.0" encoding="utf-8"?>
<svg version="1.1" xmlns:xlink="http://www.w3.org/1999/xlink" width="221px" height="172px" xmlns="http://www.w3.org/2000/svg">
  <defs>
    <mask fill="white" id="clip9">
      <path d="M 0 160  L 0 9  C 0 6.76  1.76 5  4 5  L 18.2360801781737 5  L 23.8243243243243 0.932432432432421  L 28.0356347438753 5  L 35.8307349665924 5  L 42.7692307692308 5  L 209 5  C 211.24 5  213 6.76  213 9  L 213 160  C 213 162.24  211.24 164  209 164  L 4 164  C 1.76 164  0 162.24  0 160  Z " fill-rule="evenodd" />
    </mask>
    <filter x="-4px" y="31px" width="221px" height="172px" filterUnits="userSpaceOnUse" id="filter10">
      <feOffset dx="0" dy="0" in="SourceAlpha" result="shadowOffsetInner" />
      <feGaussianBlur stdDeviation="2" in="shadowOffsetInner" result="shadowGaussian" />
      <feComposite in2="shadowGaussian" operator="atop" in="SourceAlpha" result="shadowComposite" />
      <feColorMatrix type="matrix" values="0 0 0 0 0.850980392156863  0 0 0 0 0.850980392156863  0 0 0 0 0.850980392156863  0 0 0 0.988235294117647 0  " in="shadowComposite" />
    </filter>
    <g id="widget11">
      <path d="M 0 160  L 0 9  C 0 6.76  1.76 5  4 5  L 18.2360801781737 5  L 23.8243243243243 0.932432432432421  L 28.0356347438753 5  L 35.8307349665924 5  L 42.7692307692308 5  L 209 5  C 211.24 5  213 6.76  213 9  L 213 160  C 213 162.24  211.24 164  209 164  L 4 164  C 1.76 164  0 162.24  0 160  Z " fill-rule="nonzero" fill="#ffffff" stroke="none" transform="matrix(1 0 0 1 0 35 )" />
      <path d="M 0 160  L 0 9  C 0 6.76  1.76 5  4 5  L 18.2360801781737 5  L 23.8243243243243 0.932432432432421  L 28.0356347438753 5  L 35.8307349665924 5  L 42.7692307692308 5  L 209 5  C 211.24 5  213 6.76  213 9  L 213 160  C 213 162.24  211.24 164  209 164  L 4 164  C 1.76 164  0 162.24  0 160  Z " stroke-width="2" stroke="#d9d9d9" fill="none" transform="matrix(1 0 0 1 0 35 )" mask="url(#clip9)" />
    </g>
  </defs>
  <g transform="matrix(1 0 0 1 4 -31 )">
    <use xlink:href="#widget11" filter="url(#filter10)" />
    <use xlink:href="#widget11" />
  </g>
</svg>