<?xml version="1.0" encoding="utf-8"?>
<svg version="1.1" xmlns:xlink="http://www.w3.org/1999/xlink" width="182px" height="51px" xmlns="http://www.w3.org/2000/svg">
  <g transform="matrix(1 0 0 1 -1189 -625 )">
    <path d="M 1190 627  A 1 1 0 0 1 1191 626 L 1369 626  A 1 1 0 0 1 1370 627 L 1370 674  A 1 1 0 0 1 1369 675 L 1191 675  A 1 1 0 0 1 1190 674 L 1190 627  Z " fill-rule="nonzero" fill="#f2f2f2" stroke="none" fill-opacity="0" />
    <path d="M 1189.5 627  A 1.5 1.5 0 0 1 1191 625.5 L 1369 625.5  A 1.5 1.5 0 0 1 1370.5 627 L 1370.5 674  A 1.5 1.5 0 0 1 1369 675.5 L 1191 675.5  A 1.5 1.5 0 0 1 1189.5 674 L 1189.5 627  Z " stroke-width="1" stroke="#797979" fill="none" stroke-opacity="0.0980392156862745" />
  </g>
</svg>