<?xml version="1.0" encoding="utf-8"?>
<svg version="1.1" xmlns:xlink="http://www.w3.org/1999/xlink" width="15px" height="15px" xmlns="http://www.w3.org/2000/svg">
  <g transform="matrix(1 0 0 1 -43 -94 )">
    <path d="M 5.68495075612916 1.14623150785565  L 0.947491790529195 1.14623150785565  L 0.947491790529195 7.5  L 5.68495075612916 7.5  L 5.68495075612916 1.14623150785565  Z M 0 1.14623150785565  C 0 0.561383268827191  0.424206524030048 0.0872700949112549  0.947491790529195 0.0872700949112549  L 5.68495075612916 0.0872700949112549  C 6.2082360226283 0.0872700949112549  6.63244254665835 0.561383268827191  6.63244254665835 1.14623150785565  L 6.63244254665835 7.5  C 6.63244254665835 8.08484823902846  6.2082360226283 8.55896141294439  5.68495075612916 8.55896141294439  L 0.947491790529195 8.55896141294439  C 0.424206524030048 8.55896141294439  0 8.08484823902846  0 7.5  L 0 1.14623150785565  Z M 13.2648850933167 7.5  L 8.52742612771674 7.5  L 8.52742612771674 13.8537684921444  L 13.2648850933167 13.8537684921444  L 13.2648850933167 7.5  Z M 8.52742612771674 6.44103858705561  L 13.2648850933167 6.44103858705561  C 13.7881703598158 6.44103858705561  14.2123768838459 6.91515176097154  14.2123768838459 7.5  L 14.2123768838459 13.8537684921444  C 14.2123768838459 14.4386167311728  13.7881703598158 14.9127299050887  13.2648850933167 14.9127299050887  L 8.52742612771674 14.9127299050887  C 8.00414086121759 14.9127299050887  7.57993433718754 14.4386167311728  7.57993433718755 13.8537684921444  L 7.57993433718754 7.5  C 7.57993433718754 6.91515176097154  8.00414086121759 6.44103858705561  8.52742612771674 6.44103858705561  Z M 13.2648850933167 1.14623150785565  L 8.52742612771674 1.14623150785565  L 8.52742612771674 4.32311576116682  L 13.2648850933167 4.32311576116682  L 13.2648850933167 1.14623150785565  Z M 8.52742612771674 0.0872700949112549  L 13.2648850933167 0.0872700949112549  C 13.7881703598158 0.0872700949112549  14.2123768838459 0.561383268827191  14.2123768838459 1.14623150785565  L 14.2123768838459 4.32311576116682  C 14.2123768838459 4.90796400019528  13.7881703598158 5.38207717411121  13.2648850933167 5.38207717411121  L 8.52742612771674 5.38207717411121  C 8.00414086121759 5.38207717411121  7.57993433718754 4.90796400019528  7.57993433718755 4.32311576116682  L 7.57993433718754 1.14623150785565  C 7.57993433718754 0.561383268827191  8.00414086121759 0.0872700949112549  8.52742612771674 0.0872700949112549  Z M 5.68495075612916 10.6768842388332  L 0.947491790529195 10.6768842388332  L 0.947491790529195 13.8537684921444  L 5.68495075612916 13.8537684921444  L 5.68495075612916 10.6768842388332  Z M 0 10.6768842388332  C 0 10.0920359998047  0.424206524030048 9.61792282588879  0.947491790529195 9.61792282588879  L 5.68495075612916 9.61792282588879  C 6.2082360226283 9.61792282588879  6.63244254665835 10.0920359998047  6.63244254665835 10.6768842388332  L 6.63244254665835 13.8537684921444  C 6.63244254665835 14.4386167311728  6.2082360226283 14.9127299050887  5.68495075612916 14.9127299050887  L 0.947491790529195 14.9127299050887  C 0.424206524030048 14.9127299050887  0 14.4386167311728  0 13.8537684921444  L 0 10.6768842388332  Z " fill-rule="nonzero" fill="#8a8a8a" stroke="none" transform="matrix(1 0 0 1 43 94 )" />
  </g>
</svg>