<?xml version="1.0" encoding="utf-8"?>
<svg version="1.1" xmlns:xlink="http://www.w3.org/1999/xlink" width="90px" height="89px" xmlns="http://www.w3.org/2000/svg">
  <g transform="matrix(1 0 0 1 -970 -127 )">
    <path d="M 1015 127  C 1040.2 127  1060 146.58  1060 171.5  C 1060 196.42  1040.2 216  1015 216  C 989.8 216  970 196.42  970 171.5  C 970 146.58  989.8 127  1015 127  Z " fill-rule="nonzero" fill="#e9e9e9" stroke="none" />
    <path d="M 1015 127.5  C 1039.92 127.5  1059.5 146.86  1059.5 171.5  C 1059.5 196.14  1039.92 215.5  1015 215.5  C 990.08 215.5  970.5 196.14  970.5 171.5  C 970.5 146.86  990.08 127.5  1015 127.5  Z " stroke-width="1" stroke="#ffffff" fill="none" />
  </g>
</svg>