<?xml version="1.0" encoding="utf-8"?>
<svg version="1.1" xmlns:xlink="http://www.w3.org/1999/xlink" width="90px" height="89px" xmlns="http://www.w3.org/2000/svg">
  <g transform="matrix(1 0 0 1 -970 -127 )">
    <path d="M 1011.02808517898 127.675607615656  C 1012.3486659349 127.55857508657  1013.67396136949 127.5  1015 127.5  C 1039.57356864416 127.5  1059.5 147.196402758835  1059.5 171.5  C 1059.5 195.803597241165  1039.57356864416 215.5  1015 215.5  C 1013.04468098766 215.5  1011.09166068638 215.37263877858  1009.1536476117 215.118636103952  L 1015.49478174667 171.572048755464  A 0.5 0.5 0 0 0 1015.49741404723 171.449213529149 L 1011.02808517893 127.67560761566  Z " fill-rule="nonzero" fill="#99d5fd" stroke="none" />
    <path d="M 1011.02808517898 127.675607615656  C 1012.3486659349 127.55857508657  1013.67396136949 127.5  1015 127.5  C 1039.57356864416 127.5  1059.5 147.196402758835  1059.5 171.5  C 1059.5 195.803597241165  1039.57356864416 215.5  1015 215.5  C 1013.04468098766 215.5  1011.09166068638 215.37263877858  1009.1536476117 215.118636103952  L 1015.49478174667 171.572048755464  A 0.5 0.5 0 0 0 1015.49741404723 171.449213529149 L 1011.02808517893 127.67560761566  Z " stroke-width="1" stroke="#ffffff" fill="none" />
  </g>
</svg>