<?xml version="1.0" encoding="utf-8"?>
<svg version="1.1" xmlns:xlink="http://www.w3.org/1999/xlink" width="55px" height="53px" xmlns="http://www.w3.org/2000/svg">
  <g transform="matrix(1 0 0 1 -988 -145 )">
    <path d="M 1015.5 145  C 1030.9 145  1043 156.66  1043 171.5  C 1043 186.34  1030.9 198  1015.5 198  C 1000.1 198  988 186.34  988 171.5  C 988 156.66  1000.1 145  1015.5 145  Z " fill-rule="nonzero" fill="#ffffff" stroke="none" />
    <path d="M 1015.5 145.5  C 1030.62 145.5  1042.5 156.94  1042.5 171.5  C 1042.5 186.06  1030.62 197.5  1015.5 197.5  C 1000.38 197.5  988.5 186.06  988.5 171.5  C 988.5 156.94  1000.38 145.5  1015.5 145.5  Z " stroke-width="1" stroke="#ffffff" fill="none" />
  </g>
</svg>