<?xml version="1.0" encoding="utf-8"?>
<svg version="1.1" xmlns:xlink="http://www.w3.org/1999/xlink" width="90px" height="89px" xmlns="http://www.w3.org/2000/svg">
  <g transform="matrix(1 0 0 1 -1277 -127 )">
    <path d="M 1318.02808517898 127.675607615656  C 1319.3486659349 127.55857508657  1320.67396136949 127.5  1322 127.5  C 1346.57356864416 127.5  1366.5 147.196402758835  1366.5 171.5  C 1366.5 195.803597241165  1346.57356864416 215.5  1322 215.5  C 1305.79517807112 215.5  1290.88315854018 206.792919845006  1283.0558654627 192.789716019806  L 1322.23488040272 171.941396869516  A 0.5 0.5 0 0 0 1322.49741404723 171.449213529149 L 1318.02808517893 127.67560761566  Z " fill-rule="nonzero" fill="#70b603" stroke="none" />
    <path d="M 1318.02808517898 127.675607615656  C 1319.3486659349 127.55857508657  1320.67396136949 127.5  1322 127.5  C 1346.57356864416 127.5  1366.5 147.196402758835  1366.5 171.5  C 1366.5 195.803597241165  1346.57356864416 215.5  1322 215.5  C 1305.79517807112 215.5  1290.88315854018 206.792919845006  1283.0558654627 192.789716019806  L 1322.23488040272 171.941396869516  A 0.5 0.5 0 0 0 1322.49741404723 171.449213529149 L 1318.02808517893 127.67560761566  Z " stroke-width="1" stroke="#ffffff" fill="none" />
  </g>
</svg>