<?xml version="1.0" encoding="utf-8"?>
<svg version="1.1" xmlns:xlink="http://www.w3.org/1999/xlink" width="35px" height="35px" xmlns="http://www.w3.org/2000/svg">
  <g transform="matrix(1 0 0 1 -202 -406 )">
    <path d="M 0 17.5  C 0 7.83533334472656  7.83533334472656 0  17.5 0  C 27.1646666552734 0  35 7.83533334472656  35 17.5  C 35 27.1646666552734  27.1646666552734 35  17.5 35  C 7.83533334472656 35  0 27.1646666552734  0 17.5  Z M 17.4755 7.01516665527343  L 17.4766666552734 7.01516665527344  C 16.9515359126983 7.01516667415035  16.5258333447266 7.44086925742491  16.5258333447266 7.966  L 16.5258333447266 9.86766665527344  L 15.575 9.86766665527344  L 15.575 8.91683334472656  C 15.5749004500452 8.39177299874535  15.1492270277817 7.96618027530655  14.6241666723633 7.96618027530655  C 14.0991063169449 7.96618027530655  13.6734328946814 8.39177299874535  13.6733333447266 8.91683334472656  L 13.6733333447266 9.86766665527344  L 12.7213333447266 9.86766665527344  C 12.7213333447266 9.34253589935035  12.2956307559231 8.91683331054687  11.7705 8.91683331054687  C 11.2453692440769 8.91683331054687  10.8196666552734 9.34253589935035  10.8196666552734 9.86766665527344  C 10.8192777105293 9.86766653594809  10.8188887657744 9.86766647628541  10.818499821012 9.86766647628541  C 8.71797681619655 9.86766647628541  7.01516647628541 11.5704768161966  7.01516647628541 13.670999821012  C 7.01516647628541 13.6713887657708  7.01516653594809 13.6717777105329  7.01516665527344 13.6721666552734  L 7.01516665527344 20.3303333447266  C 7.01516665527344 22.4303333447266  8.7185 24.1336666894531  10.8185 24  L 21.196 24  C 20.3175 25.2886666552734  18.9653333447266 26.0365  17.4766666552734 26.0365  C 16.3091243729579 26.0409156389071  15.1748146667964 25.6480009641494  14.2601666552734 24.9223333447266  C 14.0925159185453 24.7905143557178  13.8854341290916 24.7188524835044  13.6721666552734 24.7188524835044  C 13.146770336469 24.7188524835044  12.7208524664146 25.1447703535589  12.7208524664146 25.6701666723633  C 12.7208524664146 25.961972849922  12.8547762106187 26.2376368408944  13.0841666552734 26.418  C 14.3340165456158 27.4075148669089  15.8825386524428 27.943842315096  17.4766666552734 27.9393333447266  C 20.0585 27.9393333447266  22.3195 26.3783333447266  23.4208333447266 24.1348333447266  L 24.1348333447266 24.1348333447266  C 26.2348333447266 24.1348333447266  27.9381666894531 22.4315  27.9381666552734 20.3303333447266  L 27.9381666552734 13.6721666552734  C 27.9381666552734 11.5721666552734  26.2348333105469 9.86883331054687  24.1348333447266 9.86883334472656  L 21.28 9.86883334472656  L 21.28 8.91683334472656  C 21.2800000170898 8.39152231349692  20.8542974282864 7.96581972469345  20.3291666723633 7.96581972469345  C 19.8040359164402 7.96581972469345  19.3783333276367 8.39152231349692  19.3783333276367 8.91665306942001  L 19.3783333447266 9.86766665527343  L 18.4263333447266 9.86766665527343  L 18.4263333447266 7.96599999999999  C 18.4263333447266 7.44086924407691  18.0006307559231 7.01516665527343  17.4755 7.01516665527343  Z M 14.617504561483 14.003833728201  C 14.617504561483 13.6048072126655  14.8666469357018 13.2482306634558  15.2413333447266 13.111  C 15.5619247624318 12.9926582843203  15.9213643825142 13.0554600023273  16.1828333447266 13.2755  L 17.4778333447266 14.3488333447266  L 18.7518333447266 13.2801666552734  L 18.8556666552734 13.2031666552734  C 19.008310444128 13.1059299240043  19.1855350935714 13.0542772725522  19.3665188171042 13.0542772725522  C 19.8916495730273 13.0542772725522  20.3173521618308 13.4799798613556  20.3173521618308 14.0051106172787  C 20.3173521618308 14.2876299681011  20.1917173266898 14.5555183323506  19.9745 14.7361666552734  L 18.977 15.575  L 20.3303333447266 15.575  L 20.4563333447266 15.5831666552734  C 20.9293047981377 15.6455535706924  21.2828248192101 16.0487664981552  21.2828248192101 16.5258347563294  C 21.2828248192101 17.0509655122524  20.8571222304066 17.4766681010559  20.3319914744835 17.4766681010559  C 20.3314387642486 17.4766681010559  20.330886054121 17.4766676191282  20.3303333447266 17.4766666552734  L 18.438 17.4766666552734  L 18.4345 18.4275  L 20.3303333447266 18.4275  L 20.4563333447266 18.4368333447266  C 20.9293047981377 18.4992202601455  21.2828248192101 18.9024331876084  21.2828248192101 19.3795014457825  C 21.2828248192101 19.9046322017056  20.8571222304066 20.330334790509  20.3319914744835 20.330334790509  C 20.3314387642486 20.330334790509  20.330886054121 20.3303343085814  20.3303333447266 20.3303333447266  L 18.4286666552734 20.3303333447266  L 18.4286666552734 20.3338333447266  L 18.4193333447266 20.4598333447266  C 18.3569912588947 20.9328491425341  17.9537585165586 21.2864240913397  17.4766521545791 21.2864240913397  C 16.951521398656 21.2864240913397  16.5258188098525 20.8607215025362  16.5258188098525 20.3355907466131  C 16.5258188098525 20.3338382692718  16.525823654829 20.3320857952788  16.5258333447266 20.3303333447266  L 14.6241666552734 20.3303333447266  L 14.497 20.3221666552734  C 14.0196975510137 20.2642155397788  13.6607693604314 19.8590726464824  13.6607693604314 19.3782650346506  C 13.6607693604314 18.8531342787275  14.0864719492348 18.4274316899241  14.6116027051579 18.4274316899241  C 14.6154019057926 18.4274316899241  14.6192010723087 18.4274544603583  14.623 18.4275  L 16.5328333447266 18.4275  L 16.5363333447266 17.4766666552734  L 14.623 17.4766666552734  L 14.497 17.4685  C 14.0240285465889 17.4061130845811  13.6705085255165 17.0029001571182  13.6705085255165 16.5258318989441  C 13.6705085255165 16.000701143021  14.0962111143199 15.5749985542175  14.621341870243 15.5749985542175  C 14.6218945804766 15.5749985542175  14.6224472906068 15.5749990361452  14.623 15.575  L 15.9763333447266 15.575  L 14.9683333447266 14.7408333447266  L 14.875 14.6545  C 14.7095776396314 14.4782290021794  14.617504561483 14.2455691661958  14.617504561483 14.003833728201  Z " fill-rule="nonzero" fill="#d81e06" stroke="none" transform="matrix(1 0 0 1 202 406 )" />
  </g>
</svg>