<?xml version="1.0" encoding="utf-8"?>
<svg version="1.1" xmlns:xlink="http://www.w3.org/1999/xlink" width="15px" height="16px" xmlns="http://www.w3.org/2000/svg">
  <g transform="matrix(1 0 0 1 -473 -419 )">
    <path d="M 14.7571808149157 15.4600500796875  C 14.7571808149157 15.5968101515625  14.647767630808 15.7076653945313  14.5128235963199 15.7076653945313  L 0.490755027754934 15.7076654109375  C 0.355794430509868 15.7076654109375  0.246397809159128 15.596793384375  0.246397809159128 15.4600500960937  L 0.246397809159128 2.027880290625  C 0.246397809159128 1.891204153125  0.355794430509868 1.7802481921875  0.490755027754934 2  L 14.5128235963199 2  C 14.647784193565 1.7802481921875  14.7571808149157 1.89112021875  14.7571808149157 2.027880290625  L 14.7571808149157 15.4600500796875  Z M 13.6405997029194 3.0343746890625  C 13.6405997029194 2.917794534375  13.5482181329667 2.823308184375  13.4343482234272 3  L 1.59901915861431 3  C 1.48511612356085 2.82330820078125  1.39275111636513 2.917794534375  1.39275111636513 3.03437470546875  L 1.39275111636513 14.4853029726562  C 1.39275111636513 14.6018831273437  1.48513268631785 14.696436628125  1.59901915861431 14.696436628125  L 13.4343482234272 14.696436628125  C 13.5482181329667 14.696436628125  13.6405997029194 14.6018831273437  13.6405997029194 14.4853029726562  L 13.6405997029194 3.0343746890625  Z M 4.4121839401727 3.8468430328125  C 4.4121839401727 3.956758115625  4.30260507992393 4.04577135703125  4.16731311420641 4.04577135703125  L 3.31033152292352 4.04577135703125  C 3.1751389661287 4.04577135703125  3.06547727590461 3.956758115625  3.06547727590461 3.8468430328125  L 3.06547725971423 0.39876324140625  C 3.06547725971423 0.28891532578125  3.1751389661287 0.1998349171875  3.31033150673314 0.1998349171875  L 4.16731309801604 0.1998349171875  C 4.30260504754317 0.1998349171875  4.41218392398232 0.28891532578125  4.41218392398232 0.39876324140625  L 4.4121839401727 3.8468430328125  Z M 11.8601336996299 3.8468430328125  C 11.8601336996299 3.956758115625  11.7504719932155 4.04577135703125  11.615279452611 4.04577135703125  L 10.7582150151624 4.04577135703125  C 10.6230224583676 4.04577135703125  10.5133607681435 3.956758115625  10.5133607681435 3.8468430328125  L 10.5133607519531 0.39876324140625  C 10.5133607519531 0.28891532578125  10.6230224583676 0.1998349171875  10.758214998972 0.1998349171875  L 11.6152794364206 0.1998349171875  C 11.7504719932155 0.1998349171875  11.8601336834396 0.28891532578125  11.8601336834396 0.39876324140625  L 11.8601336996299 3.8468430328125  Z M 7.95606775364926 10.985212021875  C 8.07113053788034 11.1005162460938  8.07214115748355 11.2884312351563  7.95843694027549 11.4049442390625  L 7.27205310598273 12.1085048273437  C 7.15834888877467 12.2250010476562  6.97298929533306 12.2262098273437  6.85792651110197 12.110905603125  L 3.72985917943051 9.0600780703125  C 3.61481297414679 8.944857796875  3.61378577559622 8.75685885703125  3.72739058388158 8.64036263671875  L 4.41377441817434 7.9368020484375  C 4.52746207262541 7.82022189375  4.71292107498972 7.8191977828125  4.82796728027344 7.93445163984375  L 7.95606775364926 10.985212021875  Z M 10.4077250097656 6.47500035  C 10.5187452670127 6.355851534375  10.7041876904297 6.3504791765625  10.821669349558 6.4630468546875  L 11.5313971026933 7.14246541640625  C 11.6489947335012 7.2549155765625  11.6542964023951 7.4428809328125  11.543110469007 7.56197938125  L 8.05696513877467 11.3015095757812  C 7.94596144428454 11.4206583914062  7.7605190208676 11.4259468148438  7.64293795281661 11.3134630710938  L 6.93330960860403 10.6340780929688  C 6.81571197779605 10.5215943492188  6.81049313887747 10.3337465109375  6.9214968333676 10.2145305445313  L 10.4077250097656 6.47500035  Z " fill-rule="nonzero" fill="#ffffff" stroke="none" transform="matrix(1 0 0 1 473 419 )" />
  </g>
</svg>