<?xml version="1.0" encoding="utf-8"?>
<svg version="1.1" xmlns:xlink="http://www.w3.org/1999/xlink" width="19px" height="16px" xmlns="http://www.w3.org/2000/svg">
  <g transform="matrix(1 0 0 1 -719 -420 )">
    <path d="M 0.4736328125 4.999994140625  L 0.4736328125 4.639994140625  L 0.533626953125 4.459994140625  C 0.6536328125 4.04  1.073626953125 3.739994140625  1.5536328125 3.68  C 1.973626953125 3.620005859375  2.393638671875 3.919994140625  2.6336328125 4.279994140625  C 2.8136328125 4.700005859375  2.753638671875 5.179994140625  2.4536328125 5.539994140625  L 2.333626953125 5.66  C 3.1736328125 6.2  4.013638671875 6.680005859375  4.853626953125 7.159994140625  C 5.1536328125 7.339994140625  5.453638671875 7.519994140625  5.813638671875 7.760005859375  C 5.993638671875 7.879994140625  6.113626953125 7.82  6.2336328125 7.64  L 9.1136328125 2.42  C 8.693638671875 2.180005859375  8.453626953125 1.88  8.3936328125 1.399994140625  C 8.3936328125 1.039994140625  8.513638671875 0.8  8.7536328125 0.560005859375  C 9.233638671875 0.0800000000000003  10.0136328125 0.139994140625  10.433626953125 0.679994140625  C 10.9136328125 1.280005859375  10.7336328125 1.939994140625  10.0136328125 2.479994140625  C 10.253626953125 2.900005859375  10.493638671875 3.379994140625  10.7336328125 3.86  C 11.4536328125 5.12  12.113638671875 6.38  12.773626953125 7.64  C 12.953626953125 7.940005859375  13.013638671875 7.940005859375  13.313626953125 7.760005859375  C 14.393626953125 7.1  15.473626953125 6.439994140625  16.4936328125 5.780005859375  C 16.553626953125 5.719994140625  16.613638671875 5.719994140625  16.6736328125 5.66  C 16.433638671875 5.420005859375  16.3136328125 5.179994140625  16.3136328125 4.880005859375  C 16.253638671875 4.279994140625  16.6736328125 3.800005859375  17.2136328125 3.68  C 17.813626953125 3.559994140625  18.353626953125 3.919994140625  18.4736328125 4.459994140625  C 18.4736328125 4.520005859375  18.533626953125 4.520005859375  18.533626953125 4.58  L 18.533626953125 4.999994140625  C 18.353626953125 5.600005859375  17.993626953125 5.899994140625  17.333638671875 5.899994140625  C 17.333638671875 5.960005859375  17.273626953125 6.02  17.273626953125 6.079994140625  C 16.6736328125 8.239994140625  16.013626953125 10.34  15.4136328125 12.5  C 15.353638671875 12.800005859375  15.2336328125 12.86  14.933626953125 12.86  L 4.0736328125 12.86  C 3.773626953125 12.86  3.653638671875 12.800005859375  3.593626953125 12.5  C 3.113638671875 10.759994140625  2.573638671875 9.020005859375  2.0936328125 7.28  C 1.973626953125 6.799994140625  1.793626953125 6.320005859375  1.673638671875 5.84  C 1.1936328125 5.84  0.8336328125 5.66  0.593638671875 5.240005859375  C 0.533626953125 5.240005859375  0.533626953125 5.12  0.4736328125 4.999994140625  Z M 4.4336328125 13.94  C 6.113626953125 14.060005859375  7.793638671875 14.060005859375  9.4736328125 14.060005859375  L 14.5136328125 14.060005859375  C 14.933626953125 14.060005859375  15.293626953125 14.359994140625  15.353638671875 14.780005859375  C 15.413650390625 15.200017578125  15.113626953125 15.619994140625  14.6936328125 15.680005859375  L 4.4336328125 15.680005859375  C 4.0736328125 15.680005859375  3.7136328125 15.439994140625  3.593626953125 15.079994140625  C 3.47362109375 14.719994140625  3.593626953125 14.359994140625  3.8936328125 14.12  C 4.0736328125 13.999994140625  4.2536328125 13.94  4.4336328125 13.94  Z " fill-rule="nonzero" fill="#ffffff" stroke="none" transform="matrix(1 0 0 1 719 420 )" />
  </g>
</svg>