<?xml version="1.0" encoding="utf-8"?>
<svg version="1.1" xmlns:xlink="http://www.w3.org/1999/xlink" width="14px" height="14px" xmlns="http://www.w3.org/2000/svg">
  <g transform="matrix(1 0 0 1 -1217 -422 )">
    <path d="M 13.816 11.996  L 13.812 11.996  L 13.812 13.108  C 13.8116291785364 13.2903155819618  13.6662537260073 13.4392367772356  13.484 13.444  L 0.6 13.444  C 0.599419557253838 13.4440030967056  0.598839107279803 13.4440046450667  0.598258656273121 13.4440046450667  C 0.41799291392835 13.4440046450667  0.271858656273121 13.2978703874115  0.271858656273121 13.1176046450667  C 0.271858656273121 13.1144025767198  0.271905775949904 13.1112006817284  0.272 13.108  L 0.272 11.996  C 0.271976664323895 11.9943950650487  0.271964996023392 11.9927899816626  0.271964996023392 11.9911848770705  C 0.271964996023392 11.8095029749706  0.418326393680964 11.6617361790389  0.6 11.66  L 13.488 11.66  C 13.669673606319 11.6617361790389  13.8160350039766 11.8095029749706  13.8160350039766 11.9911848770705  C 13.8160350039766 11.9927899816627  13.8160233356761 11.9943950650486  13.816 11.996  Z M 4.744 5.636  L 4.74 5.64  L 4.74 10.408  C 4.72276490641897 10.5761873839915  4.58106815482866 10.7040600622559  4.412 10.704  L 2.36 10.704  C 2.17497667065273 10.7026923657656  2.02530763423444 10.5530233293473  2.024 10.368  L 2.024 5.628  C 2.02437082146361 5.44568441803815  2.16974627399271 5.29676322276444  2.352 5.292  L 4.408 5.292  C 4.59222140026498 5.30227016259219  4.73806670128412 5.45158797077846  4.744 5.636  Z M 8.364 0.972  L 8.364 0.976  L 8.364 10.416  C 8.34676490641897 10.5841873839915  8.20506815482867 10.7120600622559  8.036 10.712  L 5.98 10.712  C 5.79497667065273 10.7106923657656  5.64530763423444 10.5610233293473  5.644 10.376  L 5.644 0.972  C 5.64437082146361 0.789684418038153  5.78974627399271 0.640763222764441  5.972 0.636  L 8.028 0.636  C 8.02907181363346 0.635989643585253  8.03014367104598 0.635984465287235  8.03121553471277 0.635984465287235  C 8.21501589945646 0.635984465287235  8.36401553471277 0.784984100543547  8.36401553471277 0.968784465287235  C 8.36401553471277 0.969856328954046  8.36401035641475 0.970928186366525  8.364 0.972  Z M 11.996 3.828  L 11.996 3.832  L 11.996 10.408  C 11.9794266717298 10.5777737755828  11.8385417483252 10.7083500460554  11.668 10.712  L 9.612 10.712  C 9.42803806615663 10.7081794942335  9.27982050576646 10.5599619338434  9.276 10.376  L 9.276 3.828  C 9.2759766643239 3.82639506504866  9.2759649960234 3.82478998166262  9.2759649960234 3.82318487707045  C 9.2759649960234 3.64150297497061  9.42232639368097 3.49373617903886  9.604 3.492  L 11.66 3.492  C 11.8450233293473 3.49330763423444  11.9946923657656 3.64297667065273  11.996 3.828  Z " fill-rule="nonzero" fill="#ffffff" stroke="none" transform="matrix(1 0 0 1 1217 422 )" />
  </g>
</svg>