<?xml version="1.0" encoding="utf-8"?>
<svg version="1.1" xmlns:xlink="http://www.w3.org/1999/xlink" width="10px" height="10px" xmlns="http://www.w3.org/2000/svg">
  <g transform="matrix(1 0 0 1 -970 -425 )">
    <path d="M 7.59798177083333 0.117621527777779  C 7.59975405092592 0.117621527777779  8.82085503472222 0.908058449074076  8.85984519675926 1.60279224537037  C 9.11682581018518 3.02947771990741  7.42429832175926 2.97985387731482  7.1265552662037 2.18410011574074  C 6.82881221064815 1.39189091435185  7.76280381944444 0.427770543981483  9.33836082175926 1.29618778935185  C 9.34367766203703 1.29973234953704  9.37380642361111 1.32099971064815  9.41102430555556 1.34758391203704  C 9.55103443287037 1.44860387731481  9.63433159722222 1.61165364583333  9.63610387731481 1.78356481481482  L 9.6626880787037 4.01663773148148  C 9.6644603587963 4.13360821759259  9.62015335648148 4.24526186342592  9.54040075231482 4.33033130787037  L 4.52130353009259 9.64717158564815  C 4.35116464120371 9.82794415509259  4.06759982638889 9.83503327546296  3.88682725694445 9.66666666666667  L 0.436197916666667 6.42516637731482  C 0.255425347222222 6.25502748842593  0.24656394675926 5.96969039351852  0.416702835648148 5.78891782407408  L 5.30642361111111 0.622721354166668  C 5.37199797453704 0.553602430555558  5.45883969907407 0.50752314814815  5.55277054398148 0.489800347222224  L 7.59798177083333 0.117621527777779  Z " fill-rule="nonzero" fill="#ffffff" stroke="none" transform="matrix(1 0 0 1 970 425 )" />
  </g>
</svg>