<?xml version="1.0" encoding="utf-8"?>
<svg version="1.1" xmlns:xlink="http://www.w3.org/1999/xlink" width="17px" height="16px" xmlns="http://www.w3.org/2000/svg">
  <g transform="matrix(1 0 0 1 -969 -420 )">
    <path d="M 5.34013237847222 15.3817835365854  C 5.19732204861111 15.5386432926829  5.00389539930556 15.6170731707317  4.81046875 15.6170731707317  C 4.63150390625 15.6170731707317  4.4525390625 15.5498475609756  4.31153645833333 15.4135289634146  L 0.235115017361111 11.4602896341463  C 0.0923046874999999 11.3221036585366  0.0109570312500001 11.1353658536585  0.00553385416666667 10.9336890243902  C 0.0001106770833334 10.732012195122  0.0706119791666665 10.5396722560976  0.204383680555556 10.3940167682927  L 5.97825954861111 4.09348323170732  C 6.08491536458333 3.97583841463415  6.22411024305556 3.89927591463415  6.37776692708333 3.86939786585366  L 8.79288845486111 3.415625  C 8.90135199652778 3.39508384146342  9.00439236111111 3.46977896341463  9.02427734375 3.58182164634146  C 9.04416232638889 3.69386432926829  8.97185329861111 3.80030487804878  8.86338975694444 3.82084603658537  L 6.44826822916667 4.27461890243903  C 6.37776692708333 4.28769054878049  6.31630425347222 4.32317073170732  6.26749565972222 4.37545731707317  L 0.493619791666667 10.6741234756098  C 0.432157118055555 10.7413490853659  0.399618055555556 10.8272484756098  0.403233506944444 10.91875  C 0.405041232638889 11.0102515243902  0.443003472222222 11.0961509146341  0.508081597222222 11.1577743902439  L 4.5826953125 15.1110137195122  C 4.71646701388889 15.239862804878  4.92616319444444 15.2342606707317  5.05089626736111 15.096074695122  L 10.97662109375 8.6125381097561  C 11.0362760416667 8.54717987804878  11.0688151041667 8.46314786585366  11.0670073784722 8.3735137195122  L 11.0362760416667 5.64900914634146  C 11.0344683159722 5.50335365853659  10.9657747395833 5.36703506097561  10.8518880208333 5.28113567073171  C 10.8048871527778 5.24565548780488  10.7868098958333 5.23258384146341  10.7795789930556 5.22884908536585  C 10.6765386284722 5.17096036585366  10.5771137152778 5.11867378048781  10.4776888020833 5.07385670731707  C 10.48853515625 5.18029725609756  10.4993815104167 5.28673780487805  10.5138433159722 5.39317835365854  C 10.58615234375 5.81333841463415  10.5427669270833 6.17000762195122  10.3836870659722 6.45198170731707  C 10.2408767361111 6.70594512195122  10.0094878472222 6.88334603658537  9.71844401041667 6.96737804878049  C 9.41655381944444 7.05327743902439  9.06947048611111 7.02713414634146  8.76396484375 6.89455030487805  C 8.43495876736111 6.75262957317073  8.19272352430555 6.50800304878049  8.08425998263889 6.20548780487805  C 7.90529513888889 5.71063262195122  8.04449001736111 5.16162347560976  8.44218967013889 4.80682164634147  C 8.71515625 4.5640625  9.07850911458333 4.43334603658537  9.49247829861111 4.42774390243903  C 9.67144314236111 4.42587652439025  9.85583116319444 4.44828506097561  10.0456423611111 4.49123475609756  C 10.0347960069444 3.7891006097561  10.1197591145833 3.12431402439025  10.3005316840278 2.53235518292683  C 10.55361328125 1.70510670731707  10.97662109375 1.05899390243903  11.5225542534722 0.666844512195123  C 12.2384136284722 0.151448170731708  13.0970833333333 0.123437500000001  13.9358680555556 0.590282012195123  C 14.4962630208333 0.900266768292684  15.3025086805556 1.26440548780488  15.9695594618056 1.23266006097561  C 16.3491818576389 1.21398628048781  16.5028385416667 1.07206554878049  16.5046462673611 1.07019817073171  L 16.5010308159722 1.07393292682927  L 16.7866514756944 1.35964176829268  C 16.7631510416667 1.38391768292683  16.5480316840278 1.59866615853659  16.05271484375 1.63788109756098  C 15.4362803819444 1.68830030487805  14.6607660590278 1.45674542682927  13.7496723090278 0.950685975609758  C 13.3881271701389 0.749009146341465  13.0283897569444 0.655640243902441  12.6794986979167 0.670579268292684  C 12.3504926215278 0.685518292682929  12.0377560763889 0.797560975609758  11.7521354166667 1.00297256097561  C 11.2785112847222 1.34283536585366  10.9079275173611 1.91612042682927  10.6819618055556 2.65560213414634  C 10.5029969618056 3.24195884146342  10.42345703125 3.90861280487805  10.4487651909722 4.61634908536586  C 10.6223068576389 4.68357469512195  10.79765625 4.76760670731707  10.9784288194444 4.8703125  C 10.9910828993056 4.87778201219512  11.0019292534722 4.88525152439025  11.0850846354167 4.946875  C 11.3002039930556 5.10746951219512  11.4303602430556 5.36890243902439  11.4339756944444 5.64340701219512  L 11.46470703125 8.36791158536585  C 11.4665147569444 8.56398628048781  11.3960134548611 8.75072408536585  11.2658572048611 8.89451219512195  L 5.34013237847222 15.3817835365854  Z M 10.06552734375 4.92446646341463  C 9.87390842013889 4.8703125  9.68952039930556 4.84230182926829  9.51417100694444 4.84230182926829  L 9.49790147569444 4.84230182926829  C 9.17793402777778 4.84603658536585  8.90315972222222 4.94127286585366  8.70250217013889 5.12054115853658  C 8.42772786458333 5.36516768292683  8.33372612847222 5.72743902439024  8.45665147569444 6.06356707317073  C 8.61392361111111 6.49866615853658  9.19781901041667 6.69100609756097  9.61359592013889 6.5733612804878  C 9.86306206597222 6.50240091463415  10.2625694444444 6.26337652439024  10.1215668402778 5.46413871951219  C 10.1215668402778 5.46227134146341  10.1215668402778 5.45853658536585  10.1197591145833 5.45666920731707  C 10.0962586805556 5.27740091463415  10.0781814236111 5.1  10.06552734375 4.92446646341463  Z M 10.7850021701389 5.23631859756097  C 10.7850021701389 5.23445121951219  10.7850021701389 5.23445121951219  10.7831944444444 5.23445121951219  C 10.7831944444444 5.23445121951219  10.7850021701389 5.23445121951219  10.7850021701389 5.23631859756097  Z " fill-rule="nonzero" fill="#000000" stroke="none" transform="matrix(1 0 0 1 969 420 )" />
  </g>
</svg>