<?xml version="1.0" encoding="utf-8"?>
<svg version="1.1" xmlns:xlink="http://www.w3.org/1999/xlink" width="13px" height="15px" xmlns="http://www.w3.org/2000/svg">
  <g transform="matrix(1 0 0 1 -41 -308 )">
    <path d="M 12.5357142802734 6.42857143066406  C 12.5357142802734 5.25  11.7 4.28571429199219  10.6785714267578 4.28571429199219  L 9.75 4.28571429199219  L 9.75 3.75  C 9.75 1.68214286132813  8.29214285351562 0  6.5 0  C 4.70785714648438 0  3.25 1.68214286132813  3.25 3.75  L 3.25 4.28571429199219  L 2.32142857324219 4.28571429199219  C 1.3 4.28571429199219  0.464285719726563 5.25  0.464285719726563 6.42857143066406  L 0.464285719726563 12.8571428613281  C 0.464285719726563 14.0357142919922  1.3 15  2.32142857324219 15  L 10.6785714267578 15  C 11.7 15  12.5357142802734 14.0357142919922  12.5357142802734 12.8571428613281  L 12.5357142802734 6.42857143066406  Z M 4.17857142675781 4.28571429199219  L 4.17857142675781 3.75  C 4.17857142675781 2.27066584751179  5.21791040117688 1.07142856933594  6.5 1.07142856933594  C 7.78208959882312 1.07142856933594  8.82142857324219 2.27066584751179  8.82142857324219 3.75  L 8.82142857324219 4.28571429199219  L 4.17857142675781 4.28571429199219  Z M 11.6071428535156 6.42857143066406  L 11.6071428535156 12.8571428613281  C 11.6071428535156 13.4464285693359  11.1892857070313 13.9285714306641  10.6785714267578 13.9285714306641  L 2.32142857324219 13.9285714306641  C 1.81071429296875 13.9285714306641  1.39285714648438 13.4464285693359  1.39285714648438 12.8571428613281  L 1.39285714648438 6.42857143066406  C 1.39285714648438 5.83928572265625  1.81071429296875 5.35714286132812  2.32142857324219 5.35714286132812  L 3.25 5.35714286132812  L 3.25 6.96428570800781  C 3.25 7.26428570800781  3.45428571972656 7.5  3.71428571972656 7.5  C 3.97428571972656 7.5  4.17857143945313 7.26428570800781  4.17857142675781 6.96428570800781  L 4.17857142675781 5.35714286132812  L 8.82142857324219 5.35714286132812  L 8.82142857324219 6.96428570800781  C 8.82142857324219 7.26428570800781  9.02571429296875 7.5  9.28571428027344 7.5  C 9.54571426757813 7.5  9.75 7.26428570800781  9.75 6.96428570800781  L 9.75 5.35714286132812  L 10.6785714267578 5.35714286132812  C 11.1892857070313 5.35714286132812  11.6071428535156 5.83928572265625  11.6071428535156 6.42857143066406  Z " fill-rule="nonzero" fill="#8a8a8a" stroke="none" transform="matrix(1 0 0 1 41 308 )" />
  </g>
</svg>