<?xml version="1.0" encoding="utf-8"?>
<svg version="1.1" xmlns:xlink="http://www.w3.org/1999/xlink" width="6px" height="11px" xmlns="http://www.w3.org/2000/svg">
  <g transform="matrix(1 0 0 1 -48 -362 )">
    <path d="M 1.38825 0.315963536743163  C 1.46641747606135 0.455888873478389  1.53712983197898 0.601101744291126  1.60000000429688 0.750807286743164  C 1.64122557155282 0.853285898284507  1.6770401049944 0.958510225252616  1.70725000429688 1.06591146325684  C 1.70725000429688 1.09427083825684  1.7265 1.12578125  1.73475 1.154140625  C 1.76225 1.25917535050456  1.787 1.36421007108561  1.809 1.46924478674316  C 1.81012508670149 1.48286887555425  1.81012508670149 1.49658424944575  1.809 1.51020833825684  C 1.82974070725091 1.6141525116308  1.84534882473538 1.71935427257828  1.85575000429687 1.8253125  L 1.85575000429687 1.92299478674316  C 1.86822746917717 2.04537128855652  1.87465439753957 2.16845847082919  1.875 2.29166666174316  C 1.87369125327951 2.44226135538352  1.86542970593857 2.59267124090771  1.85025 2.742265625  C 1.85025 2.79583333825684  1.83375 2.84940103674316  1.82824999570313 2.89981771325684  C 1.82274999140625 2.95023438977051  1.80075 3.08572917651367  1.78150000429688 3.177109375  C 1.76225000859375 3.26848957348633  1.75125 3.29684896325684  1.73749999570312 3.35671875  C 1.72374999140625 3.41658853674316  1.6935 3.517421875  1.66875 3.59619791174316  C 1.644 3.67497394848633  1.63024999570312 3.7159375  1.60825000429687 3.77580728674316  C 1.58625001289062 3.83567707348633  1.54775000859375 3.92705728674316  1.512 4.00268228674316  C 1.47624999140625 4.07830728674316  1.46524999570312 4.10981769848633  1.44049999570312 4.16338541174316  C 1.41574999570313 4.216953125  1.35799999570312 4.31778644848633  1.314 4.39341146325684  L 1.23424999570313 4.52575521325684  C 1.18036149633787 4.61015327577512  1.1225269549616 4.6911484056654  1.06099999570313 4.76838541174316  L 0.994999995703126 4.86291666174316  C 0.816586770704652 5.08107482047977  0.617335623640498 5.27555993260704  0.400999995703124 5.44270833825684  L 1.54225000429687 5.44270833825684  L 1.57525000429687 5.42380208825684  C 1.61925 5.39859375  1.6605 5.36393230151367  1.70449999570312 5.33557291174316  C 1.74849999140625 5.30721352197266  1.81174999570312 5.26940103674316  1.86124999570312 5.23158853674316  C 1.91074999570312 5.19377603674316  1.97124999140625 5.13705728674316  2.02624999570312 5.08979166174316  C 2.08125 5.04252603674316  2.10049999570312 5.02677082348633  2.13349999570312 4.992109375  C 2.19188617010466 4.93309179713428  2.2469937459294 4.8699476998351  2.29849999570312 4.803046875  C 2.32324999570312 4.7746875  2.35074999140625 4.746328125  2.37550000429687 4.71481771325684  C 2.4002500171875 4.68330730151367  2.47175000859375 4.57302083825683  2.5185 4.500546875  C 2.54111380242104 4.46932457635685  2.5622283419882 4.43671562191681  2.58175000429687 4.40286458825684  C 2.62300000429687 4.330390625  2.65600000429687 4.254765625  2.69175 4.179140625  C 2.72749999570312 4.103515625  2.73025000429687 4.103515625  2.74675000429687 4.06255208825684  C 2.77598093353871 3.98857948393907  2.80168542456944 3.91284303292573  2.82375 3.83567708825684  C 2.84025 3.78841146325684  2.85675 3.744296875  2.87050000429687 3.69388021325684  C 2.88425000859375 3.64346355151367  2.90350000429687 3.53317708825684  2.92000000429687 3.45125  C 2.93650000429687 3.36932291174316  2.93925 3.35986978674316  2.94475000429687 3.31260416174316  C 2.96404414958606 3.18351362351939  2.97416070536533 3.05284140922753  2.97499999570312 2.921875  C 2.97415011007165 2.78790131304488  2.96496011871605 2.65416777375502  2.9475 2.52169271325684  C 2.9475 2.48072917651367  2.9475 2.44291667651367  2.92549999570313 2.401953125  C 2.91170941265402 2.31256517798951  2.89334439870993 2.22418353457393  2.87050000429687 2.137265625  C 2.87050000429687 2.09315103674316  2.84575000429688 2.0521875  2.832 2.00807291174316  C 2.80577615307781 1.92324285603884  2.77547993634702 1.84013865206681  2.74125 1.759140625  C 2.74125 1.72447916174316  2.71099999570313 1.68666666174316  2.69449999570313 1.65200521325684  C 2.6547973074384 1.56410380907484  2.61072485216882 1.47888558501843  2.56249999570313 1.39677083825683  L 2.51575000429688 1.32114583825683  C 2.45301340911841 1.2172349275696  2.38312389437967 1.11924017614706  2.30674999570313 1.02809896325683  C 2.22114564289505 0.928061683549346  2.12923061146379 0.835380688783453  2.03175 0.750807286743162  L 1.99875 0.716145838256834  C 1.92901934215351 0.654076996367104  1.85650365867968 0.596228905831611  1.78150000429688 0.542838536743163  L 1.40200000429687 0.274999999999998  L 1.42675000429687 0.338020838256835  L 1.38825 0.315963536743163  Z M 6 8.34796875  C 6 7.12977817171219  5.13814814534805 6.14223958825684  4.07500000429688 6.14223958825684  L 3.44524999570312 6.14223958825684  C 3.59937194962769 6.28154424894147  3.74038567981679 6.43889821063304  3.86599999570312 6.61174478674316  L 3.88249999570312 6.63380208825683  C 3.94577566320758 6.72227401333753  4.00454013603275 6.8148586583688  4.05850000429687 6.91109375  L 4.07224999570312 6.939453125  C 4.119 7.02453125  4.16299999570312 7.109609375  4.20424999570312 7.20098958825683  L 4.23175000429687 7.2703125  C 4.26505750442356 7.34814413672564  4.29443914493819 7.42810199272815  4.31974999570313 7.50979166174316  C 4.31974999570313 7.53815103674316  4.33899999140625 7.56966144848633  4.35 7.601171875  C 4.36100000859375 7.63268230151367  4.39125 7.752421875  4.41049999570313 7.83119791174316  C 4.42974999140625 7.90997394848633  4.42425 7.90052082348633  4.4325 7.93518228674316  C 4.44075 7.96984375  4.45999999570313 8.09588541174316  4.47100000429688 8.18096353674316  L 4.47100000429688 8.27549478674316  C 4.48297306713835 8.39053961004286  4.48939949170766 8.50625353229031  4.49025 8.622109375  L 4.49025 10.484375  L 6 10.484375  L 6 8.34796875  Z " fill-rule="nonzero" fill="#8a8a8a" stroke="none" transform="matrix(1 0 0 1 48 362 )" />
  </g>
</svg>