<?xml version="1.0" encoding="utf-8"?>
<svg version="1.1" xmlns:xlink="http://www.w3.org/1999/xlink" width="13px" height="15px" xmlns="http://www.w3.org/2000/svg">
  <g transform="matrix(1 0 0 1 -41 -361 )">
    <path d="M 3.13596490738076 4.02960526881168  C 3.18218580261041 6.17639292554374  4.72483977097543 7.87546984632951  6.58552631578947 7.82894737407484  C 8.44621286060352 7.87546984632951  9.98886682896854 6.17639292554374  10.0350877241982 4.02960526881168  C 9.98886682896854 1.88281761207962  8.44621286060352 0.183740691293842  6.58552631578947 0.23026316354852  C 4.72483977097543 0.183740691293841  3.18218580261041 1.88281761207961  3.13596490738076 4.02960526881168  Z M 4.07675438106497 4.02960526881168  C 4.12276959774988 2.48226658445761  5.2443218160586 1.2690490429836  6.58552631578947 1.31578947933799  C 7.92673081552034 1.2690490429836  9.04828303382907 2.48226658445761  9.09429825051398 4.02960526881168  C 9.04828303382906 5.57694395316574  7.92673081552034 6.79016149463975  6.58552631578947 6.74342105828536  C 5.2443218160586 6.79016149463975  4.12276959774988 5.57694395316574  4.07675438106497 4.02960526881168  Z M 12.5438596442229 11.809210520662  C 12.5438596442229 10.0106516314104  11.2802422605216 8.55263157329359  9.72149122317023 8.55263157329359  L 2.82236842105263 8.55263157329359  C 1.26361738370125 8.55263157329359  0 10.0106516314104  0 11.809210520662  L 0 14.3421052688117  L 12.5438596442229 14.3421052688117  L 12.5438596442229 11.809210520662  Z M 11.6030701705387 11.809210520662  L 11.6030701705387 13  L 0.940789473684211 13  L 0.940789473684211 11.809210520662  C 0.940789473684211 10.6101712611609  1.78320106281838 9.63815788908306  2.82236842105263 9.63815788908306  L 9.72149122317023 9.63815788908306  C 10.7606585814045 9.63815788908306  11.6030701705387 10.6101712611609  11.6030701705387 11.809210520662  Z " fill-rule="nonzero" fill="#8a8a8a" stroke="none" transform="matrix(1 0 0 1 41 361 )" />
  </g>
</svg>