<?xml version="1.0" encoding="utf-8"?>
<svg version="1.1" xmlns:xlink="http://www.w3.org/1999/xlink" width="13px" height="11px" xmlns="http://www.w3.org/2000/svg">
  <g transform="matrix(1 0 0 1 -40 -418 )">
    <path d="M 12.8518787878788 8.63069565217391  C 12.8518787878788 9.81008695652174  12.1144242424242 10.765652173913  11.2067878787879 10.765652173913  L 1.75460606060606 10.765652173913  C 0.846969696969697 10.765652173913  0.109515151515151 9.81008695652174  0.109515151515151 8.63069565217391  L 0.109515151515151 2.34634782608696  C 0.109515151515151 1.16695652173913  0.846969696969697 0.211391304347827  1.75460606060606 0.211391304347827  L 4.92424242424242 0.211391304347827  C 5.08024242424242 0.211391304347827  5.20787878787879 0.366347826086957  5.20787878787879 0.555739130434784  C 5.20787878787879 0.74513043478261  5.08024242424242 0.900086956521741  4.92424242424242 0.900086956521741  L 1.75460606060606 0.900086956521741  C 1.1589696969697 0.900086956521741  0.66969696969697 1.55434782608696  0.66969696969697 2.35495652173913  L 0.66969696969697 8.63930434782609  C 0.66969696969697 9.43991304347826  1.15187878787879 10.0941739130435  1.75460606060606 10.0941739130435  L 11.2067878787879 10.0941739130435  C 11.8024242424242 10.0941739130435  12.291696969697 9.43991304347826  12.291696969697 8.63930434782609  L 12.291696969697 2.35495652173913  C 12.291696969697 1.55434782608696  11.8095151515152 0.900086956521741  11.2067878787879 0.900086956521741  L 8.19315151515151 0.900086956521741  C 8.03715151515151 0.900086956521741  7.90951515151515 0.74513043478261  7.90951515151515 0.555739130434784  C 7.90951515151515 0.366347826086957  8.03715151515151 0.211391304347827  8.19315151515151 0.211391304347827  L 11.2067878787879 0.211391304347827  C 12.1144242424242 0.211391304347827  12.8518787878788 1.16695652173913  12.8518787878788 2.34634782608696  L 12.8518787878788 8.63069565217391  Z " fill-rule="nonzero" fill="#8a8a8a" stroke="none" transform="matrix(1 0 0 1 40 418 )" />
  </g>
</svg>