<?xml version="1.0" encoding="utf-8"?>
<svg version="1.1" xmlns:xlink="http://www.w3.org/1999/xlink" width="6px" height="8px" xmlns="http://www.w3.org/2000/svg">
  <g transform="matrix(1 0 0 1 -43 -417 )">
    <path d="M 4.3064 4.385  C 4.256 4.439  4.1912 4.457  4.1336 4.457  C 4.076 4.457  4.0112 4.43  3.9608 4.385  L 2.5568 3.053  C 2.4848 2.99  2.4416 2.882  2.4416 2.765  L 2.4416 0.65  C 2.4416 0.452  2.5712 0.29  2.7296 0.29  L 5.4944 0.29  C 5.6528 0.29  5.7824 0.452  5.7824 0.65  L 5.7824 2.792  C 5.7824 2.9  5.7392 3.008  5.6744 3.071  L 4.3064 4.385  Z M 3.0104 1.001  L 3.0104 2.594  L 4.1264 3.656  L 5.2064 2.612  L 5.2064 1.001  L 3.0104 1.001  Z M 2.9168 6.041  C 2.9168 7.031  2.2688 7.841  1.4768 7.841  C 0.6776 7.841  0.0367999999999999 7.031  0.0367999999999999 6.041  C 0.0367999999999999 5.051  0.6848 4.241  1.4768 4.241  C 2.276 4.241  2.9168 5.051  2.9168 6.041  Z M 2.348 6.032  C 2.348 5.438  1.952 4.943  1.4768 4.943  C 0.9944 4.943  0.6056 5.429  0.6056 6.032  C 0.6056 6.635  0.9944 7.121  1.4768 7.121  C 1.9592 7.121  2.348 6.635  2.348 6.032  Z " fill-rule="nonzero" fill="#8a8a8a" stroke="none" transform="matrix(1 0 0 1 43 417 )" />
  </g>
</svg>