<?xml version="1.0" encoding="utf-8"?>
<svg version="1.1" xmlns:xlink="http://www.w3.org/1999/xlink" width="11px" height="6px" xmlns="http://www.w3.org/2000/svg">
  <g transform="matrix(1 0 0 1 -42 -421 )">
    <path d="M 5.23437037037037 5.361  C 5.2417037037037 5.559  5.11703703703704 5.721  4.9557037037037 5.721  C 4.79437037037037 5.721  4.66237037037037 5.559  4.66237037037037 5.361  C 4.66237037037037 3.984  3.75303703703704 2.868  2.63103703703704 2.868  C 1.50903703703704 2.868  0.599703703703703 3.984  0.599703703703703 5.361  C 0.599703703703703 5.559  0.467703703703703 5.721  0.30637037037037 5.721  C 0.145037037037037 5.721  0.0130370370370367 5.559  0.0130370370370367 5.361  C 0.0130370370370367 3.597  1.18637037037037 2.157  2.6237037037037 2.157  C 4.06103703703704 2.157  5.23437037037037 3.597  5.23437037037037 5.361  Z M 10.6317037037037 0.402  C 10.6317037037037 0.6  10.4997037037037 0.762  10.3383703703704 0.762  L 5.76237037037037 0.762  C 5.60103703703704 0.762  5.46903703703704 0.6  5.46903703703704 0.402  C 5.46903703703704 0.204  5.60103703703704 0.0419999999999998  5.76237037037037 0.0419999999999998  L 10.3383703703704 0.0419999999999998  C 10.4997037037037 0.0419999999999998  10.6317037037037 0.204  10.6317037037037 0.402  Z M 10.6317037037037 2.562  C 10.6317037037037 2.76  10.4997037037037 2.922  10.3383703703704 2.922  L 5.76237037037037 2.922  C 5.60103703703704 2.922  5.46903703703704 2.76  5.46903703703704 2.562  C 5.46903703703704 2.364  5.60103703703704 2.202  5.76237037037037 2.202  L 10.3383703703704 2.202  C 10.4997037037037 2.202  10.6317037037037 2.364  10.6317037037037 2.562  Z " fill-rule="nonzero" fill="#8a8a8a" stroke="none" transform="matrix(1 0 0 1 42 421 )" />
  </g>
</svg>