<?xml version="1.0" encoding="utf-8"?>
<svg version="1.1" xmlns:xlink="http://www.w3.org/1999/xlink" width="14px" height="15px" xmlns="http://www.w3.org/2000/svg">
  <g transform="matrix(1 0 0 1 -40 -470 )">
    <path d="M 13.5282608695652 10.1983695652174  C 12.5315217391304 13.0353260869565  9.89130434782609 14.9592391304348  7.02282608695652 14.9592391304348  C 3.16521739130435 14.9592391304348  0.0380434782608696 11.616847826087  0.0380434782608696 7.47554347826087  C 0.0380434782608696 3.73369565217391  2.50326086956522 0.627717391304348  5.95760869565217 0.0733695652173906  C 6.25434782608696 0.0326086956521732  6.54347826086957 0.228260869565217  6.58152173913043 0.58695652173913  C 6.6195652173913 0.904891304347825  6.43695652173913 1.21467391304348  6.10217391304348 1.2554347826087  C 3.23369565217391 1.6875  1.10326086956522 4.32880434782609  1.10326086956522 7.47554347826087  C 1.10326086956522 10.9809782608696  3.75108695652174 13.8179347826087  7.02282608695652 13.8179347826087  C 9.45 13.8179347826087  11.6489130434783 12.2038043478261  12.5315217391304 9.76630434782609  C 12.6760869565217 9.375  12.7902173913043 8.97554347826087  12.8282608695652 8.625  C 12.8663043478261 8.3070652173913  13.1554347826087 8.11141304347826  13.4521739130435 8.15217391304348  C 13.7489130434783 8.1929347826087  13.9695652173913 8.50271739130435  13.8934782608696 8.82065217391304  C 13.8173913043478 9.29347826086956  13.6728260869565 9.72554347826087  13.5282608695652 10.1983695652174  Z " fill-rule="nonzero" fill="#8a8a8a" stroke="none" transform="matrix(1 0 0 1 40 470 )" />
  </g>
</svg>