<?xml version="1.0" encoding="utf-8"?>
<svg version="1.1" xmlns:xlink="http://www.w3.org/1999/xlink" width="15px" height="15px" xmlns="http://www.w3.org/2000/svg">
  <g transform="matrix(1 0 0 1 -40 -523 )">
    <path d="M 13.9583935546875 8.804619140625  C 13.4110546875 8.59456054687499  13.0575 8.0823779296875  13.0575 7.5  C 13.0575 6.917548828125  13.411201171875 6.4054541015625  13.9584814453125 6.195380859375  L 14.2386767578125 6.08783203125  L 14.1645703125 5.797060546875  C 14.0032312300672 5.16275780197188  13.7516661424769 4.55490215871682  13.4175732421875 3.9920947265625  L 13.264423828125 3.7341064453125  L 12.99029296875 3.8559814453125  C 12.8095203601951 3.93663994397228  12.6137465440001 3.97819676642628  12.4157958984375 3.9779296875  C 12.04600667325 3.97897117660579  11.6912308113945 3.83174235969301  11.4308349609375 3.5691796875  C 11.0189208984375 3.157265625  10.906875 2.5452685546875  11.1454541015625 2.0100732421875  L 11.2678564453125 1.7354150390625  L 11.0091064453125 1.5822802734375  C 10.445738744173 1.24860295514807  9.83759435587511 0.997112634462136  9.2031005859375 0.8354296875  L 8.9128564453125 0.7614697265625  L 8.805 1.04091796875  C 8.5935791015625 1.58865234375  8.0813232421875 1.9425732421875  7.500146484375 1.9425732421875  C 6.9177685546875 1.9425732421875  6.405673828125 1.5888720703125  6.19552734375 1.0414453125  L 6.087978515625 0.761396484375  L 5.79720703125 0.8354296875  C 5.16288974079192 0.996745905533843  4.55503235702177 1.24833842101273  3.992255859375 1.5825  L 3.7342529296875 1.7356494140625  L 3.8561279296875 2.0097802734375  C 4.0943994140625 2.5454296875  3.982353515625 3.1575732421875  3.5708203125 3.5691796875  C 3.3079541015625 3.832119140625  2.957548828125 3.9769482421875  2.58427734375 3.9769482421875  C 2.3852197265625 3.9769482421875  2.1923291015625 3.9362255859375  2.0110546875 3.8558203125  L 1.73759765625 3.7345458984375  L 1.584375 3.99158203125  C 1.24914472014376 4.55420081717308  0.996964255597527 5.16230440719356  0.835649414062501 5.7970458984375  L 0.761777343750001 6.0873046875  L 1.0412255859375 6.195146484375  C 1.5887255859375 6.40658203125  1.9425732421875 6.91875  1.9425732421875 7.5  C 1.9425732421875 8.0823779296875  1.5888720703125 8.59447265625  1.0414453125 8.80470703125  L 0.761323242187501 8.9123291015625  L 0.835356445312501 9.2031005859375  C 0.996735024990004 9.83736245977974  1.24829807652557 10.4451835847695  1.582353515625 11.007978515625  L 1.7355029296875 11.2660546875  L 2.00970703125 11.144033203125  C 2.19044832004134 11.0633561395249  2.38620126225364 11.0217934579097  2.584130859375 11.0220703125  C 2.95634765625 11.0220703125  3.306005859375 11.167119140625  3.5690185546875 11.43076171875  C 3.981005859375 11.8427197265625  4.092978515625 12.4547314453125  3.85447265625 12.9899267578125  L 3.7320703125 13.2645849609375  L 3.9908203125 13.4177197265625  C 4.55416264116989 13.7514305088431  5.16231553378268 14.002899682867  5.796826171875 14.1644970703125  L 6.0870703125 14.23845703125  L 6.1949267578125 13.958994140625  C 6.40658203125 13.41134765625  6.91875 13.0575  7.5 13.0575  C 8.082451171875 13.0575  8.5945458984375 13.411201171875  8.80470703125 13.9585546875  L 8.9123291015625 14.2386767578125  L 9.2031005859375 14.1645703125  C 9.8373724164741 14.0031869313839  10.4452136651852 13.7516504247714  11.0080517578125 13.417646484375  L 11.2661279296875 13.264423828125  L 11.1441064453125 12.9902197265625  C 10.9058203125 12.4545703125  11.0177197265625 11.8425  11.4293994140625 11.4308203125  C 11.6922802734375 11.167880859375  12.04259765625 11.0230517578125  12.4157958984375 11.0230517578125  C 12.614853515625 11.0230517578125  12.80783203125 11.06384765625  12.9891064453125 11.1441796875  L 13.2626220703125 11.26552734375  L 13.415771484375 11.00841796875  C 13.7509736231289 10.4458111137428  14.0031525674392 9.8377358583603  14.1644970703125 9.20302734374999  L 14.23845703125 8.91225585937499  L 13.9583935546875 8.804619140625  Z M 12.9717041015625 10.422978515625  C 12.7906338967202 10.3730198787661  12.6036315407559 10.347815213397  12.4157958984375 10.3480517578125  C 11.8621435546875 10.3480517578125  11.3423291015625 10.563076171875  10.9519482421875 10.9535302734375  C 10.4149365234375 11.4906884765625  10.221298828125 12.256875  10.4222314453125 12.973125  C 10.0653049572205 13.1637599919717  9.69050514827013 13.3188512599508  9.3032373046875 13.436162109375  C 8.9388720703125 12.7874267578125  8.25990234375 12.3825  7.5 12.3825  C 6.7414453125 12.3825  6.062548828125 12.7875  5.697216796875 13.43625  C 5.3091033518695 13.3187598060744  4.93347505120114 13.1634136905849  4.5757470703125 12.972451171875  C 4.7708203125 12.2617529296875  4.5747802734375 11.4817529296875  4.04677734375 10.9538232421875  C 3.65654296875 10.5625634765625  3.13716796875 10.3470849609375  2.58427734375 10.3470849609375  C 2.394140625 10.3470849609375  2.2076953125 10.372353515625  2.0270947265625 10.4225244140625  C 1.83631497233003 10.0655352361949  1.68114282356433 9.69063155292201  1.5638232421875 9.3032373046875  C 2.2125732421875 8.9388720703125  2.6175732421875 8.25990234375  2.6175732421875 7.5  C 2.6175732421875 6.7413720703125  2.2125732421875 6.0624755859375  1.5638232421875 5.697216796875  C 1.68117198203002 5.3093939171163  1.83673472242647 4.93417970805423  2.02822265625 4.5770947265625  C 2.2082958984375 4.6268994140625  2.394375 4.652021484375  2.584130859375 4.652021484375  C 3.1376953125 4.652021484375  3.65759765625 4.4369970703125  4.047978515625 4.04654296875  C 4.585048828125 3.5093994140625  4.7787744140625 2.743271484375  4.5778564453125 2.026962890625  C 4.93472086462555 1.83624279892744  5.3095039516643 1.681138485941  5.69677734375 1.563896484375  C 6.0611279296875 2.212646484375  6.74009765625 2.617646484375  7.4999267578125 2.617646484375  C 8.2585546875 2.617646484375  8.9373779296875 2.2127197265625  9.3027099609375 1.563837890625  C 9.69081319773746 1.68138151612992  10.0664382302371 1.83674590541312  10.4241796875 2.0276953125  C 10.2290185546875 2.7383203125  10.425146484375 3.5183203125  10.953076171875 4.0463232421875  C 11.343369140625 4.43759765625  11.86283203125 4.6530615234375  12.4156494140625 4.6530615234375  C 12.6039625621139 4.65329642935644  12.7914327330266 4.62791733834649  12.9729052734375 4.5776220703125  C 13.1636280516659 4.93463234642791  13.3187695880557 5.30953810028884  13.4360888671875 5.696923828125  C 12.787353515625 6.0611279296875  12.3825146484375 6.7400390625  12.3825146484375 7.5  C 12.3825146484375 8.25990234375  12.7873681640625 8.9388720703125  13.4361181640625 9.30322265625  C 13.3186816257472 9.69089668989542  13.1631219356403 10.0659808721858  12.97171875 10.422978515625  Z " fill-rule="nonzero" fill="#8a8a8a" stroke="none" transform="matrix(1 0 0 1 40 523 )" />
  </g>
</svg>