<?xml version="1.0" encoding="utf-8"?>
<svg version="1.1" xmlns:xlink="http://www.w3.org/1999/xlink" width="5px" height="5px" xmlns="http://www.w3.org/2000/svg">
  <g transform="matrix(1 0 0 1 -45 -528 )">
    <path d="M 4.37964285714286 2.5  C 4.37964285714286 1.46361467633929  3.53645159040179 0.620423409598215  2.5 0.620423409598214  C 1.46361467633929 0.620423409598214  0.620423409598215 1.46361467633929  0.620423409598215 2.5  C 0.620423409598215 3.53645159040179  1.46361467633929 4.37964285714286  2.5 4.37964285714286  C 3.53645159040179 4.37964285714286  4.37964285714286 3.53645159040179  4.37964285714286 2.5  Z M 3.76892857142857 2.5  C 3.76892857142857 3.19973702566964  3.19973702566964 3.76892857142857  2.5 3.76892857142857  C 1.80032924107143 3.76892857142857  1.2311376953125 3.19967075892857  1.2311376953125 2.5  C 1.2311376953125 1.80032924107143  1.8003955078125 1.2311376953125  2.5 1.2311376953125  C 3.19973702566964 1.2311376953125  3.76892857142857 1.8003955078125  3.76892857142857 2.5  Z " fill-rule="nonzero" fill="#8a8a8a" stroke="none" transform="matrix(1 0 0 1 45 528 )" />
  </g>
</svg>