<?xml version="1.0" encoding="utf-8"?>
<svg version="1.1" xmlns:xlink="http://www.w3.org/1999/xlink" width="279px" height="178px" xmlns="http://www.w3.org/2000/svg">
  <defs>
    <filter x="1153px" y="47px" width="279px" height="178px" filterUnits="userSpaceOnUse" id="filter1">
      <feOffset dx="1" dy="1" in="SourceAlpha" result="shadowOffsetInner" />
      <feGaussianBlur stdDeviation="1.5" in="shadowOffsetInner" result="shadowGaussian" />
      <feComposite in2="shadowGaussian" operator="atop" in="SourceAlpha" result="shadowComposite" />
      <feColorMatrix type="matrix" values="0 0 0 0 0  0 0 0 0 0  0 0 0 0 0  0 0 0 0.349019607843137 0  " in="shadowComposite" />
    </filter>
    <g id="widget2">
      <path d="M 0 167  L 0 12  C 0 9.2  2.20000000000005 7  5 7  L 40.253164556962 7  L 45 7  L 53.8607594936709 0.0506329113924053  L 53.8607594936709 7  L 62.4050632911392 7  L 66.8354430379745 7  L 87.2535211267607 7  L 94.7652582159626 7  L 102.981220657277 7  L 108.615023474179 7  L 118.239436619718 7  L 268 7  C 270.8 7  273 9.2  273 12  L 273 167  C 273 169.8  270.8 172  268 172  L 5 172  C 2.20000000000005 172  0 169.8  0 167  Z " fill-rule="nonzero" fill="#ffffff" stroke="none" transform="matrix(1 0 0 1 1155 49 )" />
    </g>
  </defs>
  <g transform="matrix(1 0 0 1 -1153 -47 )">
    <use xlink:href="#widget2" filter="url(#filter1)" />
    <use xlink:href="#widget2" />
  </g>
</svg>