<?xml version="1.0" encoding="utf-8"?>
<svg version="1.1" xmlns:xlink="http://www.w3.org/1999/xlink" width="14px" height="14px" xmlns="http://www.w3.org/2000/svg">
  <g transform="matrix(1 0 0 1 -1398 -149 )">
    <path d="M 6.99592578125668 13.9918652343734  L 6.99592578125668 13.9999999999984  C 10.8596641557766 14  13.9918468170912 10.8678173386828  13.9918468170912 7.00407421875081  C 13.9918468170912 3.1403310988188  10.8596641557766 0.00814843750160862  6.99592103584783 0.00814843750160862  C 3.13535969574916 0.00814843750160862  0.00449655183288181 3.13536705980599  0 6.9959257812492  C 0 10.8596825730562  3.13218266131456 13.9918652343734  6.99592578124332 13.9918652343734  Z M 8.22754296875551 6.9959394531242  L 5.53166796875808 4.27077929687451  C 5.38439790961685 4.14712831296911  5.29935320940496 3.96467656682052  5.29935320940496 3.77237982701386  C 5.29935320940496 3.41296326716308  5.59071789955386 3.12159857701393  5.95013445940434 3.12159857701393  C 6.14283171181182 3.12159857701393  6.32562089111765 3.20699641194415  6.4492695312572 3.35479101562461  L 9.62185546875418 6.52900390624925  C 9.85360801922726 6.78554644501201  9.84431951714139 7.17852153326059  9.6007050781292 7.42382812499915  L 6.39069921875726 10.6435957031238  C 6.26713266571406 10.7845127491832  6.08881135296275 10.8653152839236  5.90139121823584 10.8653152839236  C 5.54197465838536 10.8653152839236  5.25060996823646 10.5739505937744  5.25060996823646 10.2145340339237  C 5.25060996823646 10.0275126883437  5.33107030722929 9.84953091404369  5.47147070313314 9.72598046874888  L 8.22754296875551 6.9959394531242  Z " fill-rule="nonzero" fill="#8a8a8a" stroke="none" transform="matrix(1 0 0 1 1398 149 )" />
  </g>
</svg>