<?xml version="1.0" encoding="utf-8"?>
<svg version="1.1" xmlns:xlink="http://www.w3.org/1999/xlink" width="15px" height="15px" xmlns="http://www.w3.org/2000/svg">
  <g transform="matrix(1 0 0 1 -1398 -188 )">
    <path d="M 7.34103928710938 7.48547405273438  C 7.03801483615623 7.49122669675359  6.78745733418242 7.25072502212288  6.78079979003906 6.9477191015625  L 6.78079979003906 0.540565517578125  C 6.78079979003906 0.242645522460937  7.03187702636719 0  7.34103928710937 0  C 7.65113840332031 0  7.90315248046875 0.243582377929688  7.90315248046875 0.540565517578125  L 7.90315248046875 6.94490853515625  C 7.89758890715085 7.24511580579912  7.6526349465661 7.48557223300766  7.35237612705382 7.48557223300766  C 7.34890923384947 7.48557223300766  7.34544241788724 7.48553950479163  7.34197614257813 7.48547405273438  Z M 9.96517104492187 14.4472459863281  C 9.07827811636452 14.8076037520318  8.12970993168586 14.9918442714254  7.17240531738281 14.9896852294922  C 5.28431685340632 14.9967494452157  3.46721566117087 14.2705807238222  2.1040180078125 12.9642040136719  C 1.45289583860908 12.3392565508187  0.930866812667013 11.5925003909975  0.5675752734375 10.76634140625  C -0.264717907874861 8.86576218478774  -0.169575456020631 6.68682701477635  0.825210483398437 4.86602657226563  C 1.3552295288036 3.90384949417422  2.10192961140889 3.07824554024714  3.00620969238281 2.45456096191406  C 3.25889116038898 2.28043625896106  3.60381947729798 2.33572380855381  3.78942073242187 2.58009956542969  C 3.85681956963186 2.67086968390878  3.89321085440569 2.78092380566039  3.89321085440569 2.8939805067708  C 3.89321085440569 3.07023193083008  3.8050211239233 3.23479300972796  3.65826099609375 3.33239438964844  C 2.89538156017818 3.85953554111842  2.26547791794149 4.55679140595217  1.81827713378906 5.36911787109375  C 1.36214893212444 6.19715797716321  1.12391548669152 7.12752566464567  1.12594104492188 8.07288234375  C 1.12594104492188 9.631809609375  1.75550781738281 11.0970513427734  2.898471328125 12.1987931982422  C 4.0469131657172 13.3033477783319  5.58089197167261 13.9164015394339  7.17427902832031 13.9076173242187  C 8.76745978197679 13.9162567327911  10.301277353938 13.3036034796198  11.4500867431641 12.1997300537109  C 12.580903967358 11.124887841369  13.2210011131246 9.63302121882053  13.2207433154297 8.07288234375  C 13.2235479757053 7.12766396834071  12.9859489229431 6.19725574027549  12.5302809375 5.36911787109375  C 12.0822115499752 4.55704633902354  11.4513074622636 3.86038966474088  10.6874865087891 3.33426810058594  C 10.5410805917838 3.23660625622369  10.4531504169556 3.07225315445226  10.4531504169556 2.89626301728998  C 10.4531504169556 2.78738221447938  10.4869059782568 2.6811791853627  10.5497687695312 2.59227868652344  L 10.5591373242187 2.58103642089844  C 10.744400849871 2.33678494657691  11.0890245591924 2.28148006850501  11.3414115234375 2.45549781738281  C 12.2454686876086 3.07876694616809  12.9918851838587 3.90409124224995  13.5214738769531 4.86602657226562  C 14.5175493209763 6.68640458298682  14.6130581994162 8.86580648898711  13.7800459423828 10.76634140625  C 13.4170742767213 11.5929549223756  12.8950120169776 12.3400769534398  12.2436032080078 12.9651408691406  C 11.5854736598181 13.5998064532862  10.8121275249799 14.1028630210308  9.96517104492187 14.4472459863281  Z " fill-rule="nonzero" fill="#707070" stroke="none" transform="matrix(1 0 0 1 1398 188 )" />
  </g>
</svg>