<?xml version="1.0" encoding="utf-8"?>
<svg version="1.1" xmlns:xlink="http://www.w3.org/1999/xlink" width="12px" height="12px" xmlns="http://www.w3.org/2000/svg">
  <g transform="matrix(1 0 0 1 -284 -126 )">
    <path d="M 6 0  C 9.31370849898476 0  12 2.68629150101524  12 6  C 12 9.31370849898476  9.31370849898476 12  6 12  C 2.68629150101524 12  0 9.31370849898476  0 6  C 0 2.68629150101524  2.68629150101524 0  6 0  Z M 6 0.857142855468751  C 3.15967842851705 0.857142855468751  0.85714285546875 3.15967842851705  0.85714285546875 6  C 0.85714285546875 8.84032157148295  3.15967842851705 11.1428571445313  6 11.1428571445313  C 8.84032157148295 11.1428571445313  11.1428571445313 8.84032157148295  11.1428571445313 6  C 11.1428571445313 3.15967842851705  8.84032157148295 0.857142855468751  6 0.857142855468751  Z M 5.46857143359375 8.0057142890625  C 5.5956676012059 7.88563713119727  5.76521790770428 7.82089974075367  5.94 7.8257142890625  C 6.12857143359375 7.8257142890625  6.29142856640625 7.8857142890625  6.42 8.0057142890625  C 6.54 8.1257142890625  6.60857143359375 8.28  6.60857143359375 8.46857143359375  C 6.60857143359375 8.6571428671875  6.54 8.82  6.41142856640625 8.94  C 6.2843323987941 9.06007715786524  6.11478209229572 9.12481454830884  5.94 9.12  C 5.75142856640625 9.12  5.59714285546875 9.05142856640625  5.46857143359375 8.93142856640625  C 5.34158023191505 8.81177980386307  5.27277731686486 8.64289992962995  5.28 8.46857143359375  C 5.28 8.28  5.34 8.1257142890625  5.46857143359375 8.0057142890625  Z M 4.5942857109375 3.42  C 4.96285714453125 3.06  5.46 2.88  6.0942857109375 2.88  C 6.65142856640625 2.88  7.10571427734375 3.0257142890625  7.44857143359375 3.3342857109375  C 7.791428578125 3.6342857109375  7.96285714453125 4.04571427734375  7.96285714453125 4.56857143359375  C 7.96285714453125 4.9971428671875  7.851428578125 5.34857143359375  7.6457142890625 5.62285714453125  C 7.56857143359375 5.70857143359375  7.32 5.94  6.90857143359375 6.3  C 6.75428572265625 6.42857143359375  6.64285714453125 6.5742857109375  6.5657142890625 6.72857143359375  C 6.48 6.9  6.43714285546875 7.08  6.43714285546875 7.2857142890625  L 6.43714285546875 7.4057142890625  L 5.45142856640625 7.4057142890625  L 5.45142856640625 7.2857142890625  C 5.45142856640625 6.96  5.5028571328125 6.67714285546875  5.62285714453125 6.4457142890625  C 5.7342857109375 6.21428572265625  6.06857143359375 5.85428572265625  6.6257142890625 5.35714285546875  L 6.72857143359375 5.23714285546875  C 6.88285714453125 5.048571421875  6.96 4.84285714453125  6.96 4.62857143359375  C 6.96 4.3457142890625  6.8742857109375 4.12285714453125  6.72 3.96  C 6.55714285546875 3.79714285546875  6.3257142890625 3.72  6.0342857109375 3.72  C 5.65714285546875 3.72  5.39142856640625 3.83142856640625  5.22857143359375 4.07142856640625  C 5.08285714453125 4.268571421875  5.01428572265625 4.55142856640625  5.0142857109375 4.91142856640625  L 4.03714285546875 4.91142856640625  C 4.03714285546875 4.27714285546875  4.21714285546875 3.78  4.5942857109375 3.42  Z " fill-rule="nonzero" fill="#8a8a8a" stroke="none" transform="matrix(1 0 0 1 284 126 )" />
  </g>
</svg>