<?xml version="1.0" encoding="utf-8"?>
<svg version="1.1" xmlns:xlink="http://www.w3.org/1999/xlink" width="100px" height="35px" xmlns="http://www.w3.org/2000/svg">
  <g transform="matrix(1 0 0 1 -141 0 )">
    <path d="M 142 5  A 4 4 0 0 1 146 1 L 236 1  A 4 4 0 0 1 240 5 L 240 30  A 4 4 0 0 1 236 34 L 146 34  A 4 4 0 0 1 142 30 L 142 5  Z " fill-rule="nonzero" fill="#ffffff" stroke="none" />
    <path d="M 141.5 5  A 4.5 4.5 0 0 1 146 0.5 L 236 0.5  A 4.5 4.5 0 0 1 240.5 5 L 240.5 30  A 4.5 4.5 0 0 1 236 34.5 L 146 34.5  A 4.5 4.5 0 0 1 141.5 30 L 141.5 5  Z " stroke-width="1" stroke="#797979" fill="none" stroke-opacity="0.0980392156862745" />
  </g>
</svg>