<?xml version="1.0" encoding="utf-8"?>
<svg version="1.1" xmlns:xlink="http://www.w3.org/1999/xlink" width="146px" height="34px" viewBox="101 66  146 34" xmlns="http://www.w3.org/2000/svg">
  <path d="M 102 69  A 2 2 0 0 1 104 67 L 244 67  A 2 2 0 0 1 246 69 L 246 97  A 2 2 0 0 1 244 99 L 104 99  A 2 2 0 0 1 102 97 L 102 69  Z " fill-rule="nonzero" fill="#f0f0f0" stroke="none" />
  <path d="M 101.5 69  A 2.5 2.5 0 0 1 104 66.5 L 244 66.5  A 2.5 2.5 0 0 1 246.5 69 L 246.5 97  A 2.5 2.5 0 0 1 244 99.5 L 104 99.5  A 2.5 2.5 0 0 1 101.5 97 L 101.5 69  Z " stroke-width="1" stroke="#797979" fill="none" stroke-opacity="0.498039215686275" />
</svg>