<?xml version="1.0" encoding="utf-8"?>
<svg version="1.1" xmlns:xlink="http://www.w3.org/1999/xlink" width="300px" height="38px" xmlns="http://www.w3.org/2000/svg">
  <g transform="matrix(1 0 0 1 -150 -33 )">
    <path d="M 151 35  A 1 1 0 0 1 152 34 L 448 34  A 1 1 0 0 1 449 35 L 449 69  A 1 1 0 0 1 448 70 L 152 70  A 1 1 0 0 1 151 69 L 151 35  Z " fill-rule="nonzero" fill="#ffffff" stroke="none" />
    <path d="M 150.5 35  A 1.5 1.5 0 0 1 152 33.5 L 448 33.5  A 1.5 1.5 0 0 1 449.5 35 L 449.5 69  A 1.5 1.5 0 0 1 448 70.5 L 152 70.5  A 1.5 1.5 0 0 1 150.5 69 L 150.5 35  Z " stroke-width="1" stroke="#797979" fill="none" stroke-opacity="0.0980392156862745" />
  </g>
</svg>