<?xml version="1.0" encoding="utf-8"?>
<svg version="1.1" xmlns:xlink="http://www.w3.org/1999/xlink" width="300px" height="35px" viewBox="150 160  300 35" xmlns="http://www.w3.org/2000/svg">
  <path d="M 151 162  A 1 1 0 0 1 152 161 L 448 161  A 1 1 0 0 1 449 162 L 449 193  A 1 1 0 0 1 448 194 L 152 194  A 1 1 0 0 1 151 193 L 151 162  Z " fill-rule="nonzero" fill="#f0f0f0" stroke="none" />
  <path d="M 150.5 162  A 1.5 1.5 0 0 1 152 160.5 L 448 160.5  A 1.5 1.5 0 0 1 449.5 162 L 449.5 193  A 1.5 1.5 0 0 1 448 194.5 L 152 194.5  A 1.5 1.5 0 0 1 150.5 193 L 150.5 162  Z " stroke-width="1" stroke="#797979" fill="none" stroke-opacity="0.0980392156862745" />
</svg>