<?xml version="1.0" encoding="utf-8"?>
<svg version="1.1" xmlns:xlink="http://www.w3.org/1999/xlink" width="25px" height="25px" xmlns="http://www.w3.org/2000/svg">
  <g transform="matrix(1 0 0 1 -146 -48 )">
    <path d="M 23.3940662122687 11.3331898734177  L 13.4795715676728 11.3331898734177  L 13.4795715676728 1.71464362220058  C 13.4795715676728 1.27071051606621  13.0356384615385 0.6788005842259  12.4437285296982 0.6788005842259  C 11.8518185978578 0.6788005842259  11.4078854917235 1.27071051606621  11.4078854917235 1.86262044790652  L 11.4078854917235 11.4811666991237  L 1.78930769230769 11.4811666991237  C 1.19739776046738 11.3331890847128  0.605487828627069 11.925099805258  0.605487828627069 12.5170097370983  C 0.605487828627069 13.1089196689387  1.19739776046738 13.552852775073  1.64133086660175 13.552852775073  L 11.2598771178189 13.552852775073  L 11.2598771178189 23.1713990262902  C 11.4078547322298 23.7633089581305  11.8517870496592 24.3552188899708  12.4436969814995 24.3552188899708  C 13.0356069133398 24.3552188899708  13.4795400194742 23.7633089581305  13.4795400194742 23.3193758519961  L 13.4795400194742 13.5528422590068  L 23.2460736124635 13.5528422590068  C 23.8379835443038 13.5528422590068  24.2819166504382 12.9609323271665  24.2819166504382 12.5169992210321  C 24.2819166504382 12.0730661148978  23.9859603700097 11.3331793573515  23.3940504381694 11.3331793573515  Z " fill-rule="nonzero" fill="#7f7f7f" stroke="none" transform="matrix(1 0 0 1 146 48 )" />
  </g>
</svg>