<?xml version="1.0" encoding="utf-8"?>
<svg version="1.1" xmlns:xlink="http://www.w3.org/1999/xlink" width="121px" height="120px" xmlns="http://www.w3.org/2000/svg">
  <g transform="matrix(1 0 0 1 -98 0 )">
    <path d="M 99 2  A 1 1 0 0 1 100 1 L 217 1  A 1 1 0 0 1 218 2 L 218 118  A 1 1 0 0 1 217 119 L 100 119  A 1 1 0 0 1 99 118 L 99 2  Z " fill-rule="nonzero" fill="#81d3f8" stroke="none" fill-opacity="0.0980392156862745" />
    <path d="M 98.5 2  A 1.5 1.5 0 0 1 100 0.5 L 217 0.5  A 1.5 1.5 0 0 1 218.5 2 L 218.5 118  A 1.5 1.5 0 0 1 217 119.5 L 100 119.5  A 1.5 1.5 0 0 1 98.5 118 L 98.5 2  Z " stroke-width="1" stroke-dasharray="9,4" stroke="#797979" fill="none" stroke-opacity="0.0980392156862745" stroke-dashoffset="0.5" />
  </g>
</svg>