<?xml version="1.0" encoding="utf-8"?>
<svg version="1.1" xmlns:xlink="http://www.w3.org/1999/xlink" width="31px" height="31px" xmlns="http://www.w3.org/2000/svg">
  <g transform="matrix(1 0 0 1 -146 -49 )">
    <path d="M 30.63671875 7.931640625  C 30.63671875 5.61330078125  28.750380859375 3.726962890625  26.432041015625 3.726962890625  L 21.3016015625 3.726962890625  C 20.910771484375 1.8103515625  19.21212890625 0.36328125  17.1819921875 0.36328125  L 13.8180078125 0.36328125  C 11.787568359375 0.36328125  10.089228515625 1.8103515625  9.6983984375 3.726962890625  L 4.567958984375 3.726962890625  C 2.249619140625 3.726962890625  0.36328125 5.61330078125  0.36328125 7.931640625  C 0.363281031734352 8.39638123810392  0.739536730646083 8.77263693701565  1.20367165673435 8.77263693701565  L 5 8.77263671875  L 5 27.273037109375  C 4.5697946577929 29.1299862904562  6.07469144391881 30.6348830765821  7.931640625 30.63671875  L 23.068359375 30.63671875  C 24.9253085560812 30.6348830765821  26.4302053422071 29.1299862904562  26 27.273037109375  L 26 8.77263671875  L 29.79572265625 8.77263671875  C 30.2604632693539 8.77263693701565  30.6367189682656 8.39638123810392  30.6367189682656 7.93224631201565  Z M 11.43912109375 3.727265625  C 11.7968309549786 2.72012272270161  12.7492276445469 2.04673051002139  13.8180078125 2.0452734375  L 17.1819921875 2.0452734375  C 18.2508834773386 2.04660260630276  19.2034344769854 2.72001822585199  19.561181640625 3.727265625  L 11.43912109375 3.727265625  Z M 24.7503515625 9  L 24.7503515625 27.273037109375  C 24.7490172794201 28.2013734698169  23.9966959605759 28.9535593816563  23.068359375 29  L 7.931640625 29  C 7.00318603728009 28.9535590084141  6.25081599158587 28.2011889627199  6.2496484375 27.272734375  L 6.2496484375 9  L 24.7503515625 9  Z M 28.81123046875 7.09064453125  L 26.43234375 7  L 2.18876953125 7  C 2.5465166948896 6.08339713210199  3.49906769453636 5.40998151255276  4.567958984375 6  L 26.432041015625 6  C 27.5009323054636 5.40998151255276  28.4534833051104 6.08339713210199  28.81123046875 7.09064453125  Z " fill-rule="nonzero" fill="#ffffff" stroke="none" transform="matrix(1 0 0 1 146 49 )" />
  </g>
</svg>