<?xml version="1.0" encoding="utf-8"?>
<svg version="1.1" xmlns:xlink="http://www.w3.org/1999/xlink" width="13px" height="14px" xmlns="http://www.w3.org/2000/svg">
  <g transform="matrix(1 0 0 1 -155 -61 )">
    <path d="M 6.50060568701564 13.5910451401406  C 6.96474061310391 13.5910451401406  7.34099631201565 13.2147894412289  7.34099631201565 12.7506545151406  L 7.34099609375 0.977314453124999  C 7.34099609375 0.512845135879605  6.96446931724539 0.136318359374998  6.5 0.136318359374998  C 6.0355306827546 0.136318359374998  5.65900390625 0.512845135879605  5.65900390625 0.977314453124999  L 5.65900390625 12.7503515625  C 5.6590038516443 13.214789441111  6.03525955055603 13.5910451400227  6.4993944766443 13.5910451400227  Z M 1.45493185889065 13.5910451401406  C 1.91906678497892 13.5910451401406  2.29532248389065 13.2147894412289  2.29532248389065 12.7506545151406  L 2.295322265625 0.977314453124999  C 2.295322265625 0.512845135879605  1.91879548912039 0.136318359374998  1.454326171875 0.136318359374998  C 0.989856854629606 0.136318359374998  0.613330078124999 0.512845135879605  0.613330078124999 0.977314453124999  L 0.613330078124999 12.7503515625  C 0.6133300235193 13.214789441111  0.989585722431032 13.5910451400227  1.4537206485193 13.5910451400227  Z M 11.5462795151406 13.5910451401406  C 12.0104144412289 13.5910451401406  12.3866701401406 13.2147894412289  12.3866701401406 12.7506545151406  L 12.386669921875 0.977314453124999  C 12.386669921875 0.512845135879605  12.0101431453704 0.136318359374998  11.545673828125 0.136318359374998  C 11.0812045108796 0.136318359374998  10.704677734375 0.512845135879605  10.704677734375 0.977314453124999  L 10.704677734375 12.7503515625  C 10.7046776797693 13.214789441111  11.080933378681 13.5910451400227  11.5450683047693 13.5910451400227  Z " fill-rule="nonzero" fill="#ffffff" stroke="none" transform="matrix(1 0 0 1 155 61 )" />
  </g>
</svg>