<?xml version="1.0" encoding="utf-8"?>
<svg version="1.1" xmlns:xlink="http://www.w3.org/1999/xlink" width="100px" height="35px" xmlns="http://www.w3.org/2000/svg">
  <g transform="matrix(1 0 0 1 -495 -813 )">
    <path d="M 496 818  A 4 4 0 0 1 500 814 L 590 814  A 4 4 0 0 1 594 818 L 594 843  A 4 4 0 0 1 590 847 L 500 847  A 4 4 0 0 1 496 843 L 496 818  Z " fill-rule="nonzero" fill="#ffffff" stroke="none" fill-opacity="0" />
    <path d="M 495.5 818  A 4.5 4.5 0 0 1 500 813.5 L 590 813.5  A 4.5 4.5 0 0 1 594.5 818 L 594.5 843  A 4.5 4.5 0 0 1 590 847.5 L 500 847.5  A 4.5 4.5 0 0 1 495.5 843 L 495.5 818  Z " stroke-width="1" stroke="#797979" fill="none" stroke-opacity="0.0980392156862745" />
  </g>
</svg>