<?xml version="1.0" encoding="utf-8"?>
<svg version="1.1" xmlns:xlink="http://www.w3.org/1999/xlink" width="100px" height="35px" xmlns="http://www.w3.org/2000/svg">
  <g transform="matrix(1 0 0 1 -648 -813 )">
    <path d="M 649 818  A 4 4 0 0 1 653 814 L 743 814  A 4 4 0 0 1 747 818 L 747 843  A 4 4 0 0 1 743 847 L 653 847  A 4 4 0 0 1 649 843 L 649 818  Z " fill-rule="nonzero" fill="#39aafb" stroke="none" fill-opacity="0" />
    <path d="M 648.5 818  A 4.5 4.5 0 0 1 653 813.5 L 743 813.5  A 4.5 4.5 0 0 1 747.5 818 L 747.5 843  A 4.5 4.5 0 0 1 743 847.5 L 653 847.5  A 4.5 4.5 0 0 1 648.5 843 L 648.5 818  Z " stroke-width="1" stroke="#797979" fill="none" stroke-opacity="0.0980392156862745" />
  </g>
</svg>