<?xml version="1.0" encoding="utf-8"?>
<svg version="1.1" xmlns:xlink="http://www.w3.org/1999/xlink" width="625px" height="108px" xmlns="http://www.w3.org/2000/svg">
  <defs>
    <mask fill="white" id="clip15">
      <path d="M 11 108  L 11 46.1538461538462  L 11 33.8461538461539  L 11 27.076923076923  L 0.307692307692378 22.7993544916622  L 11 14.7692307692308  L 11 0  L 625 0  L 625 108  L 11 108  Z " fill-rule="evenodd" />
    </mask>
  </defs>
  <g transform="matrix(1 0 0 1 -529 -39 )">
    <path d="M 11 108  L 11 46.1538461538462  L 11 33.8461538461539  L 11 27.076923076923  L 0.307692307692378 22.7993544916622  L 11 14.7692307692308  L 11 0  L 625 0  L 625 108  L 11 108  Z " fill-rule="nonzero" fill="#ffffff" stroke="none" transform="matrix(1 0 0 1 529 39 )" />
    <path d="M 11 108  L 11 46.1538461538462  L 11 33.8461538461539  L 11 27.076923076923  L 0.307692307692378 22.7993544916622  L 11 14.7692307692308  L 11 0  L 625 0  L 625 108  L 11 108  Z " stroke-width="2" stroke="#797979" fill="none" stroke-opacity="0.498039215686275" transform="matrix(1 0 0 1 529 39 )" mask="url(#clip15)" />
  </g>
</svg>