<?xml version="1.0" encoding="utf-8"?>
<svg version="1.1" xmlns:xlink="http://www.w3.org/1999/xlink" width="8px" height="5px" xmlns="http://www.w3.org/2000/svg">
  <g transform="matrix(1 0 0 1 -560 -102 )">
    <path d="M 7.501875 4.41629464285714  C 7.39828125 3.01799665178571  6.640625 1.63239397321428  5.9175 1.08286830357143  C 5.194375 0.533342633928572  5.02578125 0.625837053571428  5.02578125 0.625837053571428  C 4.723125 0.774553571428571  4.381875 0.867047991071426  4.0121875 0.867047991071426  C 3.61203125 0.867047991071426  3.24234375 0.761858258928571  2.9234375 0.589564732142856  C 1.62953125 1.13002232142857  0.664687500000001 2.6044921875  0.522500000000001 4.39271763392857  L 7.501875 4.41629464285714  Z M 4.53015625 3.51130022321429  L 4.0121875 3.99009486607143  L 3.49421875 3.51130022321429  L 3.9634375 1.32407924107143  L 3.70140625 0.999441964285715  C 3.7684375 0.917829241071429  4.251875 0.908761160714286  4.325 0.999441964285715  L 4.0609375 1.32407924107143  L 4.53015625 3.51130022321429  Z " fill-rule="nonzero" fill="#8a8a8a" stroke="none" transform="matrix(1 0 0 1 560 102 )" />
  </g>
</svg>