<?xml version="1.0" encoding="utf-8"?>
<svg version="1.1" xmlns:xlink="http://www.w3.org/1999/xlink" width="5px" height="4px" xmlns="http://www.w3.org/2000/svg">
  <g transform="matrix(1 0 0 1 -562 -96 )">
    <path d="M 3.711328125 0.625634765625  L 3.71979166666667 0.591357421875  L 3.28815104166667 0.60849609375  L 3.28815104166667 1.5416015625  C 3.28815104166667 1.935791015625  3.000390625 2.259521484375  2.65 2.259521484375  L 1.37369791666667 2.259521484375  C 1.02330729166667 2.259521484375  0.735546875000001 1.935791015625  0.735546875000001 1.5416015625  L 0.735546875000001 0.55517578125  L 0.288671875000001 0.55517578125  L 0.288671875000001 0.572314453125  L 0.280208333333334 1.2369140625  L 0.295442708333334 1.973876953125  C 0.342838541666667 2.4404296875  0.798177083333333 2.781298828125  1.24505208333333 2.7908203125  L 2.77018229166667 2.7908203125  C 3.24921875 2.7908203125  3.640234375 2.387109375  3.711328125 1.874853515625  L 3.711328125 1.2369140625  L 3.71979166666667 0.598974609374999  L 3.711328125 0.625634765625  Z " fill-rule="nonzero" fill="#8a8a8a" stroke="none" transform="matrix(1 0 0 1 562 96 )" />
  </g>
</svg>