<?xml version="1.0" encoding="utf-8"?>
<svg version="1.1" xmlns:xlink="http://www.w3.org/1999/xlink" width="14px" height="14px" xmlns="http://www.w3.org/2000/svg">
  <g transform="matrix(1 0 0 1 -557 -96 )">
    <path d="M 2.2118359375 0.585703125  L 5.19421875 0.585703125  L 2.2118359375 0.585703125  Z M 8.798671875 0.585703125  L 11.77216796875 0.585703125  L 8.798671875 0.585703125  Z M 13.44998046875 2.26173828125  C 13.448203125 1.339296875  12.694609375 0.585703125  11.7810546875 0.585703125  L 8.7737890625 0.585703125  L 8.7737890625 1.15623046875  L 11.85748046875 1.15623046875  C 12.410234375 1.15623046875  12.86345703125 1.609453125  12.86345703125 2.16220703125  L 12.86345703125 12.38548828125  C 12.86345703125 12.9382421875  12.410234375 13.39146484375  11.85748046875 13.39146484375  L 2.1371875 13.39146484375  C 1.58443359375 13.39146484375  1.1312109375 12.9382421875  1.1312109375 12.38548828125  L 1.1312109375 2.1604296875  C 1.1312109375 1.60767578125  1.58443359375 1.154453125  2.1371875 1.154453125  L 5.229765625 1.154453125  L 5.229765625 0.58392578125  L 2.2118359375 0.58392578125  C 1.28939453125 0.58392578125  0.5446875 1.33751953125  0.5446875 2.2599609375  L 0.5446875 12.316171875  C 0.5446875 13.23861328125  1.29828125 13.99220703125  2.22072265625 13.99220703125  L 11.7739453125 13.99220703125  C 12.69638671875 13.99220703125  13.44998046875 13.23861328125  13.44998046875 12.316171875  L 13.44998046875 2.26173828125  Z " fill-rule="nonzero" fill="#8a8a8a" stroke="none" transform="matrix(1 0 0 1 557 96 )" />
  </g>
</svg>