<?xml version="1.0" encoding="utf-8"?>
<svg version="1.1" xmlns:xlink="http://www.w3.org/1999/xlink" width="4px" height="4px" xmlns="http://www.w3.org/2000/svg">
  <g transform="matrix(1 0 0 1 -562 -95 )">
    <path d="M 1.23828125 3.776875  L 2.76341145833333 3.776875  L 1.23828125 3.776875  Z M 2.76341145833333 0.00484374999999986  L 2.75494791666667 0.00484374999999986  L 1.23828125 0.00484374999999986  L 2.76341145833333 0.00484374999999986  Z M 3.71979166666667 1.15453125  C 3.71302083333333 0.5309375  3.28984375 0.0129687499999996  2.76341145833333 0.00484374999999986  L 1.23828125 0.00484374999999986  C 0.711848958333333 0.00484374999999986  0.288671875 0.5228125  0.288671875 1.15453125  L 0.288671875 1.46125  L 0.735546874999999 1.46125  L 0.735546874999999 1.28859375  C 0.735546874999999 0.868125  1.02330729166667 0.522812499999999  1.37369791666667 0.522812499999999  L 2.65 0.522812499999999  C 3.000390625 0.522812499999999  3.28815104166667 0.868125  3.28815104166667 1.28859375  L 3.28815104166667 1.46125  L 3.71979166666667 1.46125  L 3.71979166666667 1.15453125  Z " fill-rule="nonzero" fill="#8a8a8a" stroke="none" transform="matrix(1 0 0 1 562 95 )" />
  </g>
</svg>