<?xml version="1.0" encoding="utf-8"?>
<svg version="1.1" xmlns:xlink="http://www.w3.org/1999/xlink" width="12px" height="15px" xmlns="http://www.w3.org/2000/svg">
  <g transform="matrix(1 0 0 1 -756 -42 )">
    <path d="M 10.9432353966346 13.9251087890625  C 11.1343489092548 13.7643427734375  11.1649558458534 13.4606336865234  11.0116167367788 13.2467137353516  L 8.95246976862981 10.3739114941406  C 9.05908209735577 10.2764026025391  9.16245663010817 10.1739920361328  9.26198452824519 10.0661551464844  C 9.71291111177885 9.57762137695313  10.0669802794471 9.00862215820312  10.3143679417067 8.37494178222656  C 10.5705834600361 7.7186417578125  10.7004830724159 7.0217342578125  10.7004830724159 6.30355618652344  C 10.7004830724159 5.58546805664063  10.5705696138822 4.88860552734375  10.3143540955529 4.23236545898438  C 10.0669664332933 3.59873006835938  9.712897265625 3.0297608203125  9.26198452824519 2.54125703613281  C 8.81107179086539 2.05275325195313  8.28588325420673 1.66916330566406  7.70098903395433 1.40116001953125  C 7.09524280348558 1.12359320800781  6.45202660907452 0.982853627929688  5.78918984675481 0.982853627929688  C 5.12633926532452 0.982853627929688  4.48308154597356 1.12359320800781  3.87730763671875 1.40116001953125  C 3.29241342998798 1.6691633203125  2.76719721454327 2.05275323730469  2.31628447716346 2.54125703613281  C 1.86535789362981 3.02974583496094  1.51128872596154 3.59871508300781  1.26388723106971 4.23236545898438  C 1.00767171274039 4.88862051269531  0.877758254206731 5.58546805664063  0.877758254206731 6.30355618652344  C 0.877758254206731 7.0217342578125  1.00767171274039 7.7186417578125  1.26388723106971 8.37494178222656  C 1.51127489332933 9.00862214355469  1.8653440609976 9.57763636230469  2.31627064453125 10.0661551464844  C 2.76718338191106 10.5546739306641  3.29238576472356 10.9382788476562  3.87729380408654 11.2062971337891  C 4.48306769981971 11.4838639453125  5.12631158653846 11.6246035253906  5.7891760141226 11.6246035253906  C 6.45199893028846 11.6246035253906  7.09524280348558 11.4838489599609  7.70098903395433 11.2062821484375  C 7.87569212289664 11.1262214355469  8.0449296859976 11.0356378417969  8.20860486778846 10.9352509130859  L 10.2965600030048 13.8482409082031  C 10.4498852794471 14.0621608740234  10.7290836688702 14.1052566503906  10.9201695027043 13.9445206347656  L 10.9432353966346 13.9251087890625  Z M 9.87026287409856 6.30354120117188  C 9.8702767202524 8.74165315429688  8.03950567157452 10.7251983105469  5.78918984675481 10.7251983105469  C 3.5388048452524 10.7251983105469  1.70796460637019 8.74165315429688  1.70796460637019 6.30354120117188  C 1.70796460637019 3.86562411621094  3.53879099909856 1.88222885742188  5.78918984675481 1.88222885742188  C 8.03950567157452 1.88222885742188  9.87026287409856 3.86562411621094  9.87026287409856 6.30354120117188  Z " fill-rule="nonzero" fill="#ffffff" stroke="none" transform="matrix(1 0 0 1 756 42 )" />
  </g>
</svg>