<?xml version="1.0" encoding="utf-8"?>
<svg version="1.1" xmlns:xlink="http://www.w3.org/1999/xlink" width="18px" height="17px" xmlns="http://www.w3.org/2000/svg">
  <g transform="matrix(1 0 0 1 -566 -180 )">
    <path d="M 16.7375574396307 7.24194225027902  C 16.4027798717152 7.24194225027902  16.1386862016158 7.50338284621466  16.1386862016158 7.83435487699963  L 16.1386862016158 14.6974386207217  C 16.1386862016158 15.2721346923828  15.6635833207564 15.7600479341053  15.0649573774858 15.7600479341053  L 2.72344310635653 15.7600479341053  C 2.1426005526456 15.7600479341053  1.6495916348544 15.2896085681734  2 14.6974386207217  L 2 2.48662349562872  C 1.64959161487926 1.91180607445127  2.12493979048295 1.42413553176153  2.72344308638139 1.42413553176153  L 10.188238782848 1.42413553176153  C 10.5227506214489 1.42413553176153  10.7868647261186 1.16281628534226  10.7868647261186 0.831722905040923  C 10.7868647261186 0.500872223772322  10.5227506214489 0.239552977353051  10.188238782848 0.239552977353051  L 2.72344310635653 0.239552957589286  C 1.47355644087358 0.239552957589286  0.47000049050071 1.23248926827567  0.47000049050071 2.46914961983817  L 0.47000049050071 14.6799647251674  C 0.47000049050071 15.9166048583984  1.47355644087358 16.9096827369327  2.72344310635653 17  L 15.0649573774858 17  C 16.3148236083984 16.9096827369327  17.3183999933416 15.9166048583984  17.3183999933416 14.6799647251674  L 17.3183999933416 7.81688102097284  C 17.335938088157 7.50338284621466  17.0718444180575 7.24194225027902  16.7375574396307 7.24194225027902  Z " fill-rule="nonzero" fill="#1890ff" stroke="none" transform="matrix(1 0 0 1 566 180 )" />
  </g>
</svg>