<?xml version="1.0" encoding="utf-8"?>
<svg version="1.1" xmlns:xlink="http://www.w3.org/1999/xlink" width="204px" height="93px" xmlns="http://www.w3.org/2000/svg">
  <g transform="matrix(1 0 0 1 -49 -77 )">
    <path d="M 50 79  A 1 1 0 0 1 51 78 L 251 78  A 1 1 0 0 1 252 79 L 252 168  A 1 1 0 0 1 251 169 L 51 169  A 1 1 0 0 1 50 168 L 50 79  Z " fill-rule="nonzero" fill="#ffffff" stroke="none" />
    <path d="M 49.5 79  A 1.5 1.5 0 0 1 51 77.5 L 251 77.5  A 1.5 1.5 0 0 1 252.5 79 L 252.5 168  A 1.5 1.5 0 0 1 251 169.5 L 51 169.5  A 1.5 1.5 0 0 1 49.5 168 L 49.5 79  Z " stroke-width="1" stroke="#f2f2f2" fill="none" stroke-opacity="0.2" />
  </g>
</svg>