<?xml version="1.0" encoding="utf-8"?>
<svg version="1.1" xmlns:xlink="http://www.w3.org/1999/xlink" width="10px" height="9px" xmlns="http://www.w3.org/2000/svg">
  <g transform="matrix(1 0 0 1 -219 -221 )">
    <path d="M 2.54282926829268 3.65707317073171  C 2.54282926829268 2.11170731707317  3.80721951219512 0.847317073170731  5.35258536585366 0.847317073170731  C 6.8979512195122 0.847317073170731  8.16234146341463 2.11170731707317  8.16234146341463 3.65707317073171  C 8.16234146341463 5.20243902439024  6.8979512195122 6.46682926829268  5.35258536585366 6.46682926829268  C 4.73443902439024 6.46682926829268  4.14439024390244 6.27014634146342  3.66673170731707 5.90487804878049  L 3.41385365853659 5.70819512195122  L 3.21717073170732 5.48341463414634  C 2.76760975609756 4.97765853658537  2.54282926829268 4.33141463414634  2.54282926829268 3.65707317073171  Z M 9.00526829268293 3.65707317073171  C 9.00526829268293 1.6340487804878  7.37560975609756 0.00439024390243858  5.35258536585366 0.00439024390243858  C 3.32956097560976 0.00439024390243858  1.69990243902439 1.6340487804878  1.69990243902439 3.65707317073171  C 1.69990243902439 4.55619512195122  2.03707317073171 5.3710243902439  2.57092682926829 6.01726829268293  C 2.54282926829268 6.04536585365854  2.51473170731707 6.04536585365854  2.48663414634146 6.07346341463415  L 2.0089756097561 6.55112195121951  L 0.744585365853659 5.28673170731707  C 0.660292682926829 5.20243902439024  0.54790243902439 5.17434146341463  0.435512195121951 5.17434146341463  C 0.323121951219512 5.17434146341463  0.210731707317073 5.20243902439024  0.126439024390244 5.28673170731707  C -0.0421463414634146 5.45531707317073  -0.0421463414634146 5.70819512195122  0.126439024390244 5.87678048780488  L 1.39082926829268 7.14117073170732  L 0.885073170731707 7.64692682926829  C 0.716487804878049 7.81551219512195  0.716487804878049 8.06839024390244  0.885073170731707 8.2369756097561  C 0.969365853658537 8.32126829268293  1.08175609756098 8.34936585365854  1.19414634146342 8.34936585365854  C 1.30653658536585 8.34936585365854  1.41892682926829 8.32126829268293  1.50321951219512 8.2369756097561  L 2.0089756097561 7.73121951219512  L 3.13287804878049 8.85512195121951  C 3.21717073170732 8.93941463414634  3.32956097560976 8.96751219512195  3.44195121951219 8.96751219512195  C 3.55434146341463 8.96751219512195  3.66673170731707 8.93941463414634  3.7510243902439 8.85512195121951  C 3.91960975609756 8.68653658536585  3.91960975609756 8.43365853658537  3.7510243902439 8.26507317073171  L 2.62712195121951 7.14117073170732  L 3.10478048780488 6.66351219512195  C 3.13287804878049 6.63541463414634  3.1609756097561 6.57921951219512  3.18907317073171 6.55112195121951  C 3.7510243902439 7.02878048780488  4.50965853658537 7.30975609756098  5.35258536585366 7.30975609756098  C 7.37560975609756 7.30975609756098  9.00526829268293 5.68009756097561  9.00526829268293 3.65707317073171  Z " fill-rule="nonzero" fill="#8a8a8a" stroke="none" transform="matrix(1 0 0 1 219 221 )" />
  </g>
</svg>