<?xml version="1.0" encoding="utf-8"?>
<svg version="1.1" xmlns:xlink="http://www.w3.org/1999/xlink" width="14px" height="14px" xmlns="http://www.w3.org/2000/svg">
  <g transform="matrix(1 0 0 1 -311 -185 )">
    <path d="M 13.5926076884191 7.00391176470588  C 13.5926076731388 3.38539112477022  10.6397982714844 0.452259060891544  6.99699703297334 0.452259060891544  C 3.35417602171416 0.452259060891544  0.401366604779412 3.3853120948989  0.401366604779412 7.00391176470588  C 0.401366604779412 10.622412662454  3.35417602171415 13.5560188597197  6.99699703297334 13.5560188597197  C 10.6397982867647 13.5560188597197  13.5926077036994 10.6224324046415  13.5926076884191 7.00391176470588  Z M 8.9900411506204 4.41914409179688  C 8.99006090808824 4.6756610267693  8.94932324034926 4.92237879250919  8.86836155319393 5.15844786374081  C 8.7367840144761 5.54085249230239  8.49129115062041 6.00720201757813  8.13142855514706 6.55775327136949  C 7.77249451482077 7.10877867382812  7.19268405560662 7.84679828676471  6.39247132617188 8.77210844163603  C 6.29137789476103 8.8880191640625  5.72924940659467 9.47106966463695  4.70622414866728 10.5225638751149  L 4.42570320438879 10.5225638751149  C 4.30362848816636 7.33907888534007  4.05072697116268 5.35172459754136  3.66585279664522 4.56261496909467  C 3.53960948391544 4.30601900425092  3.32946078940717 4.1777605367647  3.03542647058824 4.17776055204504  C 2.90886705365349 4.17776055204504  2.72951857065717 4.20036185753676  2.49645246645221 4.24558422598805  L 2.44297191957721 3.98118448920037  L 4.63792632605699 3.51366933444393  C 4.79390348695379 3.88287968973279  4.92080276030453 4.26370963317668  5.0174662745864 4.65268434466912  C 5.15437803929228 5.22137196070772  5.26582381847427 5.89486719818474  5.35178386994485 6.67455303400735  C 5.39283764188879 7.06681610420496  5.44793820944393 7.89703877699908  5.5191007120864 9.16431223943015  C 6.15154219289982 8.47029010834099  6.5289879720818 8.04050965429688  6.65076634156709 7.87435844163603  C 7.31892736833639 6.97435621254596  7.70380154285386 6.44587284317555  7.80534938074448 6.28967884420956  C 7.97235011868106 6.02358005687041  8.08873500505515 5.78921003619026  8.15493865831801 5.58809001551011  C 8.21035533007812 5.43723024253217  8.2383698761489 5.29375934995404  8.2383698761489 5.15801321472886  C 8.2383698761489 5.02766057789522  8.12028595450368 4.87632664096967  7.88514542313879 4.70531536626838  C 7.6499258771829 4.53430407628677  7.53146657892923 4.3434376160386  7.53146657892923 4.13253816831342  C 7.53146657892923 3.97130629009651  7.5964453303079 3.82823053159467  7.72563235294118 3.70244162534467  C 7.85474034570312 3.57657367394302  8.00808942210478 3.51406446852022  8.1848893292739 3.51406446852022  C 8.39750756973805 3.51406446852022  8.58503520128676 3.60081477286305  8.74656342624081 3.77437462339155  C 8.90902020634191 3.94785545932904  8.9900411506204 4.16254812695313  8.9900411506204 4.41914409179688  Z " fill-rule="nonzero" fill="#8a8a8a" stroke="none" transform="matrix(1 0 0 1 311 185 )" />
  </g>
</svg>