<?xml version="1.0" encoding="utf-8"?>
<svg version="1.1" xmlns:xlink="http://www.w3.org/1999/xlink" width="13px" height="13px" xmlns="http://www.w3.org/2000/svg">
  <g transform="matrix(1 0 0 1 -202 -415 )">
    <path d="M 12.08466796875 2.462890625  C 12.08466796875 1.7494140625  11.50068359375 1.16669921875  10.78720703125 1.16669921875  L 2.21279296875 1.16669921875  C 1.49677734375 1.16796875  0.91787109375 1.74814453125  0.91533203125 2.462890625  L 0.91533203125 10.55361328125  C 0.91787109375 11.268359375  1.49677734375 11.84853515625  2.21279296875 11.8498046875  L 10.78720703125 11.8498046875  C 11.501953125 11.847265625  12.08212890625 11.268359375  12.08466796875 10.55361328125  L 12.08466796875 2.462890625  Z M 11.6314453125 10.5548828125  L 11.63271484375 10.5548828125  C 11.63271484375 11.02080078125  11.25439453125 11.39912109375  10.7884765625 11.39912109375  L 2.21279296875 11.39912109375  C 1.746875 11.39912109375  1.3685546875 11.02080078125  1.3685546875 10.5548828125  L 1.3685546875 2.462890625  C 1.3685546875 1.99697265625  1.746875 1.61865234375  2.21279296875 1.61865234375  L 10.78720703125 1.61865234375  C 11.253125 1.61865234375  11.6314453125 1.99697265625  11.6314453125 2.462890625  L 11.6314453125 10.5548828125  Z " fill-rule="nonzero" fill="#555555" stroke="none" transform="matrix(1 0 0 1 202 415 )" />
  </g>
</svg>