<?xml version="1.0" encoding="utf-8"?>
<svg version="1.1" xmlns:xlink="http://www.w3.org/1999/xlink" width="13px" height="13px" xmlns="http://www.w3.org/2000/svg">
  <g transform="matrix(1 0 0 1 -202 -415 )">
    <path d="M 2.21279296875 11.95771484375  L 2.21279296875 11.958984375  C 1.44091796875 11.9564453125  0.81123046875 11.3267578125  0.80869140625 10.5548828125  L 0.80869140625 2.462890625  C 0.81123046875 1.691015625  1.44091796875 1.061328125  2.21279296875 1.0587890625  L 10.7884765625 1.0587890625  C 11.16171875 1.0587890625  11.5146484375 1.20478515625  11.77998046875 1.47138671875  C 12.0453125 1.73798828125  12.192578125 2.0896484375  12.192578125 2.462890625  L 12.192578125 10.55361328125  C 12.1900390625 11.32548828125  11.5603515625 11.95517578125  10.7884765625 11.95771484375  L 2.21279296875 11.95771484375  Z M 10.78720703125 1.27333984375  L 2.21279296875 1.27333984375  C 1.558984375 1.27587890625  1.02451171875 1.80908203125  1.0232421875 2.462890625  L 1.0232421875 10.55361328125  C 1.02578125 11.207421875  1.558984375 11.74189453125  2.21279296875 11.7431640625  L 10.78720703125 11.7431640625  C 11.441015625 11.74189453125  11.97548828125 11.207421875  11.9767578125 10.55361328125  L 11.9767578125 2.462890625  C 11.9767578125 2.14677734375  11.85234375 1.8484375  11.62763671875 1.6224609375  C 11.4029296875 1.396484375  11.1033203125 1.27333984375  10.78720703125 1.27333984375  Z M 11.73935546875 10.55361328125  C 11.73935546875 11.07919921875  11.31279296875 11.50576171875  10.78720703125 11.50576171875  L 2.21279296875 11.50576171875  C 1.6884765625 11.50576171875  1.2619140625 11.0779296875  1.26064453125 10.55361328125  L 1.26064453125 2.462890625  C 1.26064453125 1.93857421875  1.68720703125 1.5107421875  2.21279296875 1.5107421875  L 10.78720703125 1.5107421875  C 11.3115234375 1.5107421875  11.73935546875 1.9373046875  11.73935546875 2.462890625  L 11.73935546875 10.55361328125  Z M 10.78720703125 1.72529296875  L 2.21279296875 1.72529296875  C 1.80654296875 1.72529296875  1.4751953125 2.05537109375  1.4751953125 2.462890625  L 1.4751953125 10.55361328125  C 1.4751953125 10.95986328125  1.80654296875 11.2912109375  2.21279296875 11.2912109375  L 10.78720703125 11.2912109375  C 11.19345703125 11.2912109375  11.5248046875 10.95986328125  11.5248046875 10.55361328125  L 11.5248046875 2.462890625  C 11.5248046875 2.056640625  11.19345703125 1.72529296875  10.78720703125 1.72529296875  Z " fill-rule="nonzero" fill="#555555" stroke="none" transform="matrix(1 0 0 1 202 415 )" />
  </g>
</svg>