<?xml version="1.0" encoding="utf-8"?>
<svg version="1.1" xmlns:xlink="http://www.w3.org/1999/xlink" width="5px" height="6px" xmlns="http://www.w3.org/2000/svg">
  <g transform="matrix(1 0 0 1 -206 -419 )">
    <path d="M 1.1958984375 4.6076171875  C 1.19482421875 4.92666015625  0.935937500000001 5.18232421875  0.6201171875 5.18232421875  L 0.6115234375 5.18232421875  C 0.295703125 5.18232421875  0.0357421874999995 4.9234375  0.0357421874999995 4.6076171875  L 0.0357421874999995 1.7072265625  C 0.0357421874999995 1.39140625  0.29462890625 1.1314453125  0.6115234375 1.1314453125  L 0.6201171875 1.1314453125  C 0.9359375 1.1314453125  1.1958984375 1.39033203125  1.1958984375 1.7072265625  L 1.1958984375 4.6076171875  Z M 0.6201171875 1.447265625  C 0.6201171875 1.4515625  0.6115234375 1.4515625  0.6115234375 1.4515625  C 0.4697265625 1.4515625  0.352636718749999 1.56865234375  0.352636718749999 1.71044921875  L 0.352636718749999 4.61083984375  C 0.352636718749999 4.75263671875  0.4697265625 4.8697265625  0.6115234375 4.8697265625  L 0.6201171875 4.8697265625  C 0.7619140625 4.8697265625  0.87900390625 4.75263671875  0.87900390625 4.61083984375  L 0.87900390625 1.70615234375  C 0.87900390625 1.56435546875  0.761914062500001 1.447265625  0.6201171875 1.447265625  Z M 4.87724609375 4.61083984375  C 4.87724609375 4.92666015625  4.618359375 5.18232421875  4.3025390625 5.18232421875  L 4.2939453125 5.18232421875  C 3.978125 5.18232421875  3.7181640625 4.9234375  3.7181640625 4.6076171875  L 3.7181640625 2.02197265625  C 3.7181640625 1.70615234375  3.97705078125 1.447265625  4.2939453125 1.447265625  L 4.3025390625 1.447265625  C 4.618359375 1.447265625  4.8783203125 1.70615234375  4.8783203125 2.02197265625  L 4.8783203125 2.4720703125  C 4.8783203125 2.55693359375  4.8052734375 2.62998046875  4.72041015625 2.62998046875  C 4.635546875 2.62998046875  4.5625 2.55693359375  4.5625 2.4720703125  L 4.5625 2.02197265625  C 4.5625 1.88017578125  4.44541015625 1.7630859375  4.30361328125 1.7630859375  L 4.2939453125 1.7630859375  C 4.1521484375 1.7630859375  4.03505859375 1.88017578125  4.03505859375 2.02197265625  L 4.03505859375 4.60654296875  C 4.03505859375 4.74833984375  4.1521484375 4.8654296875  4.2939453125 4.8654296875  L 4.3025390625 4.8654296875  C 4.4443359375 4.8654296875  4.56142578125 4.74833984375  4.56142578125 4.60654296875  L 4.56142578125 3.09619140625  C 4.56142578125 3.011328125  4.63447265625 2.93828125  4.7193359375 2.93828125  C 4.80419921875 2.93828125  4.87724609375 3.011328125  4.87724609375 3.09619140625  L 4.87724609375 4.61083984375  Z M 3.0349609375 4.6119140625  C 3.03388671875 4.92666015625  2.775 5.18232421875  2.4591796875 5.18232421875  L 2.4505859375 5.18232421875  C 2.134765625 5.18232421875  1.87587890625 4.9234375  1.87587890625 4.6076171875  L 1.87587890625 0.76298828125  C 1.87587890625 0.447167968750001  2.134765625 0.18720703125  2.4505859375 0.18720703125  L 2.4591796875 0.18720703125  C 2.775 0.18720703125  3.0349609375 0.44609375  3.0349609375 0.76298828125  L 3.0349609375 4.6119140625  Z M 2.4505859375 0.5041015625  L 2.4505859375 0.50302734375  C 2.3087890625 0.50302734375  2.19169921875 0.6201171875  2.19169921875 0.761914062500001  L 2.19169921875 4.61083984375  C 2.19169921875 4.75263671875  2.3087890625 4.8697265625  2.4505859375 4.8697265625  L 2.4591796875 4.8697265625  C 2.6009765625 4.8697265625  2.71806640625 4.75263671875  2.71806640625 4.61083984375  L 2.71806640625 0.76298828125  C 2.71806640625 0.62119140625  2.6009765625 0.5041015625  2.4591796875 0.5041015625  L 2.4505859375 0.5041015625  Z " fill-rule="nonzero" fill="#555555" stroke="none" transform="matrix(1 0 0 1 206 419 )" />
  </g>
</svg>