<?xml version="1.0" encoding="utf-8"?>
<svg version="1.1" xmlns:xlink="http://www.w3.org/1999/xlink" width="9px" height="10px" xmlns="http://www.w3.org/2000/svg">
  <g transform="matrix(1 0 0 1 -905 -317 )">
    <path d="M 4.46464285714286 8.6875  C 3.90696428571429 9  3.35571428571429 9.1578125  2.82535714285714 9.1578125  C 1.65535714285714 9.1578125  0.475714285714286 8.3203125  0.475714285714286 6.4484375  L 0.475714285714286 3.90625  C 0.475714285714286 2.034375  1.65535714285714 1.1953125  2.82535714285714 1.1953125  C 3.35571428571429 1.1953125  3.90696428571428 1.3546875  4.46464285714286 1.6671875  L 6.72910714285714 2.9390625  C 7.71267857142857 3.4921875  8.27839285714286 4.3078125  8.27839285714286 5.178125  C 8.27839285714286 6.0484375  7.71267857142857 6.865625  6.7275 7.4171875  L 4.46464285714286 8.6875  Z M 3.66107142857143 3.0203125  C 3.35571428571429 2.85  3.06642857142857 2.7578125  2.82535714285714 2.7578125  C 2.15517857142857 2.7578125  2.08285714285714 3.5609375  2.08285714285714 3.90625  L 2.08285714285714 6.446875  C 2.08285714285714 6.7921875  2.15517857142857 7.59375  2.82535714285714 7.59375  C 3.06642857142857 7.59375  3.35571428571429 7.503125  3.66107142857143 7.3328125  L 5.92392857142857 6.0625  C 6.39964285714286 5.796875  6.67125 5.4734375  6.67125 5.1765625  C 6.67125 4.8796875  6.39964285714286 4.559375  5.92553571428572 4.2921875  L 3.66107142857143 3.0203125  Z " fill-rule="nonzero" fill="#39aafb" stroke="none" transform="matrix(1 0 0 1 905 317 )" />
  </g>
</svg>