<?xml version="1.0" encoding="utf-8"?>
<svg version="1.1" xmlns:xlink="http://www.w3.org/1999/xlink" width="22px" height="24px" xmlns="http://www.w3.org/2000/svg">
  <g transform="matrix(1 0 0 1 -898 -311 )">
    <path d="M 21.8563888888889 11.55  C 21.8563888888889 17.7347368421053  16.9873611111111 22.7684210526316  11 22.7684210526316  C 5.01416666666667 22.7684210526316  0.143611111111111 17.7347368421053  0.143611111111111 11.55  C 0.143611111111111 5.36210526315789  5.01416666666667 0.328421052631579  11 0.328421052631579  C 16.9873611111111 0.328421052631579  21.8563888888889 5.36210526315789  21.8563888888889 11.55  Z M 20.3286111111111 11.5484210526316  C 20.3286111111111 6.23210526315789  16.1440277777778 1.90578947368421  11 1.90578947368421  C 5.85597222222222 1.90578947368421  1.67138888888889 6.23210526315789  1.67138888888889 11.5484210526316  C 1.67138888888889 16.8631578947368  5.85597222222222 21.1878947368421  11 21.1878947368421  C 16.1440277777778 21.1878947368421  20.3286111111111 16.8631578947368  20.3286111111111 11.5484210526316  Z " fill-rule="nonzero" fill="#39aafb" stroke="none" transform="matrix(1 0 0 1 898 311 )" />
  </g>
</svg>