<?xml version="1.0" encoding="utf-8"?>
<svg version="1.1" xmlns:xlink="http://www.w3.org/1999/xlink" width="240px" height="32px" xmlns="http://www.w3.org/2000/svg">
  <defs>
    <mask fill="white" id="clip20">
      <path d="M 0 28  L 0 4  C 0 1.76  1.75999999999999 0  4 0  L 236 0  C 238.24 0  240 1.76  240 4  L 240 28  C 240 30.24  238.24 32  236 32  L 39.7922077922078 32  L 4 32  C 1.75999999999999 32  0 30.24  0 28  Z " fill-rule="evenodd" />
    </mask>
  </defs>
  <g transform="matrix(1 0 0 1 -461 -13 )">
    <path d="M 0 28  L 0 4  C 0 1.76  1.75999999999999 0  4 0  L 236 0  C 238.24 0  240 1.76  240 4  L 240 28  C 240 30.24  238.24 32  236 32  L 39.7922077922078 32  L 4 32  C 1.75999999999999 32  0 30.24  0 28  Z " fill-rule="nonzero" fill="#ffffff" stroke="none" transform="matrix(1 0 0 1 461 13 )" />
    <path d="M 0 28  L 0 4  C 0 1.76  1.75999999999999 0  4 0  L 236 0  C 238.24 0  240 1.76  240 4  L 240 28  C 240 30.24  238.24 32  236 32  L 39.7922077922078 32  L 4 32  C 1.75999999999999 32  0 30.24  0 28  Z " stroke-width="2" stroke="#d9d9d9" fill="none" transform="matrix(1 0 0 1 461 13 )" mask="url(#clip20)" />
  </g>
</svg>