<?xml version="1.0" encoding="utf-8"?>
<svg version="1.1" xmlns:xlink="http://www.w3.org/1999/xlink" width="126px" height="30px" xmlns="http://www.w3.org/2000/svg">
  <g>
    <path d="M 1 2  A 1 1 0 0 1 2 1 L 124 1  A 1 1 0 0 1 125 2 L 125 28  A 1 1 0 0 1 124 29 L 2 29  A 1 1 0 0 1 1 28 L 1 2  Z " fill-rule="nonzero" fill="#ffffff" stroke="none" />
    <path d="M 0.5 2  A 1.5 1.5 0 0 1 2 0.5 L 124 0.5  A 1.5 1.5 0 0 1 125.5 2 L 125.5 28  A 1.5 1.5 0 0 1 124 29.5 L 2 29.5  A 1.5 1.5 0 0 1 0.5 28 L 0.5 2  Z " stroke-width="1" stroke="#797979" fill="none" stroke-opacity="0.0980392156862745" />
  </g>
</svg>