<?xml version="1.0" encoding="utf-8"?>
<svg version="1.1" xmlns:xlink="http://www.w3.org/1999/xlink" width="205px" height="137px" xmlns="http://www.w3.org/2000/svg">
  <g transform="matrix(1 0 0 1 0 -35 )">
    <path d="M 1 37  A 1 1 0 0 1 2 36 L 203 36  A 1 1 0 0 1 204 37 L 204 170  A 1 1 0 0 1 203 171 L 2 171  A 1 1 0 0 1 1 170 L 1 37  Z " fill-rule="nonzero" fill="#ffffff" stroke="none" />
    <path d="M 0.5 37  A 1.5 1.5 0 0 1 2 35.5 L 203 35.5  A 1.5 1.5 0 0 1 204.5 37 L 204.5 170  A 1.5 1.5 0 0 1 203 171.5 L 2 171.5  A 1.5 1.5 0 0 1 0.5 170 L 0.5 37  Z " stroke-width="1" stroke="#797979" fill="none" stroke-opacity="0.0980392156862745" />
  </g>
</svg>