<?xml version="1.0" encoding="utf-8"?>
<svg version="1.1" xmlns:xlink="http://www.w3.org/1999/xlink" width="113px" height="31px" xmlns="http://www.w3.org/2000/svg">
  <g transform="matrix(1 0 0 1 -518 -141 )">
    <path d="M 519 143  A 1 1 0 0 1 520 142 L 629 142  A 1 1 0 0 1 630 143 L 630 170  A 1 1 0 0 1 629 171 L 520 171  A 1 1 0 0 1 519 170 L 519 143  Z " fill-rule="nonzero" fill="#ffffff" stroke="none" />
    <path d="M 518.5 143  A 1.5 1.5 0 0 1 520 141.5 L 629 141.5  A 1.5 1.5 0 0 1 630.5 143 L 630.5 170  A 1.5 1.5 0 0 1 629 171.5 L 520 171.5  A 1.5 1.5 0 0 1 518.5 170 L 518.5 143  Z " stroke-width="1" stroke="#797979" fill="none" stroke-opacity="0.2" />
  </g>
</svg>