<?xml version="1.0" encoding="utf-8"?>
<svg version="1.1" xmlns:xlink="http://www.w3.org/1999/xlink" width="8px" height="5px" xmlns="http://www.w3.org/2000/svg">
  <g transform="matrix(1 0 0 1 -872 -95 )">
    <path d="M 7.54166666666667 1.7578125  C 7.83333333333333 1.484375  7.79166666666667 1.1328125  7.58333333333333 0.8984375  C 7.45833333333333 0.78125  7.29166666666667 0.7421875  7.125 0.7421875  L 0.875 0.78125  C 0.708333333333333 0.78125  0.541666666666667 0.8203125  0.416666666666667 0.9375  C 0.166666666666667 1.171875  0.166666666666667 1.5234375  0.416666666666667 1.7578125  L 3.54166666666667 4.6875  C 3.58333333333333 4.7265625  3.66666666666667 4.765625  3.70833333333333 4.8046875  L 3.75 4.84375  C 3.95833333333333 4.921875  4.25 4.8828125  4.41666666666667 4.7265625  L 7.54166666666667 1.7578125  Z " fill-rule="nonzero" fill="#2c2c2c" stroke="none" transform="matrix(1 0 0 1 872 95 )" />
  </g>
</svg>