<?xml version="1.0" encoding="utf-8"?>
<svg version="1.1" xmlns:xlink="http://www.w3.org/1999/xlink" width="142px" height="29px" xmlns="http://www.w3.org/2000/svg">
  <g transform="matrix(1 0 0 1 -98 -24 )">
    <path d="M 99 26  A 1 1 0 0 1 100 25 L 238 25  A 1 1 0 0 1 239 26 L 239 51  A 1 1 0 0 1 238 52 L 100 52  A 1 1 0 0 1 99 51 L 99 26  Z " fill-rule="nonzero" fill="#ffffff" stroke="none" />
    <path d="M 98.5 26  A 1.5 1.5 0 0 1 100 24.5 L 238 24.5  A 1.5 1.5 0 0 1 239.5 26 L 239.5 51  A 1.5 1.5 0 0 1 238 52.5 L 100 52.5  A 1.5 1.5 0 0 1 98.5 51 L 98.5 26  Z " stroke-width="1" stroke="#797979" fill="none" stroke-opacity="0.0980392156862745" />
  </g>
</svg>