<?xml version="1.0" encoding="utf-8"?>
<svg version="1.1" xmlns:xlink="http://www.w3.org/1999/xlink" width="31px" height="31px" xmlns="http://www.w3.org/2000/svg">
  <g transform="matrix(1 0 0 1 -464 -13 )">
    <path d="M 30.744140625 15.59228515625  C 30.744140625 24.01962890625  23.863427734375 30.9150390625  15.453857421875 30.9150390625  C 7.0439453125 30.9150390625  0.16357421875 24.01962890625  0.16357421875 15.59228515625  C 0.16357421875 7.16494140625  7.0439453125 0.269873046875  15.453857421875 0.269873046875  C 23.86376953125 0.269873046875  30.744140625 7.16494140625  30.744140625 15.59228515625  Z M 20.386669921875 27.3466796875  L 20.3876953125 27.347021484375  C 23.4436058636443 26.0383883732553  25.8760824177571 23.6001566518611  27.177490234375 20.541162109375  C 28.5150375469235 17.3774743525857  28.5150375469235 13.8070959599143  27.177490234375 10.643408203125  C 25.8763814264992 7.58421206810569  23.4438081622235 5.14588340773526  20.3876953125 3.837548828125  C 17.2354431084874 2.49860360644391  13.6743225165126 2.49860360644391  10.5220703125 3.837548828125  C 7.46500227406251 5.14518026510059  5.0315521019849 7.58365139521026  3.730224609375 10.643408203125  C 2.39267729682653 13.8070959599143  2.39267729682653 17.3774743525857  3.730224609375 20.541162109375  C 5.03147039654931 23.6005399795209  7.46448741969849 26.0388227431571  10.521044921875 27.3466796875  C 13.6733452475383 28.6853885081358  17.2343695962117 28.6853885081358  20.386669921875 27.3466796875  Z " fill-rule="nonzero" fill="#ffffff" stroke="none" transform="matrix(1 0 0 1 464 13 )" />
  </g>
</svg>