<?xml version="1.0" encoding="utf-8"?>
<svg version="1.1" xmlns:xlink="http://www.w3.org/1999/xlink" width="8px" height="13px" xmlns="http://www.w3.org/2000/svg">
  <g transform="matrix(1 0 0 1 -138 -26 )">
    <path d="M 1.5125078125 1.5475078125  C 2.1875078125 0.859992187499997  3.1124921875 0.524999999999997  4.2899921875 0.524999999999999  C 5.3099921875 0.524999999999999  6.1375 0.794999999999999  6.775 1.3699921875  C 7.4125 1.9275  7.7300078125 2.6925  7.7300078125 3.6475078125  C 7.7300078125 4.4275078125  7.5224921875 5.0800078125  7.1249921875 5.5900078125  C 6.9824921875 5.7649921875  6.535 6.18  5.7875078125 6.8325  C 5.485 7.0875  5.2625078125 7.3750078125  5.1175 7.6600078125  C 4.9424921875 7.9774921875  4.8625 8.3299921875  4.8625 8.7124921875  L 4.8625 8.9824921875  L 3.1574921875 8.9824921875  L 3.1574921875 8.7124921875  C 3.1574921875 8.1225  3.2525078125 7.6125  3.475 7.2  C 3.6824921875 6.7549921875  4.2875078125 6.1000078125  5.275 5.2249921875  L 5.545 4.9225078125  C 5.8325078125 4.5550078125  5.9900078125 4.1749921875  5.9900078125 3.7600078125  C 5.9900078125 3.2025  5.83 2.7724921875  5.5274921875 2.4550078125  C 5.2100078125 2.1375  4.7474921875 1.9774921875  4.1725 1.9774921875  C 3.4550078125 1.9774921875  2.9300078125 2.2000078125  2.6125 2.6625  C 2.3249921875 3.045  2.1824921875 3.5875078125  2.1824921875 4.2874921875  L 0.5099921875 4.2874921875  C 0.5099921875 3.1249921875  0.8450078125 2.2174921875  1.5125078125 1.5475078125  Z M 3.1799921875 10.1575078125  C 3.3974921875 9.93750000000001  3.685 9.8425078125  4.0049921875 9.8425078125  C 4.3400078125 9.8425078125  4.6250078125 9.9375  4.8500078125 10.1599921875  C 5.0725 10.3675078125  5.185 10.6375078125  5.185 10.9725  C 5.185 11.3074921875  5.0575 11.5774921875  4.8350078125 11.8000078125  C 4.6124921875 12.0075  4.3250078125 12.1174921875  4.0075 12.1174921875  C 3.6899921875 12.1174921875  3.4025078125 12.0049921875  3.1799921875 11.7825  C 2.9575 11.5600078125  2.845 11.2875  2.845 10.9699921875  C 2.845 10.635  2.9575 10.365  3.1799921875 10.1575078125  Z " fill-rule="nonzero" fill="#d7d7d7" stroke="none" transform="matrix(1 0 0 1 138 26 )" />
  </g>
</svg>