<?xml version="1.0" encoding="utf-8"?>
<svg version="1.1" xmlns:xlink="http://www.w3.org/1999/xlink" width="36px" height="33px" xmlns="http://www.w3.org/2000/svg">
  <g transform="matrix(1 0 0 1 -69 -225 )">
    <path d="M 35.8181031604672 11.5290476246952  L 35.8181031604672 17.0345426633295  C 35.7250740183869 17.0269183041303  35.631764656231 17.0230596564462  35.5384122163522 17.02297652689  L 28.8258300204852 17.02297652689  C 26.9722016311036 17.02297652689  25.4695389225517 18.4988059727893  25.4695389225517 20.3193338552176  C 25.4695389225517 22.1398617376458  26.9722016311036 23.6156911835451  28.8258300204852 23.6156911835451  L 35.5384122163522 23.6156911835451  C 35.6326238864331 23.6156911835451  35.7253635234501 23.6113538783211  35.8181031604672 23.6041250146323  L 35.8181031604672 29.10962008574  C 35.8181031604672 30.9301479681682  34.3154404519152 32.4059774140675  32.4618120625337 32.4059774140675  C 32.4618120625337 32.4059774140675  32.4618120294699 32.4059774140675  32.4618120294699 32  L 3.37395579227314 32  C 1.52032740289161 32.4059774140675  0.0176646943396227 30.9301479681682  0 29.10962008574  L 0 11.5290476246952  C 0.0176646943396227 9.70851974226687  1.52032740289161 8.2326902963676  3.37395579227314 8.2326902963676  L 32.4618120294699 8.2326902963676  C 34.3154404519152 8.2326902963676  35.8181031604672 9.70851974226687  35.8181031604672 11.5290476246952  Z M 33.1934246296496 6.58451161596714  L 33.191952563522 7  L 5.00499550619946 7  C 5.34651283090746 6.33873057527917  5.73071984186882 6.15945502207676  6.13847977861635 6.05391375510204  L 28.0044219155436 0.377817741239893  C 29.7944438454627 -0.0862746646130145  31.633043660018 0.94166832961109  32.1114623410602 2.6751474651521  L 33.1934246296496 6.58451161596714  Z M 28.8258300204852 18.1217622813503  L 34.6993394501348 18.1217622813503  C 35.3176035867026 18.1217622813503  35.8181031604672 18.6133243302529  35.8181031604672 19.2205480682839  L 35.8181031604672 21.4181196096778  C 35.8181031604672 22.0253433152355  35.3176036197664 22.5169053966115  34.6993394501348 22.5169053966115  L 28.8258300204852 22.5169053966115  C 27.590077757854 22.5169053966115  26.5883026163522 21.5330190969222  26.5883026163522 20.3193338389809  C 26.5883026163522 19.1056485810396  27.590077757854 18.1217622813503  28.8258300204852 18.1217622813503  Z M 29.1055209315364 21.6928160726479  C 29.877866092257 21.6928160726479  30.50397555292 21.0778871380681  30.50397555292 20.3193338552176  C 30.50397555292 19.560780572367  29.877866092257 18.9458516377872  29.1055209315364 18.9458516377872  C 28.3331757708158 18.9458516377872  27.7070663101527 19.560780572367  27.7070663101527 20.3193338552176  C 27.7070663101527 21.0778871380681  28.3331757708158 21.6928160726479  29.1055209315364 21.6928160726479  Z " fill-rule="nonzero" fill="#d81e06" stroke="none" transform="matrix(1 0 0 1 69 225 )" />
  </g>
</svg>