<?xml version="1.0" encoding="utf-8"?>
<svg version="1.1" xmlns:xlink="http://www.w3.org/1999/xlink" width="34px" height="34px" xmlns="http://www.w3.org/2000/svg">
  <g transform="matrix(1 0 0 1 -67 -140 )">
    <path d="M 32.2224947753906 8.94159900145854  C 26.9097970507813 12.4035550220555  14.5538552578125 20.4494667929059  12.9618986582031 21.4093688337909  C 10.9268132851563 22.6386477934649  10.6249637753906 20.7195409109107  10.6249637753906 20.7195409109107  L 8.07463247460938 14.2731560454429  C 7.09314836523438 11.2097702028572  8.9238353671875 12.8920060590638  8.9238353671875 12.8920060590638  C 8.9238353671875 12.8920060590638  10.4946415761719 14.1790916259166  11.6868990234375 14.9633492026965  C 12.8784260351563 15.7480052169748  14.2365330585938 15.1937788228212  14.2365330917969 15.1937788228212  L 30.910440453125 6.85743945162974  C 27.8338397871094 2.71093477180227  22.7523353554688 0  16.9991651074219 0  C 7.61032010742188 0  0 7.21477134856447  0 16.1151985083993  C 0 21.2352185103045  2.51978445898438 25.7911839930975  6.44525598632813 28.7442690881001  L 5.73729915429688 33.1521818703439  C 5.73729915429688 33.1521818703439  5.39198675390625 34.4389022028232  6.58806259375 33.842009793224  C 7.40286704882813 33.435504035168  9.48031957617188 31.9765259573194  10.7171356503906 31.0899031797981  C 12.7253615939766 31.8464154767071  14.8540041425332 32.2329402871007  16.9999951855469 32.2307622179689  C 26.3881097167969 32.2307622179689  33.9999571679688 25.0159908694044  33.9999571679688 16.1155637427728  C 33.9999571679688 13.537640655958  33.3584729589844 11.102889410338  32.2224947753906 8.94159900145854  Z " fill-rule="nonzero" fill="#41b035" stroke="none" transform="matrix(1 0 0 1 67 140 )" />
  </g>
</svg>