<?xml version="1.0" encoding="utf-8"?>
<svg version="1.1" xmlns:xlink="http://www.w3.org/1999/xlink" width="24px" height="24px" xmlns="http://www.w3.org/2000/svg">
  <g transform="matrix(1 0 0 1 -130 -20 )">
    <path d="M 23.2000078125 12  C 23.2000078125 18.1849921875  18.1849921875 23.2000078125  12 23.2000078125  C 5.8150078125 23.2000078125  0.7999921875 18.1849921875  0.7999921875 12  C 0.7999921875 5.8150078125  5.8150078125 0.7999921875  12 0.7999921875  C 18.1849921875 0.7999921875  23.2000078125 5.8150078125  23.2000078125 12  Z M 2.2924921875 12  C 2.2924921875 17.3599921875  6.6400078125 21.7075078125  12 21.7075078125  C 17.3599921875 21.7075078125  21.7075078125 17.3625  21.7075078125 12  C 21.7075078125 6.6375  17.3599921875 2.2924921875  12 2.2924921875  C 6.6400078125 2.2924921875  2.2924921875 6.6400078125  2.2924921875 12  Z " fill-rule="nonzero" fill="#d7d7d7" stroke="none" transform="matrix(1 0 0 1 130 20 )" />
  </g>
</svg>