<?xml version="1.0" encoding="utf-8"?>
<svg version="1.1" xmlns:xlink="http://www.w3.org/1999/xlink" width="187px" height="32px" xmlns="http://www.w3.org/2000/svg">
  <defs>
    <mask fill="white" id="clip27">
      <path d="M 0 28  L 0 4  C 0 1.76  1.75999999999999 0  4 0  L 64.2873563218391 0  L 183 0  C 185.24 0  187 1.76  187 4  L 187 28  C 187 30.24  185.24 32  183 32  L 4 32  C 1.75999999999999 32  0 30.24  0 28  Z " fill-rule="evenodd" />
    </mask>
  </defs>
  <g transform="matrix(1 0 0 1 -674 -19 )">
    <path d="M 0 28  L 0 4  C 0 1.76  1.75999999999999 0  4 0  L 64.2873563218391 0  L 183 0  C 185.24 0  187 1.76  187 4  L 187 28  C 187 30.24  185.24 32  183 32  L 4 32  C 1.75999999999999 32  0 30.24  0 28  Z " fill-rule="nonzero" fill="#ffffff" stroke="none" transform="matrix(1 0 0 1 674 19 )" />
    <path d="M 0 28  L 0 4  C 0 1.76  1.75999999999999 0  4 0  L 64.2873563218391 0  L 183 0  C 185.24 0  187 1.76  187 4  L 187 28  C 187 30.24  185.24 32  183 32  L 4 32  C 1.75999999999999 32  0 30.24  0 28  Z " stroke-width="2" stroke="#d9d9d9" fill="none" transform="matrix(1 0 0 1 674 19 )" mask="url(#clip27)" />
  </g>
</svg>