<?xml version="1.0" encoding="utf-8"?>
<svg version="1.1" xmlns:xlink="http://www.w3.org/1999/xlink" width="17px" height="18px" xmlns="http://www.w3.org/2000/svg">
  <g transform="matrix(1 0 0 1 -118 -26 )">
    <path d="M 15.9079650243427 8.15989670886076  L 9.16610866601753 8.15989670886076  L 9.16610866601753 1.23454340798442  C 9.16610866601753 0.914911571567672  8.86423415384616 0.488736420642648  8.46173540019474 0.488736420642648  C 8.05923664654333 0.488736420642648  7.75736213437196 0.914911571567672  7.75736213437196 1.3410867224927  L 7.75736213437196 8.26644002336904  L 1.21672923076923 8.26644002336904  C 0.814230477117819 8.15989614099318  0.411731723466407 8.58607185978578  0.411731723466407 9.01224701071081  C 0.411731723466407 9.43842216163584  0.814230477117819 9.75805399805258  1.11610498928919 9.75805399805258  L 7.65671644011684 9.75805399805258  L 7.65671644011684 16.6834072989289  C 7.75734121791626 17.1095824498539  8.05921519376826 17.535757600779  8.46171394741967 17.535757600779  C 8.86421270107108 17.535757600779  9.16608721324245 17.1095824498539  9.16608721324245 16.7899506134372  L 9.16608721324245 9.75804642648491  L 15.8073300564752 9.75804642648491  C 16.2098288101266 9.75804642648491  16.511703322298 9.33187127555988  16.511703322298 9.01223943914314  C 16.511703322298 8.69260760272639  16.3104530516066 8.15988913729309  15.9079542979552 8.15988913729309  Z " fill-rule="nonzero" fill="#ffffff" stroke="none" transform="matrix(1 0 0 1 118 26 )" />
  </g>
</svg>