<?xml version="1.0" encoding="utf-8"?>
<svg version="1.1" xmlns:xlink="http://www.w3.org/1999/xlink" width="9px" height="10px" xmlns="http://www.w3.org/2000/svg">
  <g transform="matrix(1 0 0 1 -123 -43 )">
    <path d="M 4.50041932178006 9.70788938581475  C 4.82174350137963 9.70788938581475  5.08222821601083 9.43913531516351  5.08222821601083 9.1076103679576  L 5.08222806490385 0.698081752232142  C 5.08222806490385 0.366317954199718  4.82155568116989 0.0973702566964274  4.5 0.0973702566964274  C 4.17844431883011 0.0973702566964274  3.91777193509615 0.366317954199718  3.91777193509615 0.698081752232142  L 3.91777193509615 9.10739397321428  C 3.91777189729221 9.43913531507927  4.1782566119234 9.70788938573051  4.49958079152298 9.70788938573051  Z M 1.00726051769353 9.70788938581475  C 1.3285846972931 9.70788938581475  1.5890694119243 9.43913531516351  1.5890694119243 9.1076103679576  L 1.58906926081731 0.698081752232142  C 1.58906926081731 0.366317954199718  1.32839687708335 0.0973702566964274  1.00684119591346 0.0973702566964274  C 0.685285514743573 0.0973702566964274  0.424613131009615 0.366317954199718  0.424613131009615 0.698081752232142  L 0.424613131009615 9.10739397321428  C 0.424613093205669 9.43913531507927  0.685097807836869 9.70788938573051  1.00642198743644 9.70788938573051  Z M 7.9935781258666 9.70788938581475  C 8.31490230546617 9.70788938581475  8.57538702009737 9.43913531516351  8.57538702009737 9.1076103679576  L 8.57538686899038 0.698081752232142  C 8.57538686899038 0.366317954199718  8.31471448525642 0.0973702566964274  7.99315880408654 0.0973702566964274  C 7.67160312291665 0.0973702566964274  7.41093073918269 0.366317954199718  7.41093073918269 0.698081752232142  L 7.41093073918269 9.10739397321428  C 7.41093070137874 9.43913531507927  7.67141541600994 9.70788938573051  7.99273959560951 9.70788938573051  Z " fill-rule="nonzero" fill="#ffffff" stroke="none" transform="matrix(1 0 0 1 123 43 )" />
  </g>
</svg>