<?xml version="1.0" encoding="utf-8"?>
<svg version="1.1" xmlns:xlink="http://www.w3.org/1999/xlink" width="86px" height="32px" xmlns="http://www.w3.org/2000/svg">
  <g transform="matrix(1 0 0 1 -514 -141 )">
    <path d="M 515 146  A 4 4 0 0 1 519 142 L 595 142  A 4 4 0 0 1 599 146 L 599 168  A 4 4 0 0 1 595 172 L 519 172  A 4 4 0 0 1 515 168 L 515 146  Z " fill-rule="nonzero" fill="#ffffff" stroke="none" />
    <path d="M 514.5 146  A 4.5 4.5 0 0 1 519 141.5 L 595 141.5  A 4.5 4.5 0 0 1 599.5 146 L 599.5 168  A 4.5 4.5 0 0 1 595 172.5 L 519 172.5  A 4.5 4.5 0 0 1 514.5 168 L 514.5 146  Z " stroke-width="1" stroke="#797979" fill="none" stroke-opacity="0.2" />
  </g>
</svg>