<?xml version="1.0" encoding="utf-8"?>
<svg version="1.1" xmlns:xlink="http://www.w3.org/1999/xlink" width="22px" height="22px" xmlns="http://www.w3.org/2000/svg">
  <g transform="matrix(1 0 0 1 -117 -34 )">
    <path d="M 21.7421875 5.62890625  C 21.7421875 3.9836328125  20.40349609375 2.64494140625  18.75822265625 2.64494140625  L 15.117265625 2.64494140625  C 14.83990234375 1.284765625  13.6344140625 0.2578125  12.193671875 0.2578125  L 9.806328125 0.2578125  C 8.36537109375 0.2578125  7.16009765625 1.284765625  6.882734375 2.64494140625  L 3.24177734375 2.64494140625  C 1.59650390625 2.64494140625  0.2578125 3.9836328125  0.2578125 5.62890625  C 0.257812345101798 5.95872216897697  0.524832518523027 6.2257423423982  0.854218595101798 6.2257423423982  L 3.24177734375 6.2257421875  L 3.24177734375 19.35505859375  C 3.243080079724 20.6728934964528  4.31107134729722 21.740884764026  5.62890625 21.7421875  L 16.37109375 21.7421875  C 17.6889286527028 21.740884764026  18.756919920276 20.6728934964528  18.75822265625 19.35505859375  L 18.75822265625 6.2257421875  L 21.1453515625 6.2257421875  C 21.475167481477 6.2257423423982  21.7421876548982 5.95872216897697  21.7421876548982 5.6293360923982  Z M 8.1180859375 2.64515625  C 8.37194454869451 1.93040967417534  9.0478389735494 1.45251842646679  9.806328125 1.451484375  L 12.193671875 1.451484375  C 12.9522398871435 1.45242765608583  13.6282438223767 1.93033551512077  13.88212890625 2.64515625  L 8.1180859375 2.64515625  Z M 17.564765625 6.2257421875  L 17.564765625 19.35505859375  C 17.5638187144272 20.0138779463216  17.0299132623442 20.5476873031109  16.37109375 20.548515625  L 5.62890625 20.548515625  C 4.97000299419877 20.5476870382294  4.43606296177062 20.0137470058012  4.435234375 19.35484375  L 4.435234375 6.2257421875  L 17.564765625 6.2257421875  Z M 20.4466796875 5.0320703125  L 18.7584375 5  L 1.5533203125 5  C 1.80720539637327 4.31724957762077  2.48320933160645 3.83934171858583  3.24177734375 4  L 18.75822265625 4  C 19.5167906683935 3.83934171858583  20.1927946036267 4.31724957762077  20.4466796875 5.0320703125  Z " fill-rule="nonzero" fill="#ffffff" stroke="none" transform="matrix(1 0 0 1 117 34 )" />
  </g>
</svg>