<?xml version="1.0" encoding="utf-8"?>
<svg version="1.1" xmlns:xlink="http://www.w3.org/1999/xlink" width="86px" height="32px" xmlns="http://www.w3.org/2000/svg">
  <g transform="matrix(1 0 0 1 -137 0 )">
    <path d="M 138 5  A 4 4 0 0 1 142 1 L 218 1  A 4 4 0 0 1 222 5 L 222 27  A 4 4 0 0 1 218 31 L 142 31  A 4 4 0 0 1 138 27 L 138 5  Z " fill-rule="nonzero" fill="#f2f2f2" stroke="none" fill-opacity="0" />
    <path d="M 137.5 5  A 4.5 4.5 0 0 1 142 0.5 L 218 0.5  A 4.5 4.5 0 0 1 222.5 5 L 222.5 27  A 4.5 4.5 0 0 1 218 31.5 L 142 31.5  A 4.5 4.5 0 0 1 137.5 27 L 137.5 5  Z " stroke-width="1" stroke="#797979" fill="none" stroke-opacity="0.2" />
  </g>
</svg>