<?xml version="1.0" encoding="utf-8"?>
<svg version="1.1" xmlns:xlink="http://www.w3.org/1999/xlink" width="713px" height="67px" xmlns="http://www.w3.org/2000/svg">
  <defs>
    <filter x="114px" y="42px" width="713px" height="67px" filterUnits="userSpaceOnUse" id="filter23">
      <feOffset dx="1" dy="1" in="SourceAlpha" result="shadowOffsetInner" />
      <feGaussianBlur stdDeviation="2.5" in="shadowOffsetInner" result="shadowGaussian" />
      <feComposite in2="shadowGaussian" operator="atop" in="SourceAlpha" result="shadowComposite" />
      <feColorMatrix type="matrix" values="0 0 0 0 0  0 0 0 0 0  0 0 0 0 0  0 0 0 0.0980392156862745 0  " in="shadowComposite" />
    </filter>
    <g id="widget24">
      <path d="M 0 54.9166666666666  L 0 9.08333333333337  C 0 7.91666666666663  0.879999999999995 7  2 7  L 12.8424908424909 7  L 23.0989010989011 0.959706959706978  L 26.0293040293041 7  L 33.0612244897959 7  L 38.8498168498169 7  L 701 7  C 702.12 7  703 7.91666666666663  703 9.08333333333337  L 703 54.9166666666666  C 703 56.0833333333334  702.12 57  701 57  L 2 57  C 0.879999999999995 57  0 56.0833333333334  0 54.9166666666666  Z " fill-rule="nonzero" fill="#ffffff" stroke="none" transform="matrix(1 0 0 1 118 46 )" />
    </g>
  </defs>
  <g transform="matrix(1 0 0 1 -114 -42 )">
    <use xlink:href="#widget24" filter="url(#filter23)" />
    <use xlink:href="#widget24" />
  </g>
</svg>