<?xml version="1.0" encoding="utf-8"?>
<svg version="1.1" xmlns:xlink="http://www.w3.org/1999/xlink" width="146px" height="209px" xmlns="http://www.w3.org/2000/svg">
  <defs>
    <filter x="288px" y="91px" width="146px" height="209px" filterUnits="userSpaceOnUse" id="filter25">
      <feOffset dx="1" dy="2" in="SourceAlpha" result="shadowOffsetInner" />
      <feGaussianBlur stdDeviation="2.5" in="shadowOffsetInner" result="shadowGaussian" />
      <feComposite in2="shadowGaussian" operator="atop" in="SourceAlpha" result="shadowComposite" />
      <feColorMatrix type="matrix" values="0 0 0 0 0  0 0 0 0 0  0 0 0 0 0  0 0 0 0.0980392156862745 0  " in="shadowComposite" />
    </filter>
    <g id="widget26">
      <path d="M 0 197  L 0 6  C 0 4.88  0.879999999999995 4  2 4  L 9.66666666666663 4  L 15.4279835390947 0.851851851851848  L 21.1893004115226 4  L 26.1275720164609 4  L 31.0658436213992 4  L 134 4  C 135.12 4  136 4.88  136 6  L 136 197  C 136 198.12  135.12 199  134 199  L 2 199  C 0.879999999999995 199  0 198.12  0 197  Z " fill-rule="nonzero" fill="#ffffff" stroke="none" transform="matrix(1 0 0 1 292 94 )" />
    </g>
  </defs>
  <g transform="matrix(1 0 0 1 -288 -91 )">
    <use xlink:href="#widget26" filter="url(#filter25)" />
    <use xlink:href="#widget26" />
  </g>
</svg>