<?xml version="1.0" encoding="utf-8"?>
<svg version="1.1" xmlns:xlink="http://www.w3.org/1999/xlink" width="18px" height="18px" xmlns="http://www.w3.org/2000/svg">
  <g transform="matrix(1 0 0 1 -336 -169 )">
    <path d="M 17.79721875 8.9934609375  C 17.79721875 4.1175  13.8672421875 0.187523437500001  8.99128125 0.1875234375  C 4.113140625 0.1875234375  0.185343750000001 4.1175  0.185343750000001 8.9934609375  C 0.185343750000001 13.8716015625  4.1153203125 17.7993984375  8.99128125 17.7993984375  C 13.869421875 17.7993984375  17.79721875 13.869421875  17.79721875 8.9934609375  Z M 14.266125 14.2726640625  C 12.866765625 15.66984375  10.9682578125 16.4523515625  8.99128125 16.4479921875  C 7.012125 16.45453125  5.1136171875 15.66984375  3.7164375 14.2726640625  C 2.317078125 12.8733046875  1.5345703125 10.974796875  1.541109375 8.9978203125  C 1.5345703125 7.0186640625  2.3192578125 5.12015625  3.7164375 3.7229765625  C 5.115796875 2.3236171875  7.0143046875 1.541109375  8.99128125 1.5476484375  C 10.9704375 1.541109375  12.8689453125 2.325796875  14.266125 3.7229765625  C 15.665484375 5.1223359375  16.4479921875 7.02084375  16.441453125 8.9978203125  C 16.4479921875 10.9769765625  15.6633046875 12.875484375  14.266125 14.2726640625  Z M 8.856140625 12.2455546875  C 8.481234375 12.247734375  8.1782578125 12.5507109375  8.1782578125 12.9234375  C 8.1782578125 13.29834375  8.481234375 13.6013203125  8.856140625 13.6013203125  C 9.231046875 13.6013203125  9.5340234375 13.29834375  9.5340234375 12.9234375  C 9.5340234375 12.54853125  9.231046875 12.2455546875  8.856140625 12.2455546875  Z M 9.4642734375 10.9551796875  C 9.396703125 11.367140625  9.126421875 11.5698515625  8.786390625 11.5698515625  C 8.62509375 11.5698515625  8.46815625 11.506640625  8.3548125 11.3911171875  C 8.2392890625 11.27559375  8.176078125 11.1208359375  8.176078125 10.9595390625  C 8.176078125 10.6892578125  8.3787890625 9.876234375  8.446359375 9.67134375  C 8.5182890625 9.4686328125  8.6338125 9.283359375  8.7842109375 9.1286015625  C 8.9193515625 8.925890625  9.1220625 8.79075  9.3945234375 8.5182890625  C 9.5296640625 8.3831484375  10.07240625 7.9079765625  10.1399765625 7.7728359375  C 10.207546875 7.705265625  10.2751171875 7.570125  10.3426875 7.5025546875  C 10.4102578125 7.3674140625  10.61296875 6.68953125  10.0048359375 6.07921875  C 9.5994140625 5.7391875  9.1918125 5.6716171875  8.9891015625 5.6716171875  C 8.176078125 5.6716171875  7.6333359375 6.1467890625  7.4981953125 7.1625234375  C 7.4981953125 7.1625234375  7.295484375 7.705265625  6.8203125 7.7728359375  C 6.4824609375 7.7728359375  6.21 7.570125  6.1424296875 7.23009375  C 6.1424296875 7.23009375  6.0072890625 6.754921875  6.345140625 6.07921875  C 6.615421875 5.5364765625  7.0230234375 4.9959140625  7.836046875 4.723453125  C 8.716640625 4.453171875  9.5296640625 4.5207421875  10.07240625 4.723453125  C 11.5633125 5.333765625  11.7660234375 6.61978125  11.7660234375 6.9598125  C 11.7660234375 7.1625234375  11.698453125 7.7728359375  11.4957421875 8.0431171875  C 10.817859375 8.99128125  10.0048359375 9.3988828125  9.666984375 10.007015625  C 9.5994140625 10.14215625  9.4642734375 10.887609375  9.4642734375 10.9551796875  Z " fill-rule="nonzero" fill="#8a8a8a" stroke="none" transform="matrix(1 0 0 1 336 169 )" />
  </g>
</svg>