<?xml version="1.0" encoding="utf-8"?>
<svg version="1.1" xmlns:xlink="http://www.w3.org/1999/xlink" width="11px" height="11px" xmlns="http://www.w3.org/2000/svg">
  <g transform="matrix(1 0 0 1 -90 -123 )">
    <path d="M 3.41715416796875 6.64839220117187  C 3.19134680430683 6.87467885450082  3.19134680430683 7.24105391503043  3.41715416796875 7.46734056835937  C 3.64320371679688 7.6928401171875  4.00895298632813 7.6928401171875  4.23445253515625 7.46734056835937  L 10.5572398808594 1.14510321191406  C 10.7832894296875 0.919053663085938  10.7832894296875 0.552204393554688  10.5572398808594 0.326154844726562  L 10.5555898916016 0.32450485546875  C 10.4473538911572 0.216693845790149  10.3008092165612 0.156161850513625  10.1480406150748 0.156161850513625  C 9.99446346418117 0.156161850513625  9.84721158929839 0.217334486734227  9.73884152441406 0.326154844726563  L 3.41715416796875 6.64839220117187  Z M 10.4213901601562 4.63099624023438  L 10.4186401601562 4.63099624023438  C 10.1001907939453 4.63099624023438  9.84224130957031 4.88894572460937  9.8422413203125 5.20684509082031  L 9.8422413203125 9.8416858203125  L 1.1577586796875 9.8416858203125  L 1.1577586796875 1.15610319042969  L 5.79204941992187 1.1583031796875  C 6.11089939316534 1.15739606028595  6.36845245920426 0.899107950848326  6.36845245920426 0.580806685012953  C 6.36845245920426 0.580072567954665  6.36845105938884 0.579338451563707  6.36844825976562 0.57860433984375  L 6.36844825976562 0.576404350585937  C 6.36899825976563 0.257954984375  6.11049877539063 0  5.79204941992187 0  L 0.575309850585938 0  C 0.574574314546801 0  0.573838773736953 0  0.573103232245587 0  C 0.256589476921417 0  0 0.256586347144238  0 0.573100102468408  C 0 0.574018189150142  0 0.574936274506581  1.1E-05 0.575854350585937  L 1.1E-05 10.4246846494141  C 0 10.4256044922543  0 10.4265243444433  0 10.4274441979677  C 0 10.7436541966795  0.256343201653466 10.9999930485537  0.572553200365229 10.9999930485537  C 0.573655423998953 10.9999930485537  0.574757645334299 10.9999898656892  0.575859850585937 10.9999835  L 10.4246901494141 10.9999835  C 10.4252423490034 10.9999850946678  10.4257945506081 10.999985892003  10.4263467525 10.999985892003  C 10.7431642644366 10.999985892003  10.999995603086 10.7431545533536  10.999995603086 10.426337041417  C 10.999995603086 10.4254195734557  10.999993402051 10.4245021068147  10.999989 10.4235846494141  L 10.999989 5.20739508007813  C 10.9990789206624 4.88866601490899  10.740119943939 4.63093783426904  10.4213901601562 4.63154624023438  Z " fill-rule="nonzero" fill="#d9001b" stroke="none" transform="matrix(1 0 0 1 90 123 )" />
  </g>
</svg>