<?xml version="1.0" encoding="utf-8"?>
<svg version="1.1" xmlns:xlink="http://www.w3.org/1999/xlink" width="300px" height="82px" xmlns="http://www.w3.org/2000/svg">
  <g transform="matrix(1 0 0 1 0 -524 )">
    <path d="M 1 526  A 1 1 0 0 1 2 525 L 298 525  A 1 1 0 0 1 299 526 L 299 604  A 1 1 0 0 1 298 605 L 2 605  A 1 1 0 0 1 1 604 L 1 526  Z " fill-rule="nonzero" fill="#39aafb" stroke="none" fill-opacity="0" />
    <path d="M 0.5 526  A 1.5 1.5 0 0 1 2 524.5 L 298 524.5  A 1.5 1.5 0 0 1 299.5 526 L 299.5 604  A 1.5 1.5 0 0 1 298 605.5 L 2 605.5  A 1.5 1.5 0 0 1 0.5 604 L 0.5 526  Z " stroke-width="1" stroke="#797979" fill="none" stroke-opacity="0.0980392156862745" />
  </g>
</svg>