<?xml version="1.0" encoding="utf-8"?>
<svg version="1.1" xmlns:xlink="http://www.w3.org/1999/xlink" width="113px" height="111px" xmlns="http://www.w3.org/2000/svg">
  <g transform="matrix(1 0 0 1 -152 -60 )">
    <path d="M 203.37315708736 60.7309618746794  C 205.077524270765 60.5770298853544  206.788270655156 60.5  208.5 60.5  C 239.422970452238 60.5  264.5 85.1194512836441  264.5 115.5  C 264.5 145.880548716356  239.422970452238 170.5  208.5 170.5  C 177.577029547762 170.5  152.5 145.880548716356  152.5 115.5  C 152.5 106.00992241429  155.001386651347 96.6848920117157  159.753086922702 88.4288939270916  L 208.253340641651 115.934924316334  A 0.5 0.5 0 0 0 208.997379517583 115.44887646834 L 203.373157087417 60.7309618746742  Z " fill-rule="nonzero" fill="#99d5fd" stroke="none" />
    <path d="M 203.37315708736 60.7309618746794  C 205.077524270765 60.5770298853544  206.788270655156 60.5  208.5 60.5  C 239.422970452238 60.5  264.5 85.1194512836441  264.5 115.5  C 264.5 145.880548716356  239.422970452238 170.5  208.5 170.5  C 177.577029547762 170.5  152.5 145.880548716356  152.5 115.5  C 152.5 106.00992241429  155.001386651347 96.6848920117157  159.753086922702 88.4288939270916  L 208.253340641651 115.934924316334  A 0.5 0.5 0 0 0 208.997379517583 115.44887646834 L 203.373157087417 60.7309618746742  Z " stroke-width="1" stroke="#ffffff" fill="none" />
  </g>
</svg>