<?xml version="1.0" encoding="utf-8"?>
<svg version="1.1" xmlns:xlink="http://www.w3.org/1999/xlink" width="110px" height="108px" xmlns="http://www.w3.org/2000/svg">
  <g transform="matrix(1 0 0 1 -447 -61 )">
    <path d="M 497.023874422648 61.723454783842  C 498.67815847126 61.5745234899605  500.33860362978 61.5  502 61.5  C 532.094405118095 61.5  556.5 85.4477451135996  556.5 115  C 556.5 144.5522548864  532.094405118095 168.5  502 168.5  C 471.905594881905 168.5  447.5 144.5522548864  447.5 115  C 447.5 105.773167035632  449.932118108073 96.7067639577593  454.552138807735 88.6787818639555  L 501.753432368918 115.434976324991  A 0.5 0.5 0 0 0 502.497376960516 114.94885159682 L 497.023874422725 61.7234547838351  Z " fill-rule="nonzero" fill="#77b70f" stroke="none" />
    <path d="M 497.023874422648 61.723454783842  C 498.67815847126 61.5745234899605  500.33860362978 61.5  502 61.5  C 532.094405118095 61.5  556.5 85.4477451135996  556.5 115  C 556.5 144.5522548864  532.094405118095 168.5  502 168.5  C 471.905594881905 168.5  447.5 144.5522548864  447.5 115  C 447.5 105.773167035632  449.932118108073 96.7067639577593  454.552138807735 88.6787818639555  L 501.753432368918 115.434976324991  A 0.5 0.5 0 0 0 502.497376960516 114.94885159682 L 497.023874422725 61.7234547838351  Z " stroke-width="1" stroke="#ffffff" fill="none" />
  </g>
</svg>