<?xml version="1.0" encoding="utf-8"?>
<svg version="1.1" xmlns:xlink="http://www.w3.org/1999/xlink" width="67px" height="67px" xmlns="http://www.w3.org/2000/svg">
  <g transform="matrix(1 0 0 1 -469 -81 )">
    <path d="M 502.5 81  C 521.26 81  536 95.74  536 114.5  C 536 133.26  521.26 148  502.5 148  C 483.74 148  469 133.26  469 114.5  C 469 95.74  483.74 81  502.5 81  Z " fill-rule="nonzero" fill="#ffffff" stroke="none" />
    <path d="M 502.5 81.5  C 520.98 81.5  535.5 96.02  535.5 114.5  C 535.5 132.98  520.98 147.5  502.5 147.5  C 484.02 147.5  469.5 132.98  469.5 114.5  C 469.5 96.02  484.02 81.5  502.5 81.5  Z " stroke-width="1" stroke="#ffffff" fill="none" />
  </g>
</svg>