<?xml version="1.0" encoding="utf-8"?>
<svg version="1.1" xmlns:xlink="http://www.w3.org/1999/xlink" width="1194px" height="40px" xmlns="http://www.w3.org/2000/svg">
  <g transform="matrix(1 0 0 1 -190 -476 )">
    <path d="M 191 481  A 4 4 0 0 1 195 477 L 1379 477  A 4 4 0 0 1 1383 481 L 1383 511  A 4 4 0 0 1 1379 515 L 195 515  A 4 4 0 0 1 191 511 L 191 481  Z " fill-rule="nonzero" fill="#f2f2f2" stroke="none" />
    <path d="M 190.5 481  A 4.5 4.5 0 0 1 195 476.5 L 1379 476.5  A 4.5 4.5 0 0 1 1383.5 481 L 1383.5 511  A 4.5 4.5 0 0 1 1379 515.5 L 195 515.5  A 4.5 4.5 0 0 1 190.5 511 L 190.5 481  Z " stroke-width="1" stroke="#797979" fill="none" stroke-opacity="0.2" />
  </g>
</svg>