<?xml version="1.0" encoding="utf-8"?>
<svg version="1.1" xmlns:xlink="http://www.w3.org/1999/xlink" width="80px" height="35px" xmlns="http://www.w3.org/2000/svg">
  <g transform="matrix(1 0 0 1 -8 -88 )">
    <path d="M 9 91  A 2 2 0 0 1 11 89 L 85 89  A 2 2 0 0 1 87 91 L 87 120  A 2 2 0 0 1 85 122 L 11 122  A 2 2 0 0 1 9 120 L 9 91  Z " fill-rule="nonzero" fill="#797979" stroke="none" fill-opacity="0.0980392156862745" />
    <path d="M 8.5 91  A 2.5 2.5 0 0 1 11 88.5 L 85 88.5  A 2.5 2.5 0 0 1 87.5 91 L 87.5 120  A 2.5 2.5 0 0 1 85 122.5 L 11 122.5  A 2.5 2.5 0 0 1 8.5 120 L 8.5 91  Z " stroke-width="1" stroke="#797979" fill="none" stroke-opacity="0.0980392156862745" />
  </g>
</svg>