<?xml version="1.0" encoding="utf-8"?>
<svg version="1.1" xmlns:xlink="http://www.w3.org/1999/xlink" width="18px" height="18px" xmlns="http://www.w3.org/2000/svg">
  <g transform="matrix(1 0 0 1 -559 -49 )">
    <path d="M 17.7109375 9.052734375  C 17.7109375 13.868359375  13.7791015625 17.80859375  8.9736328125 17.80859375  C 4.16796875 17.80859375  0.236328125 13.868359375  0.236328125 9.052734375  C 0.236328125 4.237109375  4.16796875 0.2970703125  8.9736328125 0.2970703125  C 13.779296875 0.2970703125  17.7109375 4.237109375  17.7109375 9.052734375  Z M 11.79296875 15.7697265625  C 13.5392033506539 15.0219362132887  14.9291899530041 13.6286609439206  15.6728515625 11.8806640625  C 16.4371643125277 10.0728424871918  16.4371643125277 8.03262626280817  15.6728515625 6.2248046875  C 14.9293608151424 4.47669261034611  13.539318949842 3.08336194727729  11.79296875 2.3357421875  C 9.99168177627854 1.57063063225366  7.95675572372146 1.57063063225366  6.15546875 2.3357421875  C 4.40857272803572 3.08296015148605  3.0180297725628 4.47637222583444  2.2744140625 6.2248046875  C 1.5101013124723 8.03262626280817  1.51010131247231 10.0728424871918  2.2744140625 11.8806640625  C 3.01798308374246 13.6288799882977  4.40827852554199 15.0221844246612  6.1548828125 15.76953125  C 7.95619728430762 16.5345077189347  9.99106834069238 16.5345077189347  11.7923828125 15.76953125  Z " fill-rule="nonzero" fill="#d9001b" stroke="none" transform="matrix(1 0 0 1 559 49 )" />
  </g>
</svg>