<?xml version="1.0" encoding="utf-8"?>
<svg version="1.1" xmlns:xlink="http://www.w3.org/1999/xlink" width="13px" height="12px" xmlns="http://www.w3.org/2000/svg">
  <g transform="matrix(1 0 0 1 -245 -86 )">
    <path d="M 12.015928203125 5.12972005078125  C 11.7867915566406 5.12972005078125  11.6060341113281 5.31057542773438  11.6060341113281 5.53953019726563  L 11.6060341113281 10.2871693046875  C 11.6060341113281 10.6847237636719  11.2808525839844 11.0222449238281  10.8711263828125 11.0222449238281  L 2.42404550390625 11.0222449238281  C 2.02649104492188 11.0222449238281  1.68905383007813 10.6968115742188  1.68905383007813 10.2871693046875  L 1.68905381640625 1.84015837109375  C 1.68905381640625 1.44251996679688  2.014403234375 1.10516669726563  2.42404549023437 1.10516669726563  L 7.53328343359375 1.10516669726563  C 7.762238203125 1.10516669726563  7.94300963476562 0.924395265625  7.94300963476562 0.69535655078125  C 7.94300963476562 0.4664857265625  7.762238203125 0.285714294921875  7.53328343359375 0.285714294921875  L 2.42404550390625 0.28571428125  C 1.56856751953125 0.28571428125  0.881689224609375 0.972592576171875  0.881689224609375 1.82807056054688  L 0.881689224609375 10.2750814804688  C 0.881689224609375 11.1305454785156  1.56856751953125 11.8175217050781  2.42404550390625 11.8175217050781  L 10.8711263828125 11.8175217050781  C 11.7265903808594 11.8175217050781  12.4134826621094 11.1305454785156  12.4134826621094 10.2750814804688  L 12.4134826621094 5.52744240039063  C 12.4254865136719 5.31057542773438  12.2447290683594 5.12972005078125  12.015928203125 5.12972005078125  Z " fill-rule="nonzero" fill="#1890ff" stroke="none" transform="matrix(1 0 0 1 245 86 )" />
  </g>
</svg>