<?xml version="1.0" encoding="utf-8"?>
<svg version="1.1" xmlns:xlink="http://www.w3.org/1999/xlink" width="12px" height="12px" viewBox="306 197  12 12" xmlns="http://www.w3.org/2000/svg">
  <path d="M 312 197  C 315.36 197  318 199.64  318 203  C 318 206.36  315.36 209  312 209  C 308.64 209  306 206.36  306 203  C 306 199.64  308.64 197  312 197  Z " fill-rule="nonzero" fill="#ffffff" stroke="none" />
  <path d="M 312 197.5  C 315.08 197.5  317.5 199.92  317.5 203  C 317.5 206.08  315.08 208.5  312 208.5  C 308.92 208.5  306.5 206.08  306.5 203  C 306.5 199.92  308.92 197.5  312 197.5  Z " stroke-width="1" stroke="#1890ff" fill="none" />
  <path d="M 312 206  C 310.32 206  309 204.68  309 203  C 309 201.32  310.32 200  312 200  C 313.68 200  315 201.32  315 203  C 315 204.68  313.68 206  312 206  " fill-rule="nonzero" fill="#1890ff" stroke="none" />
</svg>