<?xml version="1.0" encoding="utf-8"?>
<svg version="1.1" xmlns:xlink="http://www.w3.org/1999/xlink" width="189px" height="28px" viewBox="194 217  189 28" xmlns="http://www.w3.org/2000/svg">
  <path d="M 195 220  A 2 2 0 0 1 197 218 L 380 218  A 2 2 0 0 1 382 220 L 382 242  A 2 2 0 0 1 380 244 L 197 244  A 2 2 0 0 1 195 242 L 195 220  Z " fill-rule="nonzero" fill="#f0f0f0" stroke="none" />
  <path d="M 194.5 220  A 2.5 2.5 0 0 1 197 217.5 L 380 217.5  A 2.5 2.5 0 0 1 382.5 220 L 382.5 242  A 2.5 2.5 0 0 1 380 244.5 L 197 244.5  A 2.5 2.5 0 0 1 194.5 242 L 194.5 220  Z " stroke-width="1" stroke="#797979" fill="none" stroke-opacity="0.498039215686275" />
</svg>