<?xml version="1.0" encoding="utf-8"?>
<svg version="1.1" xmlns:xlink="http://www.w3.org/1999/xlink" width="189px" height="27px" viewBox="194 251  189 27" xmlns="http://www.w3.org/2000/svg">
  <path d="M 195 254  A 2 2 0 0 1 197 252 L 380 252  A 2 2 0 0 1 382 254 L 382 275  A 2 2 0 0 1 380 277 L 197 277  A 2 2 0 0 1 195 275 L 195 254  Z " fill-rule="nonzero" fill="#ffffff" stroke="none" />
  <path d="M 194.5 254  A 2.5 2.5 0 0 1 197 251.5 L 380 251.5  A 2.5 2.5 0 0 1 382.5 254 L 382.5 275  A 2.5 2.5 0 0 1 380 277.5 L 197 277.5  A 2.5 2.5 0 0 1 194.5 275 L 194.5 254  Z " stroke-width="1" stroke="#797979" fill="none" stroke-opacity="0.498039215686275" />
</svg>