<?xml version="1.0" encoding="utf-8"?>
<svg version="1.1" xmlns:xlink="http://www.w3.org/1999/xlink" width="189px" height="53px" viewBox="194 283  189 53" xmlns="http://www.w3.org/2000/svg">
  <path d="M 195 286  A 2 2 0 0 1 197 284 L 380 284  A 2 2 0 0 1 382 286 L 382 333  A 2 2 0 0 1 380 335 L 197 335  A 2 2 0 0 1 195 333 L 195 286  Z " fill-rule="nonzero" fill="#f0f0f0" stroke="none" />
  <path d="M 194.5 286  A 2.5 2.5 0 0 1 197 283.5 L 380 283.5  A 2.5 2.5 0 0 1 382.5 286 L 382.5 333  A 2.5 2.5 0 0 1 380 335.5 L 197 335.5  A 2.5 2.5 0 0 1 194.5 333 L 194.5 286  Z " stroke-width="1" stroke="#797979" fill="none" stroke-opacity="0.498039215686275" />
</svg>