<?xml version="1.0" encoding="utf-8"?>
<svg version="1.1" xmlns:xlink="http://www.w3.org/1999/xlink" width="12px" height="12px" xmlns="http://www.w3.org/2000/svg">
  <g transform="matrix(1 0 0 1 -263 -172 )">
    <path d="M 10.8125 5.3125  L 6.6875 5.3125  L 6.6875 1.1875  C 6.6875 0.808  6.379521484375 0.5  6 0.5  C 5.620478515625 0.5  5.3125 0.808  5.3125 1.1875  L 5.3125 5.3125  L 1.1875 5.3125  C 0.808 5.3125  0.5 5.620521484375  0.5 6.00004296875  C 0.5 6.379564453125  0.808 6.68754296875  1.1875 6.68754296875  L 5.3125 6.68754296875  L 5.3125 10.81254296875  C 5.3125 11.19273046875  5.620521484375 11.500064453125  6.00004296875 11.500064453125  C 6.379564453125 11.500064453125  6.68754296875 11.1927734375  6.68754296875 10.812564453125  L 6.68754296875 6.6875  L 10.81254296875 6.6875  C 11.19273046875 6.6875  11.500064453125 6.3795  11.500064453125 5.999978515625  C 11.500064453125 5.62045703125  11.192708984375 5.312478515625  10.812521484375 5.312478515625  Z " fill-rule="nonzero" fill="#1890ff" stroke="none" transform="matrix(1 0 0 1 263 172 )" />
  </g>
</svg>