<?xml version="1.0" encoding="utf-8"?>
<svg version="1.1" xmlns:xlink="http://www.w3.org/1999/xlink" width="20px" height="20px" xmlns="http://www.w3.org/2000/svg">
  <g transform="matrix(1 0 0 1 -259 -168 )">
    <path d="M 16.803521484375 16.7766875  C 14.98716796875 18.5855  12.5705625 19.582396484375  10 19.582396484375  C 7.4294375 19.582396484375  5.012853515625 18.586208984375  3.195103515625 16.777396484375  C 1.376666015625 14.96723046875  0.375 12.560958984375  0.375 10.00004296875  C 0.375 7.439771484375  1.3766875 5.03285546875  3.1944375 3.223333984375  C 5.0121875 1.41454296875  7.428771484375 0.418333984374999  9.999333984375 0.418333984374999  C 12.569896484375 0.418333984374999  14.98648046875 1.41454296875  16.803521484375 3.223333984375  C 18.622646484375 5.03285546875  19.623625 7.439771484375  19.623625 9.999333984375  C 19.624333984375 12.560271484375  18.622646484375 14.96723046875  16.803521484375 16.7766875  Z M 15.834103515625 4.198166015625  C 14.27689453125 2.6471875  12.204146484375 1.792603515625  10 1.792603515625  C 7.7951875 1.792603515625  5.7230625 2.646478515625  4.165208984375 4.1975  C 2.608021484375 5.747125  1.75 7.80825  1.75 10  C 1.75 12.19175  2.607291015625 14.252875  4.1645 15.801791015625  C 5.722375 17.352791015625  7.7945 18.2066875  9.999291015625 18.2066875  C 12.2034375 18.2066875  14.276228515625 17.3528125  15.834103515625 15.801791015625  C 17.391291015625 14.251478515625  18.249291015625 12.1910625  18.248603515625 9.999291015625  C 18.248603515625 7.807541015625  17.391291015625 5.747125  15.834103515625 4.198166015625  Z " fill-rule="nonzero" fill="#1890ff" stroke="none" transform="matrix(1 0 0 1 259 168 )" />
  </g>
</svg>