<?xml version="1.0" encoding="utf-8"?>
<svg version="1.1" xmlns:xlink="http://www.w3.org/1999/xlink" width="46px" height="32px" xmlns="http://www.w3.org/2000/svg">
  <g transform="matrix(1 0 0 1 -410 -263 )">
    <path d="M 411 267  A 3 3 0 0 1 414 264 L 452 264  A 3 3 0 0 1 455 267 L 455 291  A 3 3 0 0 1 452 294 L 414 294  A 3 3 0 0 1 411 291 L 411 267  Z " fill-rule="nonzero" fill="#1890ff" stroke="none" fill-opacity="0" />
    <path d="M 410.5 267  A 3.5 3.5 0 0 1 414 263.5 L 452 263.5  A 3.5 3.5 0 0 1 455.5 267 L 455.5 291  A 3.5 3.5 0 0 1 452 294.5 L 414 294.5  A 3.5 3.5 0 0 1 410.5 291 L 410.5 267  Z " stroke-width="1" stroke="#797979" fill="none" stroke-opacity="0.2" />
  </g>
</svg>