<?xml version="1.0" encoding="utf-8"?>
<svg version="1.1" xmlns:xlink="http://www.w3.org/1999/xlink" width="954px" height="496px" xmlns="http://www.w3.org/2000/svg">
  <defs>
    <mask fill="white" id="clip6">
      <path d="M 0.268041237113408 483.543961263584  L 0.268041237113408 243.091833071713  L 0.268041237113408 232.719773137407  L 0.268041237113408 208.810968717587  L 0.268041237113408 188.373976397896  L 0.268041237113408 12.705697027036  C 0.268041237113408 5.73031533464267  5.03670103092787 0.249658290619396  11.1059044048735 0.249658290619396  L 239.421251403491 0.249658290619396  L 256.426457078697 0.249658290619396  L 271.963521015068 0.249658290619396  L 285.826788394361 0.249658290619396  L 301.440236807186 0.249658290619396  L 326.752984971917 0.249658290619396  L 350.266425020327 0.249658290619396  L 367.679181549472 0.249658290619396  L 401.026452834888 0.249658290619396  L 438.921079295587 0.249658290619396  L 943.16213683224 0.249658290619396  C 949.231340206185 0.249658290619396  954 5.73031533464267  954 12.705697027036  L 954 483.543961263584  C 954 490.519342955977  949.231340206185 496  943.16213683224 496  L 11.1059044048735 496  C 5.03670103092787 496  0.268041237113408 490.519342955977  0.268041237113408 483.543961263584  Z " fill-rule="evenodd" />
    </mask>
  </defs>
  <g transform="matrix(1 0 0 1 -2 0 )">
    <path d="M 0.268041237113408 483.543961263584  L 0.268041237113408 243.091833071713  L 0.268041237113408 232.719773137407  L 0.268041237113408 208.810968717587  L 0.268041237113408 188.373976397896  L 0.268041237113408 12.705697027036  C 0.268041237113408 5.73031533464267  5.03670103092787 0.249658290619396  11.1059044048735 0.249658290619396  L 239.421251403491 0.249658290619396  L 256.426457078697 0.249658290619396  L 271.963521015068 0.249658290619396  L 285.826788394361 0.249658290619396  L 301.440236807186 0.249658290619396  L 326.752984971917 0.249658290619396  L 350.266425020327 0.249658290619396  L 367.679181549472 0.249658290619396  L 401.026452834888 0.249658290619396  L 438.921079295587 0.249658290619396  L 943.16213683224 0.249658290619396  C 949.231340206185 0.249658290619396  954 5.73031533464267  954 12.705697027036  L 954 483.543961263584  C 954 490.519342955977  949.231340206185 496  943.16213683224 496  L 11.1059044048735 496  C 5.03670103092787 496  0.268041237113408 490.519342955977  0.268041237113408 483.543961263584  Z " fill-rule="nonzero" fill="#ffffff" stroke="none" fill-opacity="0.996078431372549" transform="matrix(1 0 0 1 2 0 )" />
    <path d="M 0.268041237113408 483.543961263584  L 0.268041237113408 243.091833071713  L 0.268041237113408 232.719773137407  L 0.268041237113408 208.810968717587  L 0.268041237113408 188.373976397896  L 0.268041237113408 12.705697027036  C 0.268041237113408 5.73031533464267  5.03670103092787 0.249658290619396  11.1059044048735 0.249658290619396  L 239.421251403491 0.249658290619396  L 256.426457078697 0.249658290619396  L 271.963521015068 0.249658290619396  L 285.826788394361 0.249658290619396  L 301.440236807186 0.249658290619396  L 326.752984971917 0.249658290619396  L 350.266425020327 0.249658290619396  L 367.679181549472 0.249658290619396  L 401.026452834888 0.249658290619396  L 438.921079295587 0.249658290619396  L 943.16213683224 0.249658290619396  C 949.231340206185 0.249658290619396  954 5.73031533464267  954 12.705697027036  L 954 483.543961263584  C 954 490.519342955977  949.231340206185 496  943.16213683224 496  L 11.1059044048735 496  C 5.03670103092787 496  0.268041237113408 490.519342955977  0.268041237113408 483.543961263584  Z " stroke-width="2" stroke="#797979" fill="none" stroke-opacity="0.0274509803921569" transform="matrix(1 0 0 1 2 0 )" mask="url(#clip6)" />
  </g>
</svg>