<?xml version="1.0" encoding="utf-8"?>
<svg version="1.1" xmlns:xlink="http://www.w3.org/1999/xlink" width="142px" height="47px" xmlns="http://www.w3.org/2000/svg">
  <g transform="matrix(1 0 0 1 -46 -123 )">
    <path d="M 47 125  A 1 1 0 0 1 48 124 L 186 124  A 1 1 0 0 1 187 125 L 187 168  A 1 1 0 0 1 186 169 L 48 169  A 1 1 0 0 1 47 168 L 47 125  Z " fill-rule="nonzero" fill="#f2f2f2" stroke="none" fill-opacity="0" />
    <path d="M 46.5 125  A 1.5 1.5 0 0 1 48 123.5 L 186 123.5  A 1.5 1.5 0 0 1 187.5 125 L 187.5 168  A 1.5 1.5 0 0 1 186 169.5 L 48 169.5  A 1.5 1.5 0 0 1 46.5 168 L 46.5 125  Z " stroke-width="1" stroke="#f2f2f2" fill="none" stroke-opacity="0.498039215686275" />
  </g>
</svg>