<?xml version="1.0" encoding="utf-8"?>
<svg version="1.1" xmlns:xlink="http://www.w3.org/1999/xlink" width="24px" height="24px" xmlns="http://www.w3.org/2000/svg">
  <g transform="matrix(1 0 0 1 -157 -134 )">
    <path d="M 19.4220234375 19.39275  C 17.440546875 21.366  14.80425 22.4535234375  12 22.4535234375  C 9.19575 22.4535234375  6.5594765625 21.3667734375  4.5764765625 19.3935234375  C 2.5927265625 17.418796875  1.5 14.7937734375  1.5 12.000046875  C 1.5 9.2070234375  2.59275 6.581296875  4.57575 4.6072734375  C 6.55875 2.634046875  9.1950234375 1.5472734375  11.9992734375 1.5472734375  C 14.8035234375 1.5472734375  17.439796875 2.634046875  19.4220234375 4.6072734375  C 21.4065234375 6.581296875  22.4985 9.2070234375  22.4985 11.9992734375  C 22.4992734375 14.7930234375  21.4065234375 17.418796875  19.4220234375 19.39275  Z M 18.3644765625 5.6707265625  C 16.665703125 3.97875  14.4045234375 3.0464765625  12 3.0464765625  C 9.59475 3.0464765625  7.33425 3.9779765625  5.6347734375 5.67  C 3.9360234375 7.3605  3 9.609  3 12  C 3 14.391  3.9352265625 16.6395  5.634 18.3292265625  C 7.3335 20.0212265625  9.594 20.95275  11.9992265625 20.95275  C 14.40375 20.95275  16.6649765625 20.02125  18.3644765625 18.3292265625  C 20.0632265625 16.6379765625  20.9992265625 14.39025  20.9984765625 11.9992265625  C 20.9984765625 9.6082265625  20.0632265625 7.3605  18.3644765625 5.6707265625  Z " fill-rule="nonzero" fill="#8a8a8a" stroke="none" transform="matrix(1 0 0 1 157 134 )" />
  </g>
</svg>