<?xml version="1.0" encoding="utf-8"?>
<svg version="1.1" xmlns:xlink="http://www.w3.org/1999/xlink" width="14px" height="14px" xmlns="http://www.w3.org/2000/svg">
  <g transform="matrix(1 0 0 1 -162 -139 )">
    <path d="M 12.1041666666667 6.27083333333333  L 7.72916666666667 6.27083333333333  L 7.72916666666667 1.89583333333333  C 7.72916666666667 1.49333333333333  7.40252278645833 1.16666666666667  7 1.16666666666667  C 6.59747721354167 1.16666666666667  6.27083333333333 1.49333333333333  6.27083333333333 1.89583333333333  L 6.27083333333333 6.27083333333333  L 1.89583333333333 6.27083333333333  C 1.49333333333333 6.27083333333333  1.16666666666667 6.59752278645833  1.16666666666667 7.00004557291667  C 1.16666666666667 7.402568359375  1.49333333333333 7.72921223958333  1.89583333333333 7.72921223958333  L 6.27083333333333 7.72921223958333  L 6.27083333333333 12.1042122395833  C 6.27083333333333 12.50744140625  6.59752278645833 12.8334016927083  7.00004557291667 12.8334016927083  C 7.402568359375 12.8334016927083  7.72921223958333 12.5074869791667  7.72921223958333 12.1042350260417  L 7.72921223958333 7.72916666666667  L 12.1042122395833 7.72916666666667  C 12.50744140625 7.72916666666667  12.8334016927083 7.4025  12.8334016927083 6.99997721354167  C 12.8334016927083 6.59745442708333  12.5074186197917 6.270810546875  12.104189453125 6.270810546875  Z " fill-rule="nonzero" fill="#8a8a8a" stroke="none" transform="matrix(1 0 0 1 162 139 )" />
  </g>
</svg>