<?xml version="1.0" encoding="utf-8"?>
<svg version="1.1" xmlns:xlink="http://www.w3.org/1999/xlink" width="23px" height="23px" xmlns="http://www.w3.org/2000/svg">
  <g transform="matrix(1 0 0 1 -42 -446 )">
    <path d="M 0 11.5  C 0 5.14846154882813  5.14846154882812 0  11.5 0  C 17.8515384511719 0  23 5.14846154882812  23 11.5  C 23 17.8515384511719  17.8515384511719 23  11.5 23  C 5.14846154882813 23  0 17.8515384511719  0 11.5  Z M 21.2307692255859 11.5  C 21.2307692255859 6.12596154882813  16.8740384511719 1.76923077441406  11.5 1.76923077441406  C 6.12596154882813 1.76923077441406  1.76923077441406 6.12596154882813  1.76923077441406 11.5  C 1.76923077441406 16.8740384511719  6.12596154882813 21.2307692255859  11.5 21.2307692255859  C 16.8740384511719 21.2307692255859  21.2307692255859 16.8740384511719  21.2307692255859 11.5  Z " fill-rule="nonzero" fill="#d9001b" stroke="none" transform="matrix(1 0 0 1 42 446 )" />
  </g>
</svg>