<?xml version="1.0" encoding="utf-8"?>
<svg version="1.1" xmlns:xlink="http://www.w3.org/1999/xlink" width="3px" height="13px" xmlns="http://www.w3.org/2000/svg">
  <g transform="matrix(1 0 0 1 -52 -451 )">
    <path d="M 0.810000000000001 9.11846154882812  L 2.20769230078125 9.11846154882812  L 2.61461537597656 0.0599999999999996  L 0.403076924804688 0.0599999999999996  L 0.810000000000001 9.11846154882812  Z M 0.597692300781247 12.3207692255859  C 0.845384601562499 12.5684615263672  1.14615384960937 12.6923076767578  1.5 12.6923076992188  C 1.85384615039062 12.6923076992188  2.17230769921875 12.5684615488281  2.43769230078125 12.3384615488281  C 2.6853846015625 12.0907692480469  2.80923075195313 11.79  2.80923077441406 11.4184615488281  C 2.80923077441406 11.0469230976563  2.68538462402344 10.7461538496094  2.43769230078125 10.5161538496094  C 2.19 10.2684615488281  1.87153845117187 10.1623076992188  1.5 10.1623076992188  C 1.14615384960937 10.1623076992188  0.845384624023435 10.2684615488281  0.597692300781247 10.5161538496094  C 0.332307676757811 10.7461538496094  0.208461526367186 11.0469230751953  0.208461548828122 11.4184615488281  C 0.208461548828122 11.7723076992188  0.332307699218747 12.0730769248047  0.597692300781247 12.3207692255859  Z " fill-rule="nonzero" fill="#d9001b" stroke="none" transform="matrix(1 0 0 1 52 451 )" />
  </g>
</svg>