<?xml version="1.0" encoding="utf-8"?>
<svg version="1.1" xmlns:xlink="http://www.w3.org/1999/xlink" width="18px" height="18px" xmlns="http://www.w3.org/2000/svg">
  <g transform="matrix(1 0 0 1 -706 -115 )">
    <path d="M 16.756149375 16.7571326484375  C 17.175385078125 16.3378489453125  17.1755050078125 15.656039203125  16.756581046875 15.2371152421875  L 10.5198735234375 9.0003117890625  L 16.756557046875 2.7628847578125  C 16.9598911875 2.55957459375  17.0717273671875 2.289253875  17.071535484375 2.0016888515625  C 17.071343625 1.7149872421875  16.959675328125 1.445865703125  16.7571326484375 1.243898625  C 16.5542781796875 1.0405165078125  16.2848688515625 0.928656351562501  15.998119265625 0.92848846875  C 15.7101465 0.92848846875  15.44011359375 1.0403246484375  15.2369953125 1.2433709765625  L 9.0004556953125 7.47993459375  L 2.76286078125 1.243371  C 2.559814453125 1.040324671875  2.2899973828125 0.9284884921875  2.003103890625 0.9284884921875  C 1.7162343984375 0.9284884921875  1.446417328125 1.040300671875  1.2433949765625 1.2433230234375  C 1.0404206015625 1.4457457734375  0.928656375 1.7149872421875  0.9284644921875 2.0016888515625  C 0.9282726328125 2.289253875  1.0401087890625 2.55957459375  1.2433949765625 2.76286078125  L 7.4809419140625 9.0002878125  L 1.243371 15.23713921875  C 1.040300671875 15.440185546875  0.928464515625 15.709954640625  0.928464515625 15.996872109375  C 0.928464515625 16.2837416015625  1.040324671875 16.5535826484375  1.243395 16.7566529765625  C 1.4464173515625 16.9596993046875  1.716210421875 17.0714875078125  2.0030799375 17.0714875078125  C 2.2899734296875 17.0714875078125  2.5598144765625 16.959675328125  2.762836828125 16.7566529765625  L 9.0003597890625 10.5199214765625  L 15.237115265625 16.7566529765625  C 15.44016159375 16.9596993046875  15.7102185 17.0714875078125  15.997495734375 17.0714875078125  C 16.284964828125 17.0712956484375  16.55411034375 16.959651328125  16.756149375 16.7571326484375  Z " fill-rule="nonzero" fill="#707070" stroke="none" transform="matrix(1 0 0 1 706 115 )" />
  </g>
</svg>