<?xml version="1.0" encoding="utf-8"?>
<svg version="1.1" xmlns:xlink="http://www.w3.org/1999/xlink" width="142px" height="47px" xmlns="http://www.w3.org/2000/svg">
  <g transform="matrix(1 0 0 1 -593 -100 )">
    <path d="M 594 105  A 4 4 0 0 1 598 101 L 730 101  A 4 4 0 0 1 734 105 L 734 142  A 4 4 0 0 1 730 146 L 598 146  A 4 4 0 0 1 594 142 L 594 105  Z " fill-rule="nonzero" fill="#d7d7d7" stroke="none" />
    <path d="M 593.5 105  A 4.5 4.5 0 0 1 598 100.5 L 730 100.5  A 4.5 4.5 0 0 1 734.5 105 L 734.5 142  A 4.5 4.5 0 0 1 730 146.5 L 598 146.5  A 4.5 4.5 0 0 1 593.5 142 L 593.5 105  Z " stroke-width="1" stroke="#f2f2f2" fill="none" stroke-opacity="0.498039215686275" />
  </g>
</svg>