<?xml version="1.0" encoding="utf-8"?>
<svg version="1.1" xmlns:xlink="http://www.w3.org/1999/xlink" width="291px" height="473px" xmlns="http://www.w3.org/2000/svg">
  <defs>
    <mask fill="white" id="clip3">
      <path d="M 5 470.568123393316  L 5 34.1331252295261  L 4.21739130434783 25.9906812339332  L 0.544707413477401 23.0839551069033  L 5 18.9338964377523  L 5 7.53447484392199  L 4.21739130434783 2.4318766066838  C 4.21739130434783 1.07002570694101  5.14521739130434 0  6.32608695652174 0  L 288.891304347826 0  C 290.072173913043 0  291 1.07002570694101  291 2.4318766066838  L 291 470.568123393316  C 291 471.929974293059  290.072173913043 473  288.891304347826 473  L 6.32608695652174 473  C 5.14521739130434 473  4.21739130434783 471.929974293059  5 470.568123393316  Z " fill-rule="evenodd" />
    </mask>
  </defs>
  <g transform="matrix(1 0 0 1 -1707 -61 )">
    <path d="M 5 470.568123393316  L 5 34.1331252295261  L 4.21739130434783 25.9906812339332  L 0.544707413477401 23.0839551069033  L 5 18.9338964377523  L 5 7.53447484392199  L 4.21739130434783 2.4318766066838  C 4.21739130434783 1.07002570694101  5.14521739130434 0  6.32608695652174 0  L 288.891304347826 0  C 290.072173913043 0  291 1.07002570694101  291 2.4318766066838  L 291 470.568123393316  C 291 471.929974293059  290.072173913043 473  288.891304347826 473  L 6.32608695652174 473  C 5.14521739130434 473  4.21739130434783 471.929974293059  5 470.568123393316  Z " fill-rule="nonzero" fill="#ffffff" stroke="none" transform="matrix(1 0 0 1 1707 61 )" />
    <path d="M 5 470.568123393316  L 5 34.1331252295261  L 4.21739130434783 25.9906812339332  L 0.544707413477401 23.0839551069033  L 5 18.9338964377523  L 5 7.53447484392199  L 4.21739130434783 2.4318766066838  C 4.21739130434783 1.07002570694101  5.14521739130434 0  6.32608695652174 0  L 288.891304347826 0  C 290.072173913043 0  291 1.07002570694101  291 2.4318766066838  L 291 470.568123393316  C 291 471.929974293059  290.072173913043 473  288.891304347826 473  L 6.32608695652174 473  C 5.14521739130434 473  4.21739130434783 471.929974293059  5 470.568123393316  Z " stroke-width="2" stroke="#f2f2f2" fill="none" stroke-opacity="0.298039215686275" transform="matrix(1 0 0 1 1707 61 )" mask="url(#clip3)" />
  </g>
</svg>