<?xml version="1.0" encoding="utf-8"?>
<svg version="1.1" xmlns:xlink="http://www.w3.org/1999/xlink" width="291px" height="375px" xmlns="http://www.w3.org/2000/svg">
  <defs>
    <mask fill="white" id="clip4">
      <path d="M 5 373.071979434447  L 5 27.0611457950788  L 4.21739130434783 20.6057197943445  L 0.544707413477401 18.3012329071643  L 4.21739130434783 15.0110172603745  L 4.21739130434783 5.97342085934618  L 4.21739130434783 1.9280205655527  C 4.21739130434783 0.848329048843293  5.14521739130434 0  6.32608695652174 0  L 288.891304347826 0  C 290.072173913043 0  291 0.848329048843293  291 1.9280205655527  L 291 373.071979434447  C 291 374.151670951157  290.072173913043 375  288.891304347826 375  L 6.32608695652174 375  C 5.14521739130434 375  4.21739130434783 374.151670951157  5 373.071979434447  Z " fill-rule="evenodd" />
    </mask>
  </defs>
  <g transform="matrix(1 0 0 1 -2433 -53 )">
    <path d="M 5 373.071979434447  L 5 27.0611457950788  L 4.21739130434783 20.6057197943445  L 0.544707413477401 18.3012329071643  L 4.21739130434783 15.0110172603745  L 4.21739130434783 5.97342085934618  L 4.21739130434783 1.9280205655527  C 4.21739130434783 0.848329048843293  5.14521739130434 0  6.32608695652174 0  L 288.891304347826 0  C 290.072173913043 0  291 0.848329048843293  291 1.9280205655527  L 291 373.071979434447  C 291 374.151670951157  290.072173913043 375  288.891304347826 375  L 6.32608695652174 375  C 5.14521739130434 375  4.21739130434783 374.151670951157  5 373.071979434447  Z " fill-rule="nonzero" fill="#ffffff" stroke="none" transform="matrix(1 0 0 1 2433 53 )" />
    <path d="M 5 373.071979434447  L 5 27.0611457950788  L 4.21739130434783 20.6057197943445  L 0.544707413477401 18.3012329071643  L 4.21739130434783 15.0110172603745  L 4.21739130434783 5.97342085934618  L 4.21739130434783 1.9280205655527  C 4.21739130434783 0.848329048843293  5.14521739130434 0  6.32608695652174 0  L 288.891304347826 0  C 290.072173913043 0  291 0.848329048843293  291 1.9280205655527  L 291 373.071979434447  C 291 374.151670951157  290.072173913043 375  288.891304347826 375  L 6.32608695652174 375  C 5.14521739130434 375  4.21739130434783 374.151670951157  5 373.071979434447  Z " stroke-width="2" stroke="#f2f2f2" fill="none" stroke-opacity="0.298039215686275" transform="matrix(1 0 0 1 2433 53 )" mask="url(#clip4)" />
  </g>
</svg>