<?xml version="1.0" encoding="utf-8"?>
<svg version="1.1" xmlns:xlink="http://www.w3.org/1999/xlink" width="291px" height="314px" xmlns="http://www.w3.org/2000/svg">
  <defs>
    <mask fill="white" id="clip5">
      <path d="M 5 312.385604113111  L 5 22.6591994124127  L 4.21739130434783 17.2538560411311  L 0.544707413477401 15.3242323542656  L 4.21739130434783 12.5692251193535  L 4.21739130434783 5.00174439955921  L 4.21739130434783 1.61439588688946  C 4.21739130434783 0.710334190231451  5.14521739130434 0  6.32608695652174 0  L 288.891304347826 0  C 290.072173913043 0  291 0.710334190231451  291 1.61439588688946  L 291 312.385604113111  C 291 313.289665809769  290.072173913043 314  288.891304347826 314  L 6.32608695652174 314  C 5.14521739130434 314  4.21739130434783 313.289665809769  5 312.385604113111  Z " fill-rule="evenodd" />
    </mask>
  </defs>
  <g transform="matrix(1 0 0 1 -2433 -559 )">
    <path d="M 5 312.385604113111  L 5 22.6591994124127  L 4.21739130434783 17.2538560411311  L 0.544707413477401 15.3242323542656  L 4.21739130434783 12.5692251193535  L 4.21739130434783 5.00174439955921  L 4.21739130434783 1.61439588688946  C 4.21739130434783 0.710334190231451  5.14521739130434 0  6.32608695652174 0  L 288.891304347826 0  C 290.072173913043 0  291 0.710334190231451  291 1.61439588688946  L 291 312.385604113111  C 291 313.289665809769  290.072173913043 314  288.891304347826 314  L 6.32608695652174 314  C 5.14521739130434 314  4.21739130434783 313.289665809769  5 312.385604113111  Z " fill-rule="nonzero" fill="#ffffff" stroke="none" transform="matrix(1 0 0 1 2433 559 )" />
    <path d="M 5 312.385604113111  L 5 22.6591994124127  L 4.21739130434783 17.2538560411311  L 0.544707413477401 15.3242323542656  L 4.21739130434783 12.5692251193535  L 4.21739130434783 5.00174439955921  L 4.21739130434783 1.61439588688946  C 4.21739130434783 0.710334190231451  5.14521739130434 0  6.32608695652174 0  L 288.891304347826 0  C 290.072173913043 0  291 0.710334190231451  291 1.61439588688946  L 291 312.385604113111  C 291 313.289665809769  290.072173913043 314  288.891304347826 314  L 6.32608695652174 314  C 5.14521739130434 314  4.21739130434783 313.289665809769  5 312.385604113111  Z " stroke-width="2" stroke="#f2f2f2" fill="none" stroke-opacity="0.298039215686275" transform="matrix(1 0 0 1 2433 559 )" mask="url(#clip5)" />
  </g>
</svg>