<?xml version="1.0" encoding="utf-8"?>
<svg version="1.1" xmlns:xlink="http://www.w3.org/1999/xlink" width="59px" height="32px" xmlns="http://www.w3.org/2000/svg">
  <g transform="matrix(1 0 0 1 -1214 -149 )">
    <path d="M 1215 151  A 1 1 0 0 1 1216 150 L 1271 150  A 1 1 0 0 1 1272 151 L 1272 179  A 1 1 0 0 1 1271 180 L 1216 180  A 1 1 0 0 1 1215 179 L 1215 151  Z " fill-rule="nonzero" fill="#ffffff" stroke="none" />
    <path d="M 1214.5 151  A 1.5 1.5 0 0 1 1216 149.5 L 1271 149.5  A 1.5 1.5 0 0 1 1272.5 151 L 1272.5 179  A 1.5 1.5 0 0 1 1271 180.5 L 1216 180.5  A 1.5 1.5 0 0 1 1214.5 179 L 1214.5 151  Z " stroke-width="1" stroke="#797979" fill="none" stroke-opacity="0.298039215686275" />
  </g>
</svg>