<?xml version="1.0" encoding="utf-8"?>
<svg version="1.1" xmlns:xlink="http://www.w3.org/1999/xlink" width="14px" height="14px" xmlns="http://www.w3.org/2000/svg">
  <g transform="matrix(1 0 0 1 -69 -11 )">
    <path d="M 76 11  C 79.92 11  83 14.08  83 18  C 83 21.92  79.92 25  76 25  C 72.08 25  69 21.92  69 18  C 69 14.08  72.08 11  76 11  Z " fill-rule="nonzero" fill="#ffffff" stroke="none" fill-opacity="0" />
    <path d="M 76 11.5  C 79.64 11.5  82.5 14.36  82.5 18  C 82.5 21.64  79.64 24.5  76 24.5  C 72.36 24.5  69.5 21.64  69.5 18  C 69.5 14.36  72.36 11.5  76 11.5  Z " stroke-width="1" stroke="#d9d9d9" fill="none" />
  </g>
</svg>