<?xml version="1.0" encoding="utf-8"?>
<svg version="1.1" xmlns:xlink="http://www.w3.org/1999/xlink" width="320px" height="45px" xmlns="http://www.w3.org/2000/svg">
  <g transform="matrix(1 0 0 1 -214 -63 )">
    <path d="M 215 65  A 1 1 0 0 1 216 64 L 532 64  A 1 1 0 0 1 533 65 L 533 106  A 1 1 0 0 1 532 107 L 216 107  A 1 1 0 0 1 215 106 L 215 65  Z " fill-rule="nonzero" fill="#f2f2f2" stroke="none" />
    <path d="M 214.5 65  A 1.5 1.5 0 0 1 216 63.5 L 532 63.5  A 1.5 1.5 0 0 1 533.5 65 L 533.5 106  A 1.5 1.5 0 0 1 532 107.5 L 216 107.5  A 1.5 1.5 0 0 1 214.5 106 L 214.5 65  Z " stroke-width="1" stroke="#f2f2f2" fill="none" stroke-opacity="0.996078431372549" />
  </g>
</svg>