<?xml version="1.0" encoding="utf-8"?>
<svg version="1.1" xmlns:xlink="http://www.w3.org/1999/xlink" width="13px" height="15px" xmlns="http://www.w3.org/2000/svg">
  <g transform="matrix(1 0 0 1 -633 -91 )">
    <path d="M 11.8551716796875 13.9251087890625  C 12.0622113183594 13.7643427734375  12.0953688330078 13.4606336865234  11.9292514648438 13.2467137353516  L 9.69850891601562 10.3739114941406  C 9.81400560546875 10.2764026025391  9.92599468261719 10.1739920361328  10.0338165722656 10.0661551464844  C 10.5223203710938 9.57762137695313  10.9058953027344 9.00862215820312  11.1738986035156 8.37494178222656  C 11.4514654150391 7.7186417578125  11.5921899951172 7.0217342578125  11.5921899951172 6.30355618652344  C 11.5921899951172 5.58546805664063  11.4514504150391 4.88860552734375  11.1738836035156 4.23236545898438  C 10.9058803027344 3.59873006835938  10.5223053710938 3.0297608203125  10.0338165722656 2.54125703613281  C 9.5453277734375 2.05275325195313  8.97637352539062 1.66916330566406  8.34273812011719 1.40116001953125  C 7.68651303710937 1.12359320800781  6.98969549316406 0.982853627929688  6.27162233398438 0.982853627929688  C 5.55353420410156 0.982853627929688  4.85667167480469 1.12359320800781  4.20041660644531 1.40116001953125  C 3.56678121582031 1.6691633203125  2.99779698242188 2.05275323730469  2.50930818359375 2.54125703613281  C 2.02080438476563 3.02974583496094  1.637229453125 3.59871508300781  1.36921116699219 4.23236545898438  C 1.09164435546875 4.88862051269531  0.950904775390625 5.58546805664063  0.950904775390625 6.30355618652344  C 0.950904775390625 7.0217342578125  1.09164435546875 7.7186417578125  1.36921116699219 8.37494178222656  C 1.63721446777344 9.00862214355469  2.02078939941406 9.57763636230469  2.50929319824219 10.0661551464844  C 2.99778199707031 10.5546739306641  3.56675124511719 10.9382788476562  4.20040162109375 11.2062971337891  C 4.85665667480469 11.4838639453125  5.55350421875 11.6246035253906  6.27160734863281 11.6246035253906  C 6.9896655078125 11.6246035253906  7.68651303710938 11.4838489599609  8.34273812011719 11.2062821484375  C 8.53199979980469 11.1262214355469  8.71534049316406 11.0356378417969  8.8926552734375 10.9352509130859  L 11.1546066699219 13.8482409082031  C 11.3207090527344 14.0621608740234  11.6231739746094 14.1052566503906  11.8301836279297 13.9445206347656  L 11.8551716796875 13.9251087890625  Z M 10.6927847802734 6.30354120117188  C 10.6927997802734 8.74165315429688  8.70946447753906 10.7251983105469  6.27162233398438 10.7251983105469  C 3.83370524902344 10.7251983105469  1.85029499023438 8.74165315429688  1.85029499023438 6.30354120117188  C 1.85029499023438 3.86562411621094  3.83369024902344 1.88222885742188  6.27162233398438 1.88222885742188  C 8.70946447753906 1.88222885742188  10.6927847802734 3.86562411621094  10.6927847802734 6.30354120117188  Z " fill-rule="nonzero" fill="#ffffff" stroke="none" transform="matrix(1 0 0 1 633 91 )" />
  </g>
</svg>