<?xml version="1.0" encoding="utf-8"?>
<svg version="1.1" xmlns:xlink="http://www.w3.org/1999/xlink" width="5px" height="6px" xmlns="http://www.w3.org/2000/svg">
  <g transform="matrix(1 0 0 1 -17 -22 )">
    <path d="M 4.68431818181818 0.813230769230769  C 4.69363636363636 1.12546153846154  4.44204545454545 1.38092307692308  4.12522727272727 1.38092307692308  L 0.947727272727273 1.38092307692308  C 0.640227272727274 1.38092307692308  0.388636363636364 1.12546153846154  0.388636363636364 0.813230769230769  C 0.388636363636364 0.501  0.640227272727273 0.24553846153846  0.947727272727273 0.24553846153846  L 4.12522727272727 0.24553846153846  C 4.43272727272727 0.24553846153846  4.68431818181818 0.501  4.68431818181818 0.813230769230769  Z M 4.68431818181818 2.95153846153846  C 4.69363636363636 3.26376923076923  4.44204545454545 3.51923076923077  4.12522727272727 3.51923076923077  L 0.947727272727273 3.51923076923077  C 0.640227272727274 3.51923076923077  0.388636363636364 3.26376923076923  0.388636363636364 2.95153846153846  C 0.388636363636364 2.63930769230769  0.640227272727273 2.38384615384615  0.947727272727273 2.38384615384615  L 4.12522727272727 2.38384615384615  C 4.43272727272727 2.38384615384615  4.68431818181818 2.63930769230769  4.68431818181818 2.95153846153846  Z M 4.68431818181818 5.08038461538462  C 4.68431818181818 5.39261538461539  4.44204545454545 5.64807692307692  4.12522727272727 5.64807692307692  L 0.947727272727273 5.64807692307692  C 0.640227272727274 5.64807692307692  0.388636363636364 5.39261538461539  0.388636363636364 5.08038461538462  C 0.388636363636364 4.76815384615385  0.640227272727273 4.51269230769231  0.947727272727273 4.51269230769231  L 4.12522727272727 4.51269230769231  C 4.43272727272727 4.51269230769231  4.68431818181818 4.76815384615385  4.68431818181818 5.08038461538462  Z " fill-rule="nonzero" fill="#aaaaaa" stroke="none" transform="matrix(1 0 0 1 17 22 )" />
  </g>
</svg>