<?xml version="1.0" encoding="utf-8"?>
<svg version="1.1" xmlns:xlink="http://www.w3.org/1999/xlink" width="14px" height="14px" xmlns="http://www.w3.org/2000/svg">
  <g transform="matrix(1 0 0 1 -8 -16 )">
    <path d="M 9.16554545454546 12.4008181818182  C 9.17424242424242 13.1400606060606  8.58284848484849 13.7227575757576  7.85230303030303 13.7227575757576  C 7.62618181818182 13.7227575757576  7.41745454545455 13.6705757575758  7.21742424242424 13.5662121212121  L 5.48672727272727 12.6008484848485  C 5.06057575757576 12.3747272727273  4.79966666666667 11.9311818181818  4.79966666666667 11.4441515151515  L 4.79966666666667 5.94766666666667  C 4.79966666666667 5.86939393939394  4.75618181818182 5.78242424242424  4.69530303030303 5.73893939393939  L 0.69469696969697 2.52975757575758  L 0.651212121212121 2.47757575757576  C 0.277242424242425 2.10360606060606  0.190272727272727 1.547  0.399 1.0599696969697  C 0.607727272727273 0.572939393939393  1.06866666666667 0.277242424242424  1.59918181818182 0.277242424242424  L 12.3921212121212 0.277242424242424  C 12.9139393939394 0.277242424242424  13.3835757575758 0.581636363636363  13.601 1.0599696969697  C 13.8184242424242 1.53830303030303  13.7227575757576 2.08621212121212  13.3661818181818 2.47757575757576  L 13.314 2.52975757575758  L 9.26121212121212 5.77372727272727  C 9.20033333333333 5.82590909090909  9.16554545454546 5.90418181818182  9.16554545454546 5.98245454545455  L 9.16554545454546 12.4008181818182  Z M 1.36436363636364 1.46872727272727  C 1.31218181818182 1.56439393939394  1.32957575757576 1.66875757575758  1.38175757575758 1.7470303030303  L 5.3649696969697 4.93012121212121  C 5.67806060606061 5.18233333333333  5.86069696969697 5.55630303030303  5.86069696969697 5.95636363636364  L 5.86069696969697 11.4528484848485  C 5.86069696969697 11.5485151515152  5.90418181818182 11.6441818181818  5.99115151515152 11.6876666666667  L 7.72184848484849 12.6356363636364  C 7.80012121212121 12.6791212121212  7.90448484848485 12.6791212121212  7.99145454545455 12.6356363636364  C 8.06972727272727 12.5921515151515  8.12190909090909 12.4964848484848  8.12190909090909 12.4008181818182  L 8.12190909090909 5.99115151515152  C 8.12190909090909 5.59109090909091  8.29584848484849 5.21712121212121  8.60893939393939 4.96490909090909  L 12.6008484848485 1.7470303030303  C 12.6617272727273 1.66875757575758  12.6704242424242 1.55569696969697  12.6269393939394 1.46872727272727  C 12.5834545454545 1.38175757575758  12.4964848484849 1.32087878787879  12.3921212121212 1.32087878787879  L 1.59918181818182 1.32087878787879  C 1.49481818181818 1.32087878787879  1.40784848484848 1.37306060606061  1.36436363636364 1.46872727272727  Z " fill-rule="nonzero" fill="#aaaaaa" stroke="none" transform="matrix(1 0 0 1 8 16 )" />
  </g>
</svg>