<?xml version="1.0" encoding="utf-8"?>
<svg version="1.1" xmlns:xlink="http://www.w3.org/1999/xlink" width="11px" height="10px" xmlns="http://www.w3.org/2000/svg">
  <g transform="matrix(1 0 0 1 -109 -191 )">
    <path d="M 5.62765385804858 0  C 5.62498952023834 0  5.62232518298265 0  5.61966084960937 0  C 3.20313789886957 0.00236713023208167  1.24540956442025 1.96200818742645  1.24540956442025 4.37853227183986  C 1.24540956442025 5.39765573867451  1.60090732156766 6.38485903148363  2.25063752929688 7.17001080299279  L 1.78258393554688 7.63806440291236  L 0.954766767578125 6.81506013189175  C 0.79071367466477 6.65875577184259  0.53285044642898 6.65875577184259  0.368797353515625 6.81506013189175  C 0.207548230033518 6.97663389190967  0.207548230033518 7.23825255878732  0.368797353515625 7.39982631880524  L 1.19300485351563 8.22283058982586  L 0.12093349609375 9.29369870659839  C 0.0434928010721302 9.371298744023  0 9.47645138930345  0 9.58608180005513  C 0 9.81468226560728  0.185317735816515 9.99999955828073  0.413918203125 9.99999955828073  C 0.523843438123401 9.99999955828073  0.629253957872655 9.95627361670976  0.70690291015625 9.87846489351188  L 1.77777104492188 8.80759676697373  L 2.6007753125 9.62578814740632  C 2.67919011154709 9.71157425940957  2.79005956655226 9.76043930777988  2.90628408132996 9.76043930777988  C 3.13487948008859 9.76043930777988  3.32019266531433 9.57512612397789  3.32019266531433 9.34653072697556  C 3.32019266531433 9.23030621309081  3.27132761656859 9.11943675893746  3.18554150390625 9.04102196049282  L 2.36253723632812 8.21801769923784  L 2.83059083007813 7.74996409931827  C 3.61668299344218 8.40236669701189  4.60610109616107 8.75946057723236  5.62765385804858 8.75946057723236  C 8.04651212340739 8.75946057723236  10.0073841803142 6.79858853539091  10.0073841803142 4.37973028861618  C 10.0073841803142 1.96087204184144  8.04651212340739 0  5.62765385804858 0  Z M 9.17277723632813 4.37973758224295  C 9.17144991381475 6.34151950390882  7.58144278634761 7.93152661915995  5.61966084960938 7.93285394166312  C 3.65732885485072 7.93285394166312  2.06654446289063 6.34206956192502  2.06654446289063 4.37973758224295  C 2.06654446289063 2.41740560256088  3.65732885485072 0.826621222822772  5.61966084960938 0.826621222822772  C 7.58199284436803 0.826621222822772  9.17277723632813 2.41740560256088  9.17277723632813 4.37973758224295  Z " fill-rule="nonzero" fill="#707070" stroke="none" transform="matrix(1 0 0 1 109 191 )" />
  </g>
</svg>