<?xml version="1.0" encoding="utf-8"?>
<svg version="1.1" xmlns:xlink="http://www.w3.org/1999/xlink" width="64px" height="19px" xmlns="http://www.w3.org/2000/svg">
  <defs>
    <mask fill="white" id="clip19">
      <path d="M 0 18  L 0 1  C 0 0.439999999999998  0.439999999999998 0  1 0  L 23.5056179775281 0  L 34.7415730337079 0  L 63 0  C 63.56 0  64 0.439999999999998  64 1  L 64 18  C 64 18.56  63.56 19  63 19  L 1 19  C 0.439999999999998 19  0 18.56  0 18  Z " fill-rule="evenodd" />
    </mask>
  </defs>
  <g transform="matrix(1 0 0 1 -132 -189 )">
    <path d="M 0 18  L 0 1  C 0 0.439999999999998  0.439999999999998 0  1 0  L 23.5056179775281 0  L 34.7415730337079 0  L 63 0  C 63.56 0  64 0.439999999999998  64 1  L 64 18  C 64 18.56  63.56 19  63 19  L 1 19  C 0.439999999999998 19  0 18.56  0 18  Z " fill-rule="nonzero" fill="#ffffff" stroke="none" transform="matrix(1 0 0 1 132 189 )" />
    <path d="M 0 18  L 0 1  C 0 0.439999999999998  0.439999999999998 0  1 0  L 23.5056179775281 0  L 34.7415730337079 0  L 63 0  C 63.56 0  64 0.439999999999998  64 1  L 64 18  C 64 18.56  63.56 19  63 19  L 1 19  C 0.439999999999998 19  0 18.56  0 18  Z " stroke-width="2" stroke="#f2f2f2" fill="none" transform="matrix(1 0 0 1 132 189 )" mask="url(#clip19)" />
  </g>
</svg>