<?xml version="1.0" encoding="utf-8"?>
<svg version="1.1" xmlns:xlink="http://www.w3.org/1999/xlink" width="11px" height="11px" xmlns="http://www.w3.org/2000/svg">
  <g transform="matrix(1 0 0 1 -108 -340 )">
    <path d="M 7.77161457910156 2.56958332910156  L 9.09517707910156 1.24602082910156  L 7.66666667089844 1.24602082910156  C 7.44230099127968 1.24602082910156  7.26041667089844 1.06413650872032  7.26041667089844 0.839770829101563  C 7.26041667089844 0.615405149482803  7.44230099127968 0.433520829101563  7.66666667089844 0.433520829101563  L 10.1041666708984 0.433520829101563  C 10.3285323505172 0.433520829101563  10.5104166708984 0.615405149482803  10.5104166708984 0.839770829101563  L 10.5104166708984 3.27727082910156  C 10.5104166708984 3.50163650872032  10.3285323505172 3.68352082910156  10.1041666708984 3.68352082910156  C 9.87980099127968 3.68352082910156  9.69791667089844 3.50163650872032  9.69791667089844 3.27727082910156  L 9.69791667089844 1.79229167089844  L 8.35390625 3.13630207910156  C 9.04790082979959 3.94505924775378  9.42869553495113 4.97596782252248  9.42708332910156 6.04166667089844  C 9.42708332910156 8.50963542089844  7.42630207910156 10.5104166708984  4.95833332910156 10.5104166708984  C 2.49036457910156 10.5104166708984  0.489583329101562 8.50963542089844  0.489583329101562 6.04166667089844  C 0.489583329101562 3.57369792089844  2.49036457910156 1.57291667089844  4.95833332910156 1.57291667089844  C 5.98286274724517 1.57139547087941  6.97653909876481 1.92342713803127  7.77161457910156 2.56958332910156  Z M 1.30208332910156 6.04166667089844  C 1.30208332910156 8.06100001269531  2.939 9.69791667089844  4.95833332910156 9.69791667089844  C 6.97766665820312 9.69791667089844  8.61458332910156 8.061  8.61458332910156 6.04166667089844  C 8.61458332910156 4.02233334179688  6.97766667089844 2.38541667089844  4.95833332910156 2.38541667089844  C 2.93899998730469 2.38541667089844  1.30208332910156 4.02233332910156  1.30208332910156 6.04166667089844  Z " fill-rule="nonzero" fill="#707070" stroke="none" transform="matrix(1 0 0 1 108 340 )" />
  </g>
</svg>