<?xml version="1.0" encoding="utf-8"?>
<svg version="1.1" xmlns:xlink="http://www.w3.org/1999/xlink" width="221px" height="116px" xmlns="http://www.w3.org/2000/svg">
  <defs>
    <mask fill="white" id="clip16">
      <path d="M 0 105.365853658537  L 0 5.92682926829268  C 0 4.45170731707317  1.76 3.29268292682927  4 4  L 18.2360801781737 4  L 23.8243243243243 0.614040870138424  L 28.0356347438753 3.29268292682927  L 35.8307349665924 3.29268292682927  L 42.7692307692308 4  L 209 4  C 211.24 3.29268292682927  213 4.45170731707317  213 5.92682926829268  L 213 105.365853658537  C 213 106.840975609756  211.24 108  209 108  L 4 108  C 1.76 108  0 106.840975609756  0 105.365853658537  Z " fill-rule="evenodd" />
    </mask>
    <filter x="-4px" y="31px" width="221px" height="116px" filterUnits="userSpaceOnUse" id="filter17">
      <feOffset dx="0" dy="0" in="SourceAlpha" result="shadowOffsetInner" />
      <feGaussianBlur stdDeviation="2" in="shadowOffsetInner" result="shadowGaussian" />
      <feComposite in2="shadowGaussian" operator="atop" in="SourceAlpha" result="shadowComposite" />
      <feColorMatrix type="matrix" values="0 0 0 0 0.850980392156863  0 0 0 0 0.850980392156863  0 0 0 0 0.850980392156863  0 0 0 0.988235294117647 0  " in="shadowComposite" />
    </filter>
    <g id="widget18">
      <path d="M 0 105.365853658537  L 0 5.92682926829268  C 0 4.45170731707317  1.76 3.29268292682927  4 4  L 18.2360801781737 4  L 23.8243243243243 0.614040870138424  L 28.0356347438753 3.29268292682927  L 35.8307349665924 3.29268292682927  L 42.7692307692308 4  L 209 4  C 211.24 3.29268292682927  213 4.45170731707317  213 5.92682926829268  L 213 105.365853658537  C 213 106.840975609756  211.24 108  209 108  L 4 108  C 1.76 108  0 106.840975609756  0 105.365853658537  Z " fill-rule="nonzero" fill="#ffffff" stroke="none" transform="matrix(1 0 0 1 0 35 )" />
      <path d="M 0 105.365853658537  L 0 5.92682926829268  C 0 4.45170731707317  1.76 3.29268292682927  4 4  L 18.2360801781737 4  L 23.8243243243243 0.614040870138424  L 28.0356347438753 3.29268292682927  L 35.8307349665924 3.29268292682927  L 42.7692307692308 4  L 209 4  C 211.24 3.29268292682927  213 4.45170731707317  213 5.92682926829268  L 213 105.365853658537  C 213 106.840975609756  211.24 108  209 108  L 4 108  C 1.76 108  0 106.840975609756  0 105.365853658537  Z " stroke-width="2" stroke="#d9d9d9" fill="none" transform="matrix(1 0 0 1 0 35 )" mask="url(#clip16)" />
    </g>
  </defs>
  <g transform="matrix(1 0 0 1 4 -31 )">
    <use xlink:href="#widget18" filter="url(#filter17)" />
    <use xlink:href="#widget18" />
  </g>
</svg>