<?xml version="1.0" encoding="utf-8"?>
<svg version="1.1" xmlns:xlink="http://www.w3.org/1999/xlink" width="440px" height="182px" xmlns="http://www.w3.org/2000/svg">
  <g transform="matrix(1 0 0 1 -3 -211 )">
    <path d="M 0 177.645933014354  L 0 13.0622009569378  C 0 10.6239234449761  2.19999999999999 8.70813397129187  5 9  L 131.741258741259 9  L 150.622377622378 8.70813397129187  L 160.412587412587 0.694214876033085  L 169.503496503497 9  L 184.888111888112 9  L 202.370629370629 9  L 435 9  C 437.8 8.70813397129187  440 10.6239234449761  440 13.0622009569378  L 440 177.645933014354  C 440 180.084210526316  437.8 182  435 182  L 5 182  C 2.19999999999999 182  0 180.084210526316  0 177.645933014354  Z " fill-rule="nonzero" fill="#81d3f8" stroke="none" transform="matrix(1 0 0 1 3 211 )" />
  </g>
</svg>