<?xml version="1.0" encoding="utf-8"?>
<svg version="1.1" xmlns:xlink="http://www.w3.org/1999/xlink" width="440px" height="159px" xmlns="http://www.w3.org/2000/svg">
  <g transform="matrix(1 0 0 1 -142 -18 )">
    <path d="M 0 155.196172248804  L 0 11.4114832535885  C 0 9.28133971291866  2.19999999999999 7.60765550239234  5 8  L 131.741258741259 8  L 150.622377622378 7.60765550239234  L 160.412587412587 0.606484424666267  L 169.503496503497 8  L 184.888111888112 8  L 202.370629370629 8  L 435 8  C 437.8 7.60765550239234  440 9.28133971291866  440 11.4114832535885  L 440 155.196172248804  C 440 157.326315789474  437.8 159  435 159  L 5 159  C 2.19999999999999 159  0 157.326315789474  0 155.196172248804  Z " fill-rule="nonzero" fill="#81d3f8" stroke="none" transform="matrix(1 0 0 1 142 18 )" />
  </g>
</svg>