<?xml version="1.0" encoding="utf-8"?>
<svg version="1.1" xmlns:xlink="http://www.w3.org/1999/xlink" width="89px" height="40px" xmlns="http://www.w3.org/2000/svg">
  <g transform="matrix(1 0 0 1 -786 -1446 )">
    <path d="M 787 1451  A 4 4 0 0 1 791 1447 L 870 1447  A 4 4 0 0 1 874 1451 L 874 1481  A 4 4 0 0 1 870 1485 L 791 1485  A 4 4 0 0 1 787 1481 L 787 1451  Z " fill-rule="nonzero" fill="#39aafb" stroke="none" fill-opacity="0" />
    <path d="M 786.5 1451  A 4.5 4.5 0 0 1 791 1446.5 L 870 1446.5  A 4.5 4.5 0 0 1 874.5 1451 L 874.5 1481  A 4.5 4.5 0 0 1 870 1485.5 L 791 1485.5  A 4.5 4.5 0 0 1 786.5 1481 L 786.5 1451  Z " stroke-width="1" stroke="#797979" fill="none" stroke-opacity="0.498039215686275" />
  </g>
</svg>