<?xml version="1.0" encoding="utf-8"?>
<svg version="1.1" xmlns:xlink="http://www.w3.org/1999/xlink" width="125px" height="102px" xmlns="http://www.w3.org/2000/svg">
  <defs>
    <mask fill="white" id="clip7">
      <path d="M 7 95.013698630137  L 7 56.989157454911  L 6.91218221706026 52.6732956048025  L 5.8901098901099 52.6732956048025  L 0.826584886673999 50.1557095255726  L 6.91218221706026 43.8617443274977  L 7 37.3879515523351  L 7 6.98630136986303  C 6.91218221706026 3.07397260273969  9.05923344947735 0  11.7918441089173 0  L 120.120338108143 0  C 122.852948767583 0  125 3.07397260273969  125 6.98630136986303  L 125 95.013698630137  C 125 98.9260273972603  122.852948767583 102  120.120338108143 102  L 11.7918441089173 102  C 9.05923344947735 102  6.91218221706026 98.9260273972603  7 95.013698630137  Z " fill-rule="evenodd" />
    </mask>
  </defs>
  <g transform="matrix(1 0 0 1 447 -731 )">
    <path d="M 7 95.013698630137  L 7 56.989157454911  L 6.91218221706026 52.6732956048025  L 5.8901098901099 52.6732956048025  L 0.826584886673999 50.1557095255726  L 6.91218221706026 43.8617443274977  L 7 37.3879515523351  L 7 6.98630136986303  C 6.91218221706026 3.07397260273969  9.05923344947735 0  11.7918441089173 0  L 120.120338108143 0  C 122.852948767583 0  125 3.07397260273969  125 6.98630136986303  L 125 95.013698630137  C 125 98.9260273972603  122.852948767583 102  120.120338108143 102  L 11.7918441089173 102  C 9.05923344947735 102  6.91218221706026 98.9260273972603  7 95.013698630137  Z " fill-rule="nonzero" fill="#ffffff" stroke="none" transform="matrix(1 0 0 1 -447 731 )" />
    <path d="M 7 95.013698630137  L 7 56.989157454911  L 6.91218221706026 52.6732956048025  L 5.8901098901099 52.6732956048025  L 0.826584886673999 50.1557095255726  L 6.91218221706026 43.8617443274977  L 7 37.3879515523351  L 7 6.98630136986303  C 6.91218221706026 3.07397260273969  9.05923344947735 0  11.7918441089173 0  L 120.120338108143 0  C 122.852948767583 0  125 3.07397260273969  125 6.98630136986303  L 125 95.013698630137  C 125 98.9260273972603  122.852948767583 102  120.120338108143 102  L 11.7918441089173 102  C 9.05923344947735 102  6.91218221706026 98.9260273972603  7 95.013698630137  Z " stroke-width="2" stroke="#797979" fill="none" stroke-opacity="0.298039215686275" transform="matrix(1 0 0 1 -447 731 )" mask="url(#clip7)" />
  </g>
</svg>