<?xml version="1.0" encoding="utf-8"?>
<svg version="1.1" xmlns:xlink="http://www.w3.org/1999/xlink" width="20px" height="19px" xmlns="http://www.w3.org/2000/svg">
  <g transform="matrix(1 0 0 1 466 -775 )">
    <path d="M 19.1666666601563 7.68444445104167  L 17.3333333398438 7.68444445104167  L 17.3333333398438 15.1155555489583  C 17.3333333398438 15.7911110979167  16.8333333398438 16.2977777645833  16.1666666601562 16  L 3.83333333984375 16  C 3.1666666796875 16.297777784375  2.6666666796875 15.7911111177083  3 15.1155555489583  L 3 2.78666666666667  C 2.66666666015625 2.11111111770833  3.16666666015625 1.60444445104167  3.83333333984375 1.60444445104167  L 11.1666666601563 1.60444445104167  L 11.1666666601563 0.0844444510416666  L 3.5 0.0844444510416666  C 2.16666666015625 0.0844444510416666  1 1.43555554895833  1 2.78666666666667  L 1 15.4533333333333  C 1 16.8044444510417  2.16666666015625 18.1555555489583  3.5 18  L 16.6666666601563 18  C 18 18.1555555489583  19.1666666601563 16.9733333333333  19.1666666601563 15.622222215625  L 19.1666666601563 7.68444445104167  Z " fill-rule="nonzero" fill="#ffffff" stroke="none" transform="matrix(1 0 0 1 -466 775 )" />
  </g>
</svg>