<?xml version="1.0" encoding="utf-8"?>
<svg version="1.1" xmlns:xlink="http://www.w3.org/1999/xlink" width="26px" height="26px" xmlns="http://www.w3.org/2000/svg">
  <g transform="matrix(1 0 0 1 447 -632 )">
    <path d="M 22.162459166061 22.1263212209302  C 19.7163340297965 24.5622906976744  16.461835755814 25.9048341660611  13 25.9048341660611  C 9.53816424418605 25.9048341660611  6.28369490370639 24.5632455032703  3.83568908975291 22.1272760265262  C 1.3867574037064 19.6894837390988  0.0377906976744186 16.4489024800145  0.0377906976744186 13.0000578670058  C 0.0377906976744186 9.5520812590843  1.3867863372093 6.31063199491279  3.83479215116279 3.87370771257267  C 6.28279796511628 1.43776716933139  9.53726730559593 0.0961495730377889  12.9991030614099 0.0961495730377889  C 16.4609388172238 0.0961495730377889  19.7154081577035 1.43776716933139  22.162459166061 3.87370771257267  C 24.6123167242006 6.31063199491279  25.9603575581395 9.5520812590843  25.9603575581395 12.9991030614099  C 25.9613123637355 16.4479766079215  24.6123167242006 19.6894837390988  22.162459166061 22.1263212209302  Z M 20.8569216478924 5.18653647347384  C 18.7597924236919 3.09779796511628  15.9683748637355 1.94691001998547  13 1.94691001998547  C 10.0307281976744 1.94691001998547  7.24014970930233 3.09684315952035  5.14215248001453 5.18563953488372  C 3.04505218931686 7.27255523255814  1.88953488372093 10.0483197674419  1.88953488372093 13  C 1.88953488372093 15.9516802325581  3.04406845021802 18.7274447674419  5.14119767441861 20.8134056595203  C 7.2392238372093 22.9021731013808  10.0298023255814 24.0521351744186  12.9990451944041 24.0521351744186  C 15.9674200581395 24.0521351744186  18.7588954851017 22.9022020348837  20.8569216478924 20.8134056595203  C 22.9540219385901 18.7255640897529  24.1095103106831 15.9507543604651  24.1085844385901 12.9990451944041  C 24.1085844385901 10.0473649618459  22.9540219385901 7.27255523255814  20.8569216478924 5.18653647347384  Z " fill-rule="nonzero" fill="#ffffff" stroke="none" transform="matrix(1 0 0 1 -447 632 )" />
  </g>
</svg>