<?xml version="1.0" encoding="utf-8"?>
<svg version="1.1" xmlns:xlink="http://www.w3.org/1999/xlink" width="15px" height="15px" xmlns="http://www.w3.org/2000/svg">
  <g transform="matrix(1 0 0 1 442 -637 )">
    <path d="M 13.93125 6.58125  L 8.41875 6.58125  L 8.41875 1.06875  C 8.41875 0.5616  8.0071787109375 0.15  7.5 0.15  C 6.9928212890625 0.15  6.58125 0.5616  6.58125 1.06875  L 6.58125 6.58125  L 1.06875 6.58125  C 0.5616 6.58125  0.15 6.9928787109375  0.15 7.500057421875  C 0.15 8.0072361328125  0.5616 8.418807421875  1.06875 8.418807421875  L 6.58125 8.418807421875  L 6.58125 13.931307421875  C 6.58125 14.439376171875  6.9928787109375 14.8500861328125  7.500057421875 14.8500861328125  C 8.0072361328125 14.8500861328125  8.418807421875 14.43943359375  8.418807421875 13.9313361328125  L 8.418807421875 8.41875  L 13.931307421875 8.41875  C 14.439376171875 8.41875  14.8500861328125 8.00715  14.8500861328125 7.4999712890625  C 14.8500861328125 6.992792578125  14.4393474609375 6.5812212890625  13.9312787109375 6.5812212890625  Z " fill-rule="nonzero" fill="#ffffff" stroke="none" transform="matrix(1 0 0 1 -442 637 )" />
  </g>
</svg>