<?xml version="1.0" encoding="utf-8"?>
<svg version="1.1" xmlns:xlink="http://www.w3.org/1999/xlink" width="125px" height="67px" xmlns="http://www.w3.org/2000/svg">
  <defs>
    <mask fill="white" id="clip8">
      <path d="M 7 62.4109589041096  L 7 37.4340544066572  L 6.91218221706026 34.5991255443311  L 5.8901098901099 34.5991255443311  L 0.826584886673999 32.9454170413075  L 6.91218221706026 28.8111457837485  L 7 24.5587524902593  L 7 4.58904109589042  C 6.91218221706026 2.01917808219176  9.05923344947735 0  11.7918441089173 0  L 120.120338108143 0  C 122.852948767583 0  125 2.01917808219176  125 4.58904109589042  L 125 62.4109589041096  C 125 64.9808219178082  122.852948767583 67  120.120338108143 67  L 11.7918441089173 67  C 9.05923344947735 67  6.91218221706026 64.9808219178082  7 62.4109589041096  Z " fill-rule="evenodd" />
    </mask>
  </defs>
  <g transform="matrix(1 0 0 1 421 -610 )">
    <path d="M 7 62.4109589041096  L 7 37.4340544066572  L 6.91218221706026 34.5991255443311  L 5.8901098901099 34.5991255443311  L 0.826584886673999 32.9454170413075  L 6.91218221706026 28.8111457837485  L 7 24.5587524902593  L 7 4.58904109589042  C 6.91218221706026 2.01917808219176  9.05923344947735 0  11.7918441089173 0  L 120.120338108143 0  C 122.852948767583 0  125 2.01917808219176  125 4.58904109589042  L 125 62.4109589041096  C 125 64.9808219178082  122.852948767583 67  120.120338108143 67  L 11.7918441089173 67  C 9.05923344947735 67  6.91218221706026 64.9808219178082  7 62.4109589041096  Z " fill-rule="nonzero" fill="#ffffff" stroke="none" transform="matrix(1 0 0 1 -421 610 )" />
    <path d="M 7 62.4109589041096  L 7 37.4340544066572  L 6.91218221706026 34.5991255443311  L 5.8901098901099 34.5991255443311  L 0.826584886673999 32.9454170413075  L 6.91218221706026 28.8111457837485  L 7 24.5587524902593  L 7 4.58904109589042  C 6.91218221706026 2.01917808219176  9.05923344947735 0  11.7918441089173 0  L 120.120338108143 0  C 122.852948767583 0  125 2.01917808219176  125 4.58904109589042  L 125 62.4109589041096  C 125 64.9808219178082  122.852948767583 67  120.120338108143 67  L 11.7918441089173 67  C 9.05923344947735 67  6.91218221706026 64.9808219178082  7 62.4109589041096  Z " stroke-width="2" stroke="#797979" fill="none" stroke-opacity="0.298039215686275" transform="matrix(1 0 0 1 -421 610 )" mask="url(#clip8)" />
  </g>
</svg>