<?xml version="1.0" encoding="utf-8"?>
<svg version="1.1" xmlns:xlink="http://www.w3.org/1999/xlink" width="485px" height="265px" xmlns="http://www.w3.org/2000/svg">
  <g transform="matrix(1 0 0 1 -387 -134 )">
    <path d="M 13 258.360464903115  L 13 130.190476190476  L 0.447552447552425 122.202797202797  L 13 111.917491749175  L 13 101.023809523809  L 13 7.38603824084771  C 13 3.66789858659189  15.36 0.746503143962343  18.3636363636364 1  L 131.356435643564 1  L 139.772277227723 0.746503143962343  L 147.461538461539 0.746503143962343  L 154.322441195168 0.746503143962343  L 162.049504950495 1  L 174.576732358551 1  L 186.213485851896 0.746503143962343  L 194.831023521933 1  L 211.334520025429 1  L 230.088493324857 1  L 479.636363636364 1  C 482.64 0.746503143962343  485 3.66789858659189  485 7.38603824084771  L 485 258.360464903115  C 485 262.07860455737  482.64 265  479.636363636364 265  L 18.3636363636364 265  C 15.36 265  13 262.07860455737  13 258.360464903115  Z " fill-rule="nonzero" fill="#81d3f8" stroke="none" fill-opacity="0.996078431372549" transform="matrix(1 0 0 1 387 134 )" />
  </g>
</svg>