<?xml version="1.0" encoding="utf-8"?>
<svg version="1.1" xmlns:xlink="http://www.w3.org/1999/xlink" width="15px" height="9px" xmlns="http://www.w3.org/2000/svg">
  <g transform="matrix(1 0 0 1 -603 -182 )">
    <path d="M 14.140625 2.1533203125  C 14.6875 1.599609375  14.609375 0.887695312500002  14.21875 0.4130859375  C 13.984375 0.17578125  13.671875 0.0966796875  13.359375 0.0966796875  L 1.640625 0.17578125  C 1.328125 0.17578125  1.015625 0.2548828125  0.78125 0.4921875  C 0.312500000000001 0.966796875  0.312500000000001 1.6787109375  0.78125 2.1533203125  L 6.640625 8.0859375  C 6.71875 8.1650390625  6.875 8.244140625  6.953125 8.3232421875  L 7.03125 8.40234375  C 7.421875 8.560546875  7.96875 8.4814453125  8.28125 8.1650390625  L 14.140625 2.1533203125  Z " fill-rule="nonzero" fill="#2c2c2c" stroke="none" transform="matrix(1 0 0 1 603 182 )" />
  </g>
</svg>