<?xml version="1.0" encoding="utf-8"?>
<svg version="1.1" xmlns:xlink="http://www.w3.org/1999/xlink" width="308px" height="79px" xmlns="http://www.w3.org/2000/svg">
  <g transform="matrix(1 0 0 1 -18 -49 )">
    <path d="M 19 54  A 4 4 0 0 1 23 50 L 321 50  A 4 4 0 0 1 325 54 L 325 123  A 4 4 0 0 1 321 127 L 23 127  A 4 4 0 0 1 19 123 L 19 54  Z " fill-rule="nonzero" fill="#c280ff" stroke="none" fill-opacity="0.0980392156862745" />
    <path d="M 18.5 54  A 4.5 4.5 0 0 1 23 49.5 L 321 49.5  A 4.5 4.5 0 0 1 325.5 54 L 325.5 123  A 4.5 4.5 0 0 1 321 127.5 L 23 127.5  A 4.5 4.5 0 0 1 18.5 123 L 18.5 54  Z " stroke-width="1" stroke="#f2f2f2" fill="none" stroke-opacity="0.498039215686275" />
  </g>
</svg>