<?xml version="1.0" encoding="utf-8"?>
<svg version="1.1" xmlns:xlink="http://www.w3.org/1999/xlink" width="21px" height="21px" xmlns="http://www.w3.org/2000/svg">
  <g transform="matrix(1 0 0 1 -311 -42 )">
    <path d="M 14.6625 13.65  L 11.45625 10.44375  L 14.6625 7.2375  C 14.8875 7.0125  14.8875 6.675  14.6625 6.50625  L 14.4375 6.28125  C 14.2125 6.05625  13.875 6.05625  13.70625 6.28125  L 10.5 9.4875  L 7.2375 6.225  C 7.06875 6.05625  6.7875 6.05625  6.5625 6.225  L 6.28125 6.50625  C 6.1125 6.675  6.1125 6.95625  6.28125 7.18125  L 9.54375 10.44375  L 6.3375 13.65  C 6.1125 13.875  6.1125 14.2125  6.3375 14.38125  L 6.50625 14.55  C 6.73125 14.775  7.06875 14.775  7.2375 14.55  L 10.44375 11.34375  L 13.70625 14.60625  C 13.875 14.775  14.15625 14.775  14.38125 14.60625  L 14.6625 14.325  C 14.83125 14.15625  14.83125 13.875  14.6625 13.65  Z M 20.45625 10.44375  C 20.45625 4.93125  16.0125 0.4875  10.5 0.4875  C 4.9875 0.4875  0.54375 4.93125  0.54375 10.44375  C 0.54375 15.95625  4.9875 20.4  10.5 20.4  C 16.0125 20.4  20.45625 15.95625  20.45625 10.44375  Z M 19.66875 10.44375  C 19.66875 15.50625  15.5625 19.6125  10.5 19.6125  C 5.4375 19.6125  1.33125 15.50625  1.33125 10.44375  C 1.33125 5.38125  5.4375 1.275  10.5 1.275  C 15.5625 1.275  19.66875 5.38125  19.66875 10.44375  Z " fill-rule="nonzero" fill="#000000" stroke="none" transform="matrix(1 0 0 1 311 42 )" />
  </g>
</svg>