<?xml version="1.0" encoding="utf-8"?>
<svg version="1.1" xmlns:xlink="http://www.w3.org/1999/xlink" width="8px" height="6px" xmlns="http://www.w3.org/2000/svg">
  <g transform="matrix(1 0 0 1 -217 -109 )">
    <path d="M 7.54166666666667 1.435546875  C 7.83333333333333 1.06640625  7.79166666666667 0.591796875000001  7.58333333333333 0.275390625  C 7.45833333333333 0.1171875  7.29166666666667 0.064453125  7.125 0.064453125  L 0.875 0.1171875  C 0.708333333333333 0.1171875  0.541666666666667 0.169921875  0.416666666666667 0.328125  C 0.166666666666667 0.64453125  0.166666666666667 1.119140625  0.416666666666667 1.435546875  L 3.54166666666667 5.390625  C 3.58333333333333 5.443359375  3.66666666666667 5.49609375  3.70833333333333 5.548828125  L 3.75 5.6015625  C 3.95833333333333 5.70703125  4.25 5.654296875  4.41666666666667 5.443359375  L 7.54166666666667 1.435546875  Z " fill-rule="nonzero" fill="#2c2c2c" stroke="none" transform="matrix(1 0 0 1 217 109 )" />
  </g>
</svg>